<?xml version="1.0" encoding="UTF-8"?>
<svg id="_レイヤー_1" data-name="レイヤー 1" xmlns="http://www.w3.org/2000/svg" viewBox="0 0 500 500">
  <defs>
    <style>
      .cls-1 {
        fill: #898989;
      }

      .cls-1, .cls-2, .cls-3, .cls-4, .cls-5, .cls-6, .cls-7, .cls-8, .cls-9, .cls-10, .cls-11, .cls-12, .cls-13, .cls-14 {
        stroke-width: 0px;
      }

      .cls-2 {
        fill: #5a5757;
      }

      .cls-3 {
        fill: #443f3e;
      }

      .cls-4 {
        fill: #c9c9ca;
      }

      .cls-5 {
        fill: #dff2fb;
      }

      .cls-6 {
        fill: #c8cad5;
      }

      .cls-7 {
        fill: #dd9b05;
      }

      .cls-8 {
        fill: #ac7804;
      }

      .cls-9 {
        fill: #9e9e9f;
      }

      .cls-10 {
        fill: #c1dbe8;
      }

      .cls-11 {
        fill: #fdfefe;
      }

      .cls-12 {
        fill: #686666;
      }

      .cls-13 {
        fill: #fff;
      }

      .cls-14 {
        fill: #f6ac06;
      }
    </style>
  </defs>
  <path class="cls-5" d="m259.53,261.26c-1.27.19-2.53.39-3.77-.13,1.26-.03,2.52-.01,3.77.13Z"/>
  <path class="cls-1" d="m88.81,327.2c-.97.79-2.15,1.28-3.04,2.17-.08.02-.17.02-.24.06-3.76,2.38-7.22,5.09-9.83,8.76-.38.53-.66,1.16-1.25,1.53,0-.25-.01-.5-.02-.76-.21-12.21-.14-24.42-.32-36.63-.14-9.99-.06-19.97-.25-29.96-.18-9.69-.06-19.39-.25-29.08-.19-10.03-.07-20.06-.26-30.08-.18-9.61-.06-19.22-.25-28.82-.14-7.3-.12-14.6-.19-21.9-.01-1.13-.01-1.14-1.12-1.35-8.72-1.67-17.45-3.33-26.17-5-6.38-1.22-12.75-2.45-19.13-3.66-6.42-1.22-12.84-2.43-19.27-3.65.06-.67.68-.69,1.09-.89,5.16-2.41,10.38-4.7,15.66-6.85,8.8-3.6,17.68-6.99,26.64-10.17,5.49-1.95,10.99-3.83,16.53-5.63,4.14-1.35,8.27-2.74,12.43-4.02,7.92-2.44,15.85-4.83,23.83-7.07,6.89-1.94,13.78-3.85,20.71-5.63,12.68-3.26,25.39-6.4,38.18-9.19,5.92-1.29,11.83-2.66,17.77-3.85,9.26-1.86,18.51-3.73,27.81-5.41,5.51-.99,11.02-1.99,16.53-2.95,3.33-.58,6.67-1.16,10-1.71,2.72-.45,5.44-.87,8.17-1.3,2.56-.4,5.12-.78,7.68-1.17,2.39-.36,4.79-.74,7.18-1.1,2.35-.35,4.71-.69,7.06-1.04,2.56.9,5.15,1.74,7.74,2.55,4.43,1.38,8.81,2.93,13.24,4.33,6.1,1.92,12.16,3.99,18.24,5.98,4.09,1.34,8.19,2.67,12.28,4.02.42.14.92.16,1.21.58-.56-.12-.88.11-1,.67-.08.41-.17.82-.27,1.23-.5,2.16-1.01,4.32-1.51,6.48-.11.48-.29.81-.88.89-4.9.61-9.76,1.42-14.63,2.22-6.27,1.03-12.52,2.21-18.76,3.41-9.16,1.77-18.28,3.72-27.38,5.76-9.11,2.03-18.19,4.15-27.25,6.4-8.17,2.03-16.32,4.08-24.46,6.2-7.62,1.98-15.22,4.02-22.8,6.11-9.16,2.53-18.3,5.13-27.41,7.83-8.71,2.59-17.4,5.26-26.05,8.05-8.85,2.86-17.64,5.9-26.35,9.19-3.25,1.23-6.5,2.48-9.67,3.91-1.83.82-1.52.6-1.5,2.3.08,6.37,0,12.75.18,19.12.26,9.35,0,18.71.25,28.06.26,9.77,0,19.55.26,29.32.24,9.1,0,18.2.24,27.31.26,9.77.01,19.55.25,29.32.19,7.89.08,15.78.11,23.67,0,.49-.13,1.01.21,1.46Zm48.08-187.18c1.61-.46,3.21-.92,4.82-1.37,8.82-2.46,17.62-4.96,26.46-7.36,8.07-2.19,16.17-4.25,24.26-6.37.33-.09.65-.18.91-.39,1.79-.15,3.48-.79,5.22-1.17,6.25-1.54,12.49-3.07,18.75-4.57,8.7-2.07,17.42-4.01,26.15-5.95,2.6-.58,5.21-1.14,7.81-1.71,1.41-.28,2.82-.56,4.23-.85,18.08-3.82,36.24-7.22,54.54-10.32-.29-.38-.59-.41-.86-.5-3.03-.99-6.05-1.98-9.08-2.97-6.05-1.99-12.1-3.97-18.15-5.96-5.13-1.69-10.26-3.4-15.39-5.1-1.86-.61-3.68-1.17-5.73-.78-3.69.7-7.43,1.17-11.14,1.74-4.01.61-8.02,1.18-12.02,1.84-5.94.97-11.87,1.96-17.8,3.01-6.42,1.14-12.83,2.31-19.23,3.55-5.99,1.16-11.96,2.46-17.94,3.65-9.06,1.81-18.08,3.85-27.07,5.97-5.95,1.39-11.88,2.85-17.8,4.36-10.22,2.6-20.4,5.35-30.54,8.26-8.21,2.36-16.38,4.84-24.51,7.46-11.76,3.79-23.43,7.86-34.97,12.3-7.7,2.97-15.32,6.13-22.85,9.52-1.1.49-2.17,1.05-3.36,1.63.52.26.91.35,1.31.43,1.93.35,3.86.71,5.79,1.08,5.5,1.06,11,2.14,16.5,3.19,5.83,1.12,11.66,2.22,17.49,3.35,4.02.78,8.03,1.61,12.06,2.37.71.13,1.44.36,2.22.06,1.05-.4,2.16-.68,3.23-1.04,8.58-2.87,17.21-5.57,25.87-8.2,7.49-2.27,15-4.48,22.49-6.75,1.19-.36,2.44-.57,3.56-1.14,1.63-.27,3.18-.84,4.77-1.28Z"/>
  <path class="cls-1" d="m254.97,250.4c-1.81.29-3.64.12-5.46.11-.12-8.98-.01-17.95-.23-26.93-.19-7.84-.08-15.69-.11-23.54,0-.46.04-.94-.06-1.38-.11-.5.06-.77.46-1.03,1.42-.89,2.8-1.86,4.24-2.7,6.08-3.57,12.41-6.65,18.87-9.49,8.29-3.65,16.74-6.9,25.28-9.87,8.55-2.98,17.18-5.67,25.88-8.17,13.64-3.93,27.4-7.41,41.2-10.72,8.58-2.06,17.2-3.98,25.85-5.73,4.02-.82,8.04-1.59,12.07-2.33,3.7-.67,7.42-1.29,11.13-1.88,2.68-.43,5.38-.79,8.07-1.16,1.74-.24,3.48-.48,5.23-.65,1.16-.11,2.33-.35,3.48-.17,1.2.18,2.36.56,3.54.84.22.05.39.15.45.38-.31.11-.62.28-.95.32-2.57.33-5.11.84-7.66,1.27-4.49.75-8.96,1.61-13.43,2.47-3.57.68-7.14,1.38-10.69,2.13-1.71.36-3.45.58-5.1,1.2-1.79.15-3.53.58-5.26,1.06-.13,0-.26-.02-.38,0-8.41,1.8-16.8,3.73-25.18,5.69-4.11.96-8.22,1.92-12.31,2.94-1.07.27-2.22.35-3.2.96-1.82.16-3.55.7-5.28,1.23-.25.03-.5.04-.74.1-2.39.61-4.77,1.25-7.16,1.86-9.04,2.29-17.98,4.94-26.84,7.88-2.38.79-4.79,1.48-7.1,2.47-1.37.31-2.64.92-3.97,1.35-4.94,1.86-9.85,3.77-14.71,5.84-6.8,2.89-13.44,6.09-19.92,9.63-.2.11-.51.14-.43.49,2.26.45,4.52.9,6.77,1.34,5.21,1,10.43,2,15.64,3,3.45.66,6.89,1.34,10.34,2,.75.14,1.47.1,2.2-.24,1.63-.77,3.3-1.45,4.95-2.16,7.35-3.16,14.85-5.97,22.41-8.59,9.89-3.43,19.87-6.61,29.93-9.52,7.48-2.16,14.98-4.22,22.53-6.13,5.39-1.37,10.8-2.68,16.21-3.97,4.07-.97,8.14-1.91,12.23-2.78,5.6-1.2,11.21-2.34,16.83-3.47,3.56-.72,7.14-1.41,10.71-2.08,3.66-.68,7.32-1.33,10.98-1.96,3.66-.63,7.33-1.24,11-1.84,2.97-.49,5.94-.98,8.91-1.43,3.06-.47,6.12-.86,9.18-1.36.86-.14,1.8-.05,2.67-.53-.39-.3-.76-.37-1.12-.49-5.49-1.81-10.98-3.61-16.47-5.42-6.69-2.2-13.37-4.4-20.06-6.6-1.07-.35-1.05-.33-1.67.66-.39.63-.62,1.37-1.27,1.83-2.09-.16-4.03-.94-6.16-1.36.46-2.03.9-3.97,1.35-5.91.15-.62.32-1.22-.12-1.79h0c.47-.07.91.09,1.35.23,1.83.59,3.67,1.17,5.5,1.76,4.54,1.48,9.07,2.96,13.6,4.45,4.18,1.37,8.35,2.75,12.53,4.09,4.5,1.45,8.96,3.02,13.48,4.41,4.24,1.31,8.43,2.75,12.65,4.13.4.13.82.19,1.09.56-1.36.46-2.79.49-4.19.72-5.34.85-10.68,1.65-16.02,2.47-7.66,1.17-15.3,2.51-22.92,3.89-8.45,1.53-16.88,3.18-25.29,4.92-13.71,2.83-27.35,5.95-40.91,9.4-12.35,3.14-24.62,6.54-36.81,10.28-13.35,4.1-26.57,8.55-39.56,13.7-2.38.94-4.74,1.93-7.07,2.97-.74.33-1.43.36-2.18.21-4.44-.86-8.89-1.7-13.33-2.55-7.7-1.47-15.39-2.94-23.08-4.43-.7-.13-1.3-.05-1.9.36-1.38.95-2.79,1.87-4.2,2.78-.59.38-.81.85-.8,1.56.06,4.83,0,9.65.11,14.48.19,8.01.12,16.03.22,24.04.04,3.31.11,6.63.17,9.94Z"/>
  <path class="cls-4" d="m264.51,80.85c-2.36.34-4.71.68-7.06,1.04-2.4.36-4.79.74-7.18,1.1-2.56.39-5.12.77-7.68,1.17-2.72.42-5.45.85-8.17,1.3-3.34.55-6.67,1.13-10,1.71-5.51.96-11.02,1.96-16.53,2.95-9.3,1.67-18.55,3.54-27.81,5.41-5.94,1.2-11.85,2.56-17.77,3.85-12.79,2.79-25.5,5.93-38.18,9.19-6.93,1.78-13.82,3.69-20.71,5.63-7.98,2.24-15.91,4.63-23.83,7.07-4.16,1.28-8.29,2.68-12.43,4.02-5.54,1.8-11.04,3.69-16.53,5.63-8.96,3.18-17.84,6.56-26.64,10.17-5.27,2.16-10.49,4.44-15.66,6.85-.41.19-1.04.22-1.09.89-.38.01-.51-.21-.51-.55,0-2.01.01-4.03-.01-6.04,0-.53.3-.74.7-.92,2.12-1,4.22-2.05,6.37-2.99,3.72-1.63,7.45-3.22,11.21-4.77,3.48-1.43,7.01-2.77,10.51-4.15,6.66-2.62,13.4-5.03,20.16-7.38,6.25-2.16,12.51-4.29,18.84-6.23,3.48-1.07,6.94-2.21,10.42-3.28,5.36-1.65,10.73-3.24,16.13-4.74,5.84-1.62,11.67-3.31,17.52-4.87,5.73-1.53,11.5-2.97,17.25-4.4,4.58-1.14,9.17-2.26,13.77-3.34,7.48-1.76,14.98-3.42,22.5-5.04,6.61-1.42,13.24-2.79,19.87-4.13,4.58-.93,9.18-1.75,13.78-2.61,3.98-.74,7.96-1.49,11.94-2.2,3.7-.65,7.41-1.23,11.11-1.86,3.78-.64,7.56-1.32,11.35-1.93,3.01-.49,6.03-.88,9.04-1.34,3.01-.46,6.02-.95,9.03-1.41,1.9-.29,3.8-.55,5.7-.82.24-.03.51-.08.68.19-.02,2.28-.04,4.55-.06,6.83Z"/>
  <path class="cls-12" d="m264.51,80.85c.02-2.28.04-4.55.06-6.83.64-.02,1.24.19,1.83.38,19.8,6.47,39.59,12.95,59.39,19.42,26.17,8.56,52.34,17.11,78.51,25.66,29.2,9.54,58.39,19.09,87.59,28.63.2.07.39.16.6.2.59.11.82.42.81,1.05-.04,1.85-.01,3.69-.02,5.54,0,.37.07.81-.54.75-.27-.36-.7-.43-1.09-.56-4.21-1.38-8.41-2.82-12.65-4.13-4.52-1.4-8.98-2.96-13.48-4.41-4.18-1.35-8.35-2.73-12.53-4.09-4.53-1.48-9.07-2.97-13.6-4.45-1.83-.6-3.67-1.17-5.5-1.76-.44-.14-.87-.29-1.35-.23-.26-.38-.69-.44-1.08-.57-1.71-.55-3.42-1.1-5.13-1.66-4.58-1.49-9.15-2.99-13.73-4.48-4.18-1.36-8.35-2.73-12.53-4.1-4.54-1.48-9.07-2.97-13.61-4.44-4.22-1.37-8.41-2.83-12.65-4.15-4.52-1.4-8.97-3-13.49-4.41-4.24-1.32-8.43-2.76-12.65-4.13-4.5-1.45-8.97-3-13.48-4.42-5.23-1.64-10.42-3.42-15.64-5.11-.33-.11-.74-.54-1.13-.05-.07-.07-.14-.14-.21-.21-.29-.42-.79-.44-1.21-.58-4.09-1.35-8.19-2.68-12.28-4.02-6.08-2-12.14-4.06-18.24-5.98-4.43-1.4-8.81-2.94-13.24-4.33-2.59-.81-5.18-1.64-7.74-2.55Z"/>
  <path class="cls-1" d="m89.78,411.08c-3-.33-6-.69-9.01-.98-1.57-.15-3.14-.25-4.69-.5-.96-.16-1.04-.25-1.06-1.21-.04-1.64-.04-3.28-.05-4.92.01-1.52.03-3.04.04-4.56,2.14.3,4.28.58,6.42.9,1.34.2,2.7.21,4.01.61.06.28.1.58.19.85.94,2.78,2.11,5.46,3.71,7.93.38.59.59,1.19.44,1.89Z"/>
  <path class="cls-13" d="m236.64,250.85c-1.82.34-3.68.29-5.52.41-7.91.55-15.78,1.43-23.57,2.86-9.59,1.76-18.97,4.22-27.74,8.62-7.04,3.53-13.49,7.97-19.66,12.84-10.46,8.27-20,17.51-28.83,27.49-.45.51-.95.91-1.56,1.22-10.91,5.46-21.61,11.31-32.11,17.52-.39.23-.76.53-1.23.62-.14-8.18-.06-16.36-.23-24.55-.19-9.23-.07-18.46-.25-27.69-.19-9.19-.07-18.38-.25-27.57-.19-9.61-.07-19.22-.26-28.82-.18-8.81-.04-17.62-.24-26.43-.11-4.87-.05-9.74-.12-14.6-.01-.85.26-1.28,1.02-1.61,2.54-1.09,5.06-2.24,7.58-3.38.73-.33,1.43-.33,2.2-.18,6.79,1.32,13.58,2.61,20.37,3.91,9.47,1.8,18.94,3.59,28.4,5.39,8.19,1.56,16.38,3.13,24.57,4.7,7.78,1.49,15.55,2.97,23.33,4.45,5.02.96,10.04,1.9,15.07,2.86,5.84,1.11,11.69,2.21,17.53,3.33.99.19.99.21,1.01,1.22.07,5.16.13,10.32.19,15.48.1,8.68.02,17.37.22,26.06.12,5.29.07,10.57.1,15.86Z"/>
  <path class="cls-1" d="m236.64,250.85c-.03-5.29.02-10.58-.1-15.86-.2-8.68-.12-17.37-.22-26.06-.06-5.16-.12-10.32-.19-15.48-.01-1.01-.02-1.03-1.01-1.22-5.84-1.12-11.69-2.22-17.53-3.33-5.02-.95-10.04-1.9-15.07-2.86-7.78-1.48-15.56-2.97-23.33-4.45-8.19-1.56-16.38-3.14-24.57-4.7-9.47-1.8-18.94-3.59-28.4-5.39-6.79-1.29-13.58-2.59-20.37-3.91-.77-.15-1.48-.15-2.2.18-2.52,1.15-5.04,2.29-7.58,3.38-.76.33-1.04.75-1.02,1.61.07,4.87,0,9.74.12,14.6.21,8.81.07,17.62.24,26.43.19,9.61.08,19.22.26,28.82.18,9.19.06,18.38.25,27.57.19,9.23.06,18.46.25,27.69.17,8.18.09,16.36.23,24.55-1.47,1.18-3.18,2-4.76,3.02-.52.34-1.08.63-1.63.94-.06-1.21-.17-2.42-.19-3.64-.14-9.48.03-18.96-.23-28.44-.26-9.43,0-18.87-.25-28.31-.26-9.48,0-18.96-.25-28.44-.26-9.48,0-18.96-.25-28.44-.26-9.48.08-18.96-.26-28.44-.14-3.81-.02-7.64-.07-11.46-.01-.78.22-1.18.95-1.5,4.57-2.01,9.24-3.76,13.92-5.47,9.33-3.4,18.75-6.55,28.22-9.54,10.27-3.24,20.58-6.32,30.92-9.29,9.98-2.87,19.99-5.63,30.02-8.3,10.07-2.68,20.17-5.27,30.28-7.78,10.44-2.59,20.91-5.03,31.4-7.4,4.77-1.08,9.56-2.09,14.36-3.08,5.74-1.18,11.48-2.32,17.23-3.44,2.96-.58,5.92-1.09,8.89-1.61,3.75-.65,7.5-1.3,11.25-1.91,2.43-.4,4.87-.79,7.32-1.07,2.52-.29,4.85.68,7.2,1.39-.14.26-.38.27-.64.32-4.18.8-8.36,1.58-12.54,2.41-5.61,1.11-11.21,2.25-16.81,3.41-2.7.56-5.38,1.18-8.07,1.77-1.58.33-3.16.67-4.74,1-.28.06-.57.13-.85.18-8.88,1.87-17.71,3.92-26.55,5.94-6.28,1.44-12.54,2.95-18.8,4.43-1.66.39-3.31.81-4.97,1.22-1.42.31-2.84.61-4.23,1.06-.57.11-1.15.19-1.72.33-17.38,4.3-34.75,8.62-51.96,13.54-.36.1-.88.03-1.02.57-.14,0-.29.01-.43.02-.3-.2-.58-.19-.83.08-1.43.39-2.88.71-4.25,1.3-.3-.05-.57.06-.86.15-5.77,1.76-11.55,3.45-17.3,5.28-10.22,3.26-20.37,6.7-30.39,10.53-.98.38-2.02.68-3.04,1.33,1.52.39,2.92.61,4.32.87,4.44.82,8.87,1.69,13.3,2.54,6.53,1.25,13.05,2.51,19.58,3.76,6.57,1.26,13.14,2.5,19.7,3.8,4.76.94,9.51,1.86,14.28,2.75,6.57,1.23,13.13,2.52,19.7,3.78,6.52,1.25,13.05,2.51,19.57,3.77,5.66,1.09,11.33,2.18,16.98,3.3.48.1.88.09,1.32-.12,5.2-2.44,10.44-4.78,15.72-7.02,6.02-2.54,12.09-4.95,18.19-7.3,1.01-.39,2.09-.6,2.99-1.25,1.57-.32,3.02-.98,4.49-1.56,7.26-2.52,14.51-5.07,21.84-7.38,6.29-1.98,12.61-3.87,18.96-5.67.2-.06.41-.09.53-.28,1.77-.32,3.52-.67,5.15-1.47.42.05.82-.04,1.23-.15,1.41-.39,2.82-.76,4.24-1.12,10.51-2.69,21.05-5.24,31.64-7.6,1.54-.34,3.13-.49,4.59-1.15,1.82-.13,3.57-.57,5.32-1.05,1.6-.31,3.2-.61,4.8-.93,4.75-.95,9.5-1.95,14.26-2.83,4.97-.92,9.94-1.82,14.93-2.64,4.57-.75,9.14-1.52,13.73-2.22.82-.12,1.72-.03,2.62-.59-.51-.18-.86-.3-1.21-.42-5.65-1.86-11.3-3.71-16.95-5.56-5.85-1.92-11.69-3.85-17.54-5.77-5.69-1.87-11.38-3.74-17.07-5.6-6.05-1.99-12.09-3.98-18.14-5.97-6.05-1.99-12.09-3.98-18.14-5.97-2.9-.96-5.81-1.91-8.71-2.87-.4-.13-.83-.39-1.12.11-.8,1.42-1.92,2.65-2.41,4.24-.48-.27-1-.39-1.53-.52-1.66-.4-3.31-.8-4.97-1.22-1.14-.29-1.18-.37-.91-1.54.5-2.11.99-4.21,1.5-6.31.12-.49.19-.98.1-1.48.4-.49.8-.05,1.14.05,5.22,1.69,10.4,3.47,15.64,5.11,4.51,1.42,8.98,2.96,13.48,4.42,4.22,1.36,8.42,2.81,12.65,4.13,4.52,1.41,8.97,3.01,13.49,4.41,4.24,1.31,8.43,2.78,12.65,4.15,4.54,1.47,9.07,2.96,13.61,4.44,4.18,1.36,8.35,2.73,12.53,4.1,4.58,1.49,9.15,2.99,13.73,4.48,1.71.56,3.42,1.11,5.13,1.66.4.13.82.18,1.08.57,0,0,0,0,0,0-.55,0-.66.39-.76.83-.41,1.84-.85,3.67-1.26,5.5-.24,1.09-.22,1.13-1.31,1.29-2.52.37-5.07.52-7.59.91-3.63.57-7.29.98-10.92,1.61-5.68.98-11.36,2.02-17.02,3.14-10.3,2.05-20.54,4.32-30.75,6.79-8.99,2.17-17.95,4.44-26.89,6.81-10.2,2.71-20.32,5.67-30.36,8.92-6.38,2.06-12.69,4.32-18.95,6.71-10.47,3.99-20.74,8.42-30.56,13.82-2.46,1.35-4.87,2.8-7.19,4.38-.81.55-1.04,1.16-1.03,2.09.07,3.52.18,7.04.18,10.56.01,13.59.3,27.18.33,40.77,0,.13,0,.25.01.38-3.95.02-7.89.4-11.85.33Z"/>
  <path class="cls-3" d="m320.5,110.25c-2.35-.71-4.68-1.68-7.2-1.39-2.45.28-4.89.67-7.32,1.07-3.76.61-7.51,1.25-11.25,1.91-2.97.52-5.93,1.03-8.89,1.61-5.75,1.12-11.49,2.26-17.23,3.44-4.79.99-9.58,2-14.36,3.08-10.49,2.37-20.96,4.81-31.4,7.4-10.12,2.51-20.21,5.1-30.28,7.78-10.03,2.67-20.04,5.43-30.02,8.3-10.34,2.97-20.66,6.06-30.92,9.29-9.47,2.99-18.89,6.13-28.22,9.54-4.68,1.71-9.35,3.46-13.92,5.47-.73.32-.96.71-.95,1.5.05,3.82-.06,7.64.07,11.46.34,9.48,0,18.96.26,28.44.26,9.48,0,18.96.25,28.44.26,9.48,0,18.96.25,28.44.26,9.44,0,18.88.25,28.31.26,9.48.09,18.96.23,28.44.02,1.21.12,2.42.19,3.64-.34.37-.76.63-1.23.81-.34-.45-.21-.97-.21-1.46-.03-7.89.08-15.78-.11-23.67-.24-9.77,0-19.55-.25-29.32-.24-9.1,0-18.21-.24-27.31-.26-9.77,0-19.55-.26-29.32-.25-9.36.01-18.71-.25-28.06-.18-6.38-.1-12.75-.18-19.12-.02-1.7-.33-1.48,1.5-2.3,3.17-1.43,6.42-2.68,9.67-3.91,8.71-3.28,17.5-6.33,26.35-9.19,8.65-2.79,17.34-5.46,26.05-8.05,9.11-2.71,18.25-5.31,27.41-7.83,7.59-2.09,15.19-4.13,22.8-6.11,8.14-2.12,16.3-4.17,24.46-6.2,9.06-2.25,18.14-4.36,27.25-6.4,9.1-2.03,18.22-3.99,27.38-5.76,6.24-1.2,12.49-2.38,18.76-3.41,4.87-.8,9.74-1.6,14.63-2.22.59-.07.76-.4.88-.89.5-2.16,1.01-4.32,1.51-6.48.1-.41.19-.82.27-1.23.11-.56.44-.79,1-.67.07.07.14.14.21.21.1.5.02.99-.1,1.48-.51,2.1-1,4.21-1.5,6.31-.28,1.17-.23,1.26.91,1.54,1.65.42,3.31.82,4.97,1.22.53.13,1.05.25,1.53.52.1.9-.04,1.1-.8.96-.64-.12-1.27-.28-1.93-.31Z"/>
  <path class="cls-3" d="m248.49,250.52c0-.13-.01-.25-.01-.38-.03-13.59-.32-27.18-.33-40.77,0-3.52-.11-7.04-.18-10.56-.02-.93.21-1.53,1.03-2.09,2.33-1.58,4.73-3.02,7.19-4.38,9.83-5.4,20.09-9.83,30.56-13.82,6.26-2.39,12.57-4.65,18.95-6.71,10.04-3.25,20.16-6.21,30.36-8.92,8.94-2.37,17.9-4.64,26.89-6.81,10.2-2.46,20.45-4.74,30.75-6.79,5.66-1.13,11.33-2.16,17.02-3.14,3.62-.63,7.28-1.04,10.92-1.61,2.52-.39,5.07-.54,7.59-.91,1.09-.16,1.07-.2,1.31-1.29.41-1.84.85-3.67,1.26-5.5.1-.44.21-.82.76-.83.43.57.26,1.17.12,1.79-.46,1.94-.89,3.88-1.35,5.91,2.13.42,4.07,1.21,6.16,1.36.37,1.05.25,1.22-.75,1.05-.21-.04-.41-.08-.62-.12-.25-.25-.53-.23-.83-.08-.14.01-.28.02-.42.03-.06-.23-.22-.32-.45-.38-1.18-.28-2.35-.66-3.54-.84-1.15-.17-2.33.06-3.48.17-1.75.17-3.49.41-5.23.65-2.69.37-5.39.73-8.07,1.16-3.72.59-7.43,1.21-11.13,1.88-4.03.73-8.06,1.51-12.07,2.33-8.65,1.76-17.27,3.67-25.85,5.73-13.8,3.31-27.55,6.79-41.2,10.72-8.7,2.5-17.34,5.19-25.88,8.17-8.55,2.98-17,6.22-25.28,9.87-6.45,2.84-12.78,5.92-18.87,9.49-1.45.85-2.82,1.81-4.24,2.7-.41.26-.58.53-.46,1.03.1.44.06.92.06,1.38.03,7.85-.08,15.7.11,23.54.22,8.98.1,17.95.23,26.93-.34.08-.68.08-1.02,0Z"/>
  <path class="cls-6" d="m132.11,141.3c-1.13.57-2.37.78-3.56,1.14-7.49,2.26-15,4.47-22.49,6.75-8.66,2.63-17.29,5.33-25.87,8.2-1.07.36-2.17.64-3.23,1.04-.77.29-1.5.07-2.22-.06-4.03-.76-8.04-1.59-12.06-2.37-5.83-1.13-11.66-2.23-17.49-3.35-5.5-1.06-11-2.13-16.5-3.19-1.93-.37-3.86-.74-5.79-1.08-.41-.07-.79-.17-1.31-.43,1.19-.58,2.26-1.14,3.36-1.63,7.53-3.39,15.15-6.55,22.85-9.52,11.54-4.44,23.2-8.51,34.97-12.3,8.13-2.62,16.3-5.09,24.51-7.46,10.14-2.92,20.31-5.67,30.54-8.26,5.92-1.51,11.85-2.96,17.8-4.36,9-2.11,18.01-4.15,27.07-5.97,5.98-1.2,11.95-2.49,17.94-3.65,6.4-1.24,12.82-2.41,19.23-3.55,5.92-1.05,11.86-2.04,17.8-3.01,4-.65,8.01-1.23,12.02-1.84,3.72-.57,7.45-1.04,11.14-1.74,2.06-.39,3.87.17,5.73.78,5.13,1.7,10.26,3.41,15.39,5.1,6.05,1.99,12.1,3.98,18.15,5.96,3.02.99,6.05,1.98,9.08,2.97.27.09.58.12.86.5-18.3,3.1-36.46,6.5-54.54,10.32-.08-.65-.67-.56-1.06-.68-4.03-1.26-8.07-2.48-12.1-3.73-4.04-1.25-8.06-2.52-12.1-3.76-6.15-1.89-12.31-3.77-18.47-5.65-1.76-.54-3.51-1.09-5.28-1.58-.68-.19-1.22.18-1.46.85-.19.54,0,1.01.59,1.35.25.15.52.27.8.36,6.83,2.09,13.67,4.17,20.51,6.27,6.39,1.97,12.78,3.97,19.18,5.92,1.72.52,3.4,1.18,5.17,1.5-2.61.57-5.21,1.13-7.81,1.71-8.73,1.94-17.45,3.88-26.15,5.95-6.26,1.49-12.51,3.03-18.75,4.57-.13-.24-.32-.36-.58-.43-2.26-.59-4.53-1.18-6.79-1.79-4.84-1.3-9.68-2.6-14.52-3.91-5.73-1.55-11.45-3.1-17.18-4.65-4.15-1.12-8.31-2.26-12.47-3.36-1.01-.27-1.99-.64-3.05-.68-.62-.02-1.06.24-1.23.85-.17.61.1,1.13.76,1.4.46.19.95.34,1.43.47,9,2.42,18,4.83,27,7.24,6.5,1.74,13,3.48,19.49,5.25.65.18,1.42.17,1.92.76-.27.22-.59.31-.91.39-8.09,2.12-16.19,4.18-24.26,6.37-8.84,2.39-17.64,4.9-26.46,7.36-1.61.45-3.21.91-4.82,1.37-.15-.37-.47-.42-.81-.49-1.35-.28-2.69-.59-4.03-.9-4.44-1.02-8.87-2.06-13.31-3.07-7.7-1.74-15.4-3.46-23.1-5.2-4.85-1.1-9.69-2.22-14.54-3.32-.36-.08-.75-.09-1.12-.08-.47.02-.79.31-.93.73-.15.46-.09.92.31,1.27.36.31.79.43,1.25.53,4.77,1.07,9.53,2.18,14.3,3.25,6.8,1.54,13.61,3.06,20.42,4.6,4.44,1,8.89,1.98,13.32,3.03,1.16.28,2.37.43,3.48.93Z"/>
  <path class="cls-11" d="m132.11,141.3c-1.11-.5-2.32-.65-3.48-.93-4.43-1.05-8.88-2.03-13.32-3.03-6.8-1.53-13.61-3.06-20.42-4.6-4.77-1.08-9.53-2.18-14.3-3.25-.46-.1-.89-.22-1.25-.53-.4-.35-.46-.81-.31-1.27.14-.42.46-.72.93-.73.37-.01.76,0,1.12.08,4.85,1.1,9.69,2.23,14.54,3.32,7.7,1.74,15.4,3.46,23.1,5.2,4.44,1.01,8.87,2.05,13.31,3.07,1.34.31,2.69.61,4.03.9.34.07.66.13.81.49-1.59.44-3.14,1.01-4.77,1.28Z"/>
  <path class="cls-11" d="m193.33,124.53c-.51-.59-1.27-.58-1.92-.76-6.49-1.78-12.99-3.51-19.49-5.25-9-2.41-18-4.82-27-7.24-.48-.13-.97-.28-1.43-.47-.65-.27-.93-.79-.76-1.4.17-.61.6-.87,1.23-.85,1.06.03,2.05.41,3.05.68,4.16,1.11,8.31,2.24,12.47,3.36,5.73,1.55,11.45,3.1,17.18,4.65,4.84,1.31,9.68,2.61,14.52,3.91,2.26.61,4.52,1.2,6.79,1.79.26.07.46.19.58.43-1.74.37-3.43,1.02-5.22,1.17Z"/>
  <path class="cls-11" d="m251.27,111.14c-1.78-.32-3.46-.98-5.17-1.5-6.4-1.95-12.78-3.96-19.18-5.92-6.83-2.1-13.67-4.18-20.51-6.27-.28-.09-.55-.21-.8-.36-.59-.35-.78-.81-.59-1.35.24-.67.77-1.04,1.46-.85,1.77.49,3.53,1.05,5.28,1.58,6.16,1.88,12.31,3.76,18.47,5.65,4.04,1.24,8.06,2.51,12.1,3.76,4.03,1.25,8.08,2.47,12.1,3.73.39.12.98.03,1.06.68-1.41.28-2.82.56-4.23.85Z"/>
  <path class="cls-6" d="m436.11,146.02c.21.04.41.08.62.12,1,.18,1.12,0,.75-1.05.65-.45.88-1.2,1.27-1.83.62-.99.61-1.01,1.67-.66,6.69,2.2,13.37,4.4,20.06,6.6,5.49,1.81,10.98,3.61,16.47,5.42.35.12.73.19,1.12.49-.87.48-1.81.39-2.67.53-3.05.5-6.12.9-9.18,1.36-2.97.46-5.94.94-8.91,1.43-3.67.6-7.34,1.21-11,1.84-3.66.63-7.33,1.28-10.98,1.96-3.58.67-7.15,1.36-10.71,2.08-5.61,1.14-11.23,2.28-16.83,3.47-4.09.87-8.17,1.81-12.23,2.78-5.41,1.29-10.82,2.6-16.21,3.97-7.54,1.91-15.05,3.97-22.53,6.13-10.06,2.91-20.03,6.09-29.93,9.52-7.56,2.62-15.05,5.42-22.41,8.59-1.65.71-3.32,1.39-4.95,2.16-.73.35-1.45.39-2.2.24-3.45-.66-6.89-1.34-10.34-2-5.21-1-10.43-1.99-15.64-3-2.26-.43-4.51-.89-6.77-1.34-.08-.34.23-.38.43-.49,6.48-3.54,13.12-6.74,19.92-9.63,4.86-2.07,9.77-3.98,14.71-5.84,0,.32.22.39.49.45,2.2.49,4.4,1.01,6.6,1.51,6.27,1.43,12.54,2.85,18.82,4.27,2.4.54,4.81,1.09,7.21,1.61.97.21,1.59-.28,1.59-1.2,0-.64-.27-.98-1.07-1.17-2.76-.65-5.53-1.28-8.3-1.91-3.54-.8-7.09-1.58-10.63-2.4-3.58-.82-7.16-1.67-10.74-2.51,2.31-1,4.72-1.69,7.1-2.47,8.85-2.94,17.8-5.58,26.84-7.88,2.39-.61,4.77-1.24,7.16-1.86.24-.06.49-.07.74-.1,2.31.86,4.73,1.34,7.1,2,3.82,1.07,7.66,2.09,11.5,3.13,4.44,1.2,8.88,2.41,13.32,3.6.36.1.75.09,1.12.06.46-.03.78-.33.9-.77.12-.42.08-.83-.26-1.17-.28-.28-.62-.43-.98-.53-1.85-.51-3.71-1.02-5.57-1.51-6.99-1.87-13.98-3.73-20.96-5.59-.32-.09-.65-.16-.88-.45.98-.61,2.12-.69,3.2-.96,4.09-1.02,8.2-1.98,12.31-2.94,8.38-1.96,16.76-3.89,25.18-5.69.12-.03.25,0,.38,0,2.5.95,5.08,1.63,7.62,2.42,6.39,1.98,12.78,3.96,19.17,5.94,1.12.35,2.23.71,3.35,1.03.79.23,1.43-.11,1.7-.84.22-.61-.05-1.1-.8-1.47-.19-.09-.38-.18-.58-.24-7.91-2.42-15.83-4.84-23.73-7.27-.51-.16-1.08-.19-1.46-.63,1.65-.62,3.39-.84,5.1-1.2,3.56-.75,7.12-1.44,10.69-2.13,4.47-.86,8.94-1.72,13.43-2.47,2.55-.43,5.09-.94,7.66-1.27.32-.04.63-.21.95-.32.14-.01.28-.02.42-.03.26.15.54.15.83.08Z"/>
  <path class="cls-11" d="m303.59,177.54c3.58.84,7.16,1.69,10.74,2.51,3.54.81,7.09,1.59,10.63,2.4,2.77.63,5.54,1.26,8.3,1.91.8.19,1.07.53,1.07,1.17,0,.92-.62,1.41-1.59,1.2-2.41-.52-4.81-1.06-7.21-1.61-6.27-1.42-12.55-2.85-18.82-4.27-2.2-.5-4.4-1.01-6.6-1.51-.27-.06-.48-.13-.49-.45,1.33-.42,2.6-1.04,3.97-1.35Z"/>
  <path class="cls-11" d="m350.71,164c.22.28.55.36.88.45,6.99,1.87,13.98,3.73,20.96,5.59,1.86.5,3.71,1,5.57,1.51.37.1.7.26.98.53.34.34.38.75.26,1.17-.12.43-.43.73-.9.77-.37.03-.77.03-1.12-.06-4.44-1.19-8.88-2.39-13.32-3.6-3.83-1.04-7.68-2.05-11.5-3.13-2.37-.66-4.79-1.14-7.1-2,1.73-.53,3.46-1.07,5.28-1.23Z"/>
  <path class="cls-11" d="m397.03,153.35c.39.44.96.48,1.46.63,7.91,2.43,15.82,4.84,23.73,7.27.2.06.39.15.58.24.76.37,1.02.86.8,1.47-.26.74-.91,1.07-1.7.84-1.12-.33-2.24-.69-3.35-1.03-6.39-1.98-12.78-3.95-19.17-5.94-2.55-.79-5.13-1.47-7.62-2.42,1.73-.49,3.46-.91,5.26-1.06Z"/>
  <path class="cls-6" d="m276.17,174.06c-.9.65-1.99.86-2.99,1.25-6.1,2.35-12.17,4.75-18.19,7.3-5.29,2.23-10.53,4.58-15.72,7.02-.44.21-.84.21-1.32.12-5.66-1.12-11.32-2.21-16.98-3.3-6.52-1.26-13.05-2.51-19.57-3.77-6.57-1.26-13.13-2.55-19.7-3.78-4.77-.89-9.52-1.81-14.28-2.75-6.56-1.3-13.13-2.53-19.7-3.8-6.53-1.25-13.05-2.51-19.58-3.76-4.43-.85-8.86-1.72-13.3-2.54-1.4-.26-2.79-.48-4.32-.87,1.02-.65,2.06-.95,3.04-1.33,10.02-3.84,20.18-7.27,30.39-10.53,5.74-1.83,11.53-3.52,17.3-5.28.28-.09.55-.2.86-.15.44.36,1.01.37,1.52.48,6.27,1.44,12.54,2.86,18.82,4.28,6.85,1.55,13.69,3.08,20.54,4.62,3.67.83,7.34,1.65,11,2.5,1.35.31,2.7.67,4.35,1.08-2.19.78-4.07,1.44-5.95,2.13-3.18,1.17-6.37,2.33-9.53,3.56-6.17,2.39-12.28,4.92-18.3,7.66-1.11.5-2.2,1.05-3.27,1.62-.78.41-1.06,1.25-.7,1.89.3.54,1.02.68,1.76.33,1.37-.64,2.73-1.29,4.09-1.93,3.45-1.63,6.96-3.1,10.49-4.54,3.61-1.47,7.24-2.86,10.88-4.25,4.73-1.81,9.51-3.49,14.3-5.15.58-.2,1.15-.26,1.73-.13,2.36.53,4.73,1.07,7.09,1.61,4.44,1.02,8.87,2.06,13.31,3.07,6.6,1.49,13.21,2.96,19.81,4.44,2.85.64,5.72,1.24,8.55,1.96,1.2.3,2.48.32,3.59.97Z"/>
  <path class="cls-6" d="m320.5,110.25c.66.02,1.29.19,1.93.31.76.14.9-.06.8-.96.49-1.59,1.61-2.83,2.41-4.24.28-.5.72-.24,1.12-.11,2.9.96,5.81,1.91,8.71,2.87,6.05,1.99,12.09,3.98,18.14,5.97,6.05,1.99,12.09,3.98,18.14,5.97,5.69,1.87,11.38,3.74,17.07,5.6,5.85,1.92,11.69,3.85,17.54,5.77,5.65,1.86,11.3,3.71,16.95,5.56.35.12.7.24,1.21.42-.91.56-1.81.46-2.62.59-4.58.7-9.15,1.47-13.73,2.22-4.99.82-9.96,1.72-14.93,2.64-4.77.88-9.51,1.89-14.26,2.83-1.6.32-3.2.62-4.8.93-.49-.44-1.14-.51-1.73-.69-4.03-1.26-8.08-2.47-12.12-3.71-3.6-1.11-7.19-2.24-10.79-3.35-5.76-1.77-11.52-3.52-17.28-5.28-.21-.06-.53-.03-.53-.39.03-.04.05-.09.08-.09,6.59-1.29,13.18-2.6,19.78-3.87,3.44-.66,6.9-1.25,10.35-1.86,3.2-.57,6.41-1.12,9.62-1.68,1.36-.24,2.72-.46,4.06-.77.8-.19,1.12-.77.96-1.37-.19-.73-.85-1.12-1.64-.99-.86.14-1.73.28-2.59.44-4.07.73-8.13,1.46-12.19,2.19-4.85.87-9.7,1.7-14.54,2.63-6.27,1.2-12.53,2.48-18.79,3.76-.53.11-.98.07-1.46-.08-1.75-.56-3.51-1.13-5.27-1.67-6.28-1.93-12.56-3.86-18.84-5.78-2.92-.89-5.85-1.76-8.77-2.67-3.35-1.04-6.69-2.12-10.03-3.18,2.69-.59,5.37-1.22,8.07-1.77,5.6-1.16,11.2-2.29,16.81-3.41,4.17-.83,8.36-1.62,12.54-2.41.25-.05.5-.06.64-.32Z"/>
  <path class="cls-6" d="m167.61,146.47c.14-.55.66-.47,1.02-.57,17.21-4.92,34.59-9.24,51.96-13.54.57-.14,1.14-.22,1.72-.33,2.87,1.03,5.86,1.65,8.79,2.47,4.83,1.35,9.69,2.6,14.54,3.91,5.69,1.54,11.38,3.1,17.06,4.65,2.32.63,4.64,1.23,7.14,1.89-.33.18-.47.28-.62.32-5.42,1.44-10.8,2.98-16.18,4.54-6.11,1.77-12.19,3.63-18.25,5.54-3.59,1.14-7.16,2.37-10.73,3.56-.6.2-1.18.39-1.84.24-6.39-1.47-12.78-2.94-19.18-4.39-4.32-.98-8.64-1.93-12.96-2.91-7.33-1.66-14.66-3.34-21.99-5.01-.22-.05-.39-.14-.46-.36Z"/>
  <path class="cls-11" d="m167.61,146.47c.08.22.25.31.46.36,7.33,1.67,14.66,3.34,21.99,5.01,4.32.98,8.64,1.93,12.96,2.91,6.39,1.45,12.79,2.92,19.18,4.39.66.15,1.24-.04,1.84-.24,3.58-1.19,7.14-2.42,10.73-3.56,6.06-1.92,12.14-3.77,18.25-5.54,5.38-1.56,10.77-3.1,16.18-4.54.15-.04.29-.15.62-.32-2.5-.66-4.82-1.26-7.14-1.89-5.69-1.54-11.37-3.11-17.06-4.65-4.84-1.31-9.7-2.55-14.54-3.91-2.93-.82-5.92-1.44-8.79-2.47,1.38-.45,2.81-.75,4.23-1.06.85-.05,1.66.16,2.47.38,8.43,2.28,16.86,4.56,25.3,6.84,6.5,1.75,13,3.49,19.49,5.24.75.2,1.47.21,2.22,0,2.02-.55,4.04-1.09,6.07-1.58,6.45-1.58,12.9-3.15,19.37-4.66,5.94-1.38,11.89-2.71,17.84-4.02.43-.1,1,0,1.35-.41-.16-.27-.38-.28-.57-.34-2.24-.7-4.47-1.4-6.71-2.08-7-2.14-14-4.28-21-6.42-4.44-1.36-8.88-2.73-13.31-4.11-.47-.15-1-.18-1.34-.62,1.58-.33,3.16-.67,4.74-1,3.34,1.06,6.68,2.14,10.03,3.18,2.92.91,5.84,1.77,8.77,2.67,6.28,1.92,12.56,3.85,18.84,5.78,1.76.54,3.51,1.11,5.27,1.67.48.15.92.19,1.46.08,6.26-1.29,12.51-2.56,18.79-3.76,4.84-.93,9.69-1.76,14.54-2.63,4.06-.73,8.13-1.46,12.19-2.19.86-.15,1.73-.29,2.59-.44.79-.13,1.45.26,1.64.99.16.61-.16,1.18-.96,1.37-1.34.32-2.7.53-4.06.77-3.2.57-6.41,1.12-9.62,1.68-3.45.61-6.91,1.2-10.35,1.86-6.6,1.27-13.19,2.57-19.78,3.87-.03,0-.05.06-.08.09,0,.36.32.33.53.39,5.76,1.77,11.52,3.52,17.28,5.28,3.6,1.1,7.19,2.24,10.79,3.35,4.04,1.24,8.09,2.46,12.12,3.71.59.18,1.24.25,1.73.69-1.75.48-3.51.92-5.32,1.05-.23-.44-.7-.42-1.08-.55-1.51-.5-3.03-.97-4.55-1.43-7.28-2.23-14.56-4.46-21.84-6.69-4.16-1.27-8.36-2.44-12.46-3.88-2.04-.72-3.9-.63-5.95-.19-8.21,1.74-16.4,3.59-24.57,5.49-4.72,1.1-9.42,2.27-14.12,3.46-1.31.33-2.66.54-4.03,1.12.51.42,1.01.47,1.48.59,3.92,1.05,7.84,2.08,11.75,3.13,5.69,1.54,11.37,3.1,17.06,4.65,4.28,1.16,8.55,2.34,12.84,3.44,1.25.32,2.45.86,3.77.88-1.63.81-3.38,1.16-5.15,1.47-.18-.28-.51-.28-.78-.36-4.19-1.14-8.39-2.27-12.59-3.4-4.84-1.3-9.69-2.59-14.53-3.89-6.17-1.66-12.35-3.32-18.52-5-.61-.17-1.14-.16-1.71.05-.35.13-.73.2-1.09.3-4.39,1.2-8.79,2.39-13.18,3.62-4.39,1.23-8.75,2.55-13.12,3.85-5.98,1.78-11.92,3.66-17.83,5.62-.23.08-.49.12-.66.42.32.1.62.23.94.3,2.2.5,4.4.98,6.6,1.48,3.34.76,6.67,1.54,10.01,2.3,6.64,1.5,13.28,2.99,19.91,4.49,3.54.8,7.1,1.54,10.63,2.4,1.53.37,3.11.56,4.58,1.17-1.48.58-2.93,1.24-4.49,1.56-1.11-.65-2.39-.67-3.59-.97-2.83-.72-5.7-1.32-8.55-1.96-6.6-1.48-13.21-2.95-19.81-4.44-4.44-1-8.87-2.05-13.31-3.07-2.36-.54-4.72-1.09-7.09-1.61-.58-.13-1.15-.07-1.73.13-4.79,1.66-9.56,3.34-14.3,5.15-3.64,1.39-7.27,2.78-10.88,4.25-3.53,1.44-7.05,2.91-10.49,4.54-1.36.64-2.73,1.29-4.09,1.93-.75.35-1.46.21-1.76-.33-.36-.64-.08-1.48.7-1.89,1.07-.57,2.16-1.12,3.27-1.62,6.02-2.74,12.14-5.27,18.3-7.66,3.16-1.22,6.35-2.39,9.53-3.56,1.88-.69,3.77-1.35,5.95-2.13-1.65-.41-2.99-.76-4.35-1.08-3.66-.84-7.33-1.67-11-2.5-6.85-1.54-13.69-3.07-20.54-4.62-6.27-1.42-12.55-2.84-18.82-4.28-.52-.12-1.08-.12-1.52-.48,1.37-.59,2.82-.91,4.25-1.3.28.04.56.04.83-.08.14,0,.29-.01.43-.02Z"/>
  <path class="cls-6" d="m280.66,172.5c-1.47-.62-3.05-.8-4.58-1.17-3.53-.86-7.08-1.6-10.63-2.4-6.64-1.49-13.28-2.99-19.91-4.49-3.34-.76-6.67-1.54-10.01-2.3-2.2-.5-4.4-.98-6.6-1.48-.31-.07-.61-.19-.94-.3.17-.3.43-.35.66-.42,5.92-1.95,11.86-3.84,17.83-5.62,4.37-1.3,8.73-2.62,13.12-3.85,4.39-1.23,8.79-2.41,13.18-3.62.36-.1.74-.17,1.09-.3.57-.21,1.1-.22,1.71-.05,6.17,1.69,12.34,3.34,18.52,5,4.84,1.3,9.69,2.59,14.53,3.89,4.2,1.13,8.39,2.26,12.59,3.4.27.07.6.08.78.36-.12.2-.33.23-.53.28-6.35,1.8-12.67,3.69-18.96,5.67-7.33,2.31-14.58,4.86-21.84,7.38Z"/>
  <path class="cls-6" d="m277.71,119.17c.34.44.87.48,1.34.62,4.43,1.38,8.87,2.75,13.31,4.11,7,2.14,14,4.28,21,6.42,2.24.69,4.48,1.38,6.71,2.08.19.06.41.08.57.34-.35.42-.92.32-1.35.41-5.95,1.31-11.9,2.63-17.84,4.02-6.47,1.51-12.92,3.08-19.37,4.66-2.03.5-4.05,1.03-6.07,1.58-.75.2-1.47.2-2.22,0-6.5-1.76-13-3.49-19.49-5.24-8.43-2.27-16.86-4.56-25.3-6.84-.81-.22-1.62-.43-2.47-.38,1.66-.41,3.31-.83,4.97-1.22,6.26-1.49,12.52-3,18.8-4.43,8.84-2.02,17.68-4.07,26.55-5.94.28-.06.57-.12.85-.18Z"/>
  <path class="cls-6" d="m327.14,157.69c-1.32-.02-2.53-.56-3.77-.88-4.29-1.1-8.56-2.28-12.84-3.44-5.69-1.54-11.37-3.11-17.06-4.65-3.91-1.06-7.83-2.09-11.75-3.13-.47-.13-.97-.18-1.48-.59,1.37-.58,2.72-.79,4.03-1.12,4.7-1.18,9.4-2.36,14.12-3.46,8.17-1.9,16.36-3.75,24.57-5.49,2.06-.44,3.91-.53,5.95.19,4.1,1.44,8.3,2.61,12.46,3.88,7.28,2.23,14.56,4.46,21.84,6.69,1.52.47,3.04.93,4.55,1.43.38.12.85.1,1.08.55-1.46.66-3.05.81-4.59,1.15-10.59,2.36-21.13,4.92-31.64,7.6-1.42.36-2.83.73-4.24,1.12-.41.11-.81.2-1.23.15Z"/>
  <path class="cls-6" d="m167.18,146.49c-.27.12-.55.12-.83.08.25-.27.53-.28.83-.08Z"/>
  <path class="cls-1" d="m436.11,146.02c-.29.07-.56.07-.83-.08.29-.15.57-.17.83.08Z"/>
  <path class="cls-14" d="m66.89,397.7c-2.36-.48-4.71-.95-7.07-1.44-1.32-.27-2.61-.64-3.89-1.1-.99-.36-1.58-1-1.9-2-.62-1.94-.9-3.94-1.12-5.95-.91-8.01-.98-16.06-.93-24.11.03-4.48.25-8.96.55-13.43.46-6.88,3.1-12.86,7.17-18.3.66-.89,1.33-1.78,2.16-2.52,1.35.75,2.68,1.52,4.04,2.24,2.29,1.22,4.59,2.44,6.9,3.61,1.28.65,2.62.93,4.04.42,1.5-.55,2.45-1.65,3.07-3.07.84-1.9.99-3.91.91-5.94-.1-2.5-.22-5-.42-7.49-.33-4.17-.61-8.35-1.15-12.5,1.03-1.03,2.39-1.59,3.5-2.5.54-.2,1.02-.5,1.41-.93.62-.36,1.27-.69,1.87-1.08,1.81-1.18,3.78-2.12,5.47-3.48.54-.11.96-.45,1.41-.71,12.08-7.14,24.39-13.87,36.94-20.16.71-.36,1.28-.82,1.8-1.41,10.17-11.48,21.14-22.11,33.17-31.63,7.09-5.61,14.51-10.72,22.62-14.78,10.09-5.06,20.89-7.89,31.92-9.91,8.97-1.64,18.02-2.65,27.12-3.29,2.11-.15,4.25-.09,6.35-.48,4.55.07,9.09-.36,13.63-.38.39.08.78.09,1.17-.01,2.09.01,4.19.2,6.28-.13,3.33.06,6.66.14,9.99.16,9.03.07,18.04.49,27.05,1.01,6.69.38,13.39.85,20.06,1.45,10.71.96,21.38,2.27,32.01,3.93,19.21,2.99,38.2,6.98,56.85,12.54,5.59,1.66,11.13,3.47,16.51,5.76,1.11.47,2.17,1.04,3.26,1.56.75.36,1.12.91,1.32,1.75,2.06,8.73,4.2,17.44,6.27,26.16,1.5,6.33,3.02,12.66,4.18,19.07,1.97,10.86,3.94,21.73,5.88,32.6.61,3.42.89,6.88,1,10.36.21,7.19.3,14.38.24,21.57-.03,3.19-.23,6.36-.55,9.53-.19,1.85-.92,3.29-2.41,4.41-1.77,1.33-3.52,2.69-5.49,3.74.15-4.77.32-9.54-.22-14.3-.68-5.98-1.96-11.79-4.54-17.26-1.39-2.95-3.14-5.65-5.63-7.81-3.94-3.42-8.61-3.47-12.62-.15-1.73,1.43-3.08,3.18-4.25,5.08-1.98,3.24-3.32,6.74-4.29,10.39-1.85,6.95-2.49,14.02-2.11,21.21.3,5.72,1.24,11.3,3.01,16.74.41,1.25.41,1.27-.91,1.62-2.38.64-4.85.81-7.27,1.17-4.82.71-9.64,1.38-14.46,2.07-.38.02-.77,0-1.15.05-4.01.55-8.02,1.11-12.02,1.67-4.44.61-8.88,1.22-13.31,1.83-5.3.73-10.59,1.46-15.89,2.18-4.68.63-9.36,1.24-14.04,1.87-4.82.64-9.65,1.29-14.47,1.92-4.15.55-8.31,1.11-12.47,1.64-2.82.36-5.64.67-8.47,1,0-.14-.01-.29.02-.43,1.85-7.99,2.51-16.08,2.05-24.28-.26-4.64-.82-9.22-1.85-13.75-1.29-5.67-3.14-11.14-6.24-16.11-1.78-2.85-3.88-5.42-6.8-7.2-3.85-2.35-7.74-2.39-11.64-.11-2.55,1.49-4.49,3.63-6.15,6.04-2.74,3.97-4.56,8.37-5.92,12.98-1.72,5.81-2.61,11.75-2.98,17.79-.39,6.24-.06,12.44.85,18.61.5,3.39,1.28,6.72,2.24,10.01.27.94.26.96-.69,1.06-1.97.22-3.93.42-5.9.63-7.58.81-15.15,1.72-22.78,1.73-2.94-.09-5.88-.21-8.82-.26-10.08-.17-20.15-.51-30.23-.9-6.89-.26-13.78-.55-20.67-.85-8.05-.35-16.09-.73-24.13-1.19-4.38-.25-8.76-.45-13.15-.69-1.97-.11-3.94-.34-5.91-.41-2.89-.1-5.76-.52-8.66-.43-2.05-.34-4.13-.34-6.2-.52-2.93-.26-5.87-.42-8.8-.68-4.95-.43-9.9-.89-14.84-1.37-4.13-.41-8.25-.91-12.38-1.31-2.26-.22-4.49-.65-6.76-.73-1.47-.46-3.02-.47-4.53-.7-2.41-.36-4.83-.69-7.25-1.03Zm250.28-106.91h-.02c1.37.03,2.73-.1,4.06-.4.86-.09,1.73-.17,2.59-.28,4.3-.54,8.6-1.08,12.89-1.62,4.87-.62,9.74-1.22,14.61-1.85,5.58-.73,11.17-1.47,16.75-2.23,2.62-.36,5.24-.75,7.86-1.13,2-.09,3.98-.34,5.91-.86.43-.03.87-.03,1.3-.09,7-1.08,14.01-2.14,20.98-3.43,5.83-1.08,11.65-2.2,17.37-3.8.83-.15,1.64-.33,2.36-.79.83-.1,1.54-.52,2.31-.8,1.46-.52,2.08-1.51,2.07-3.08,0-2.71-.27-5.39-.66-8.06-.5-3.43-1.11-6.85-2.03-10.2-.26-.93-.55-1.84-1.29-2.54-3.24-3.04-7-5.24-11.09-6.9-.94-.52-1.91-.97-2.94-1.28-.52-.24-1.03-.52-1.57-.73-6.51-2.45-13.23-4.08-20.08-5.26-4.94-.85-9.91-1.47-14.89-1.93-2.49-.23-4.98-.56-7.49-.43-2.02-.37-4.07-.23-6.11-.27-.33-.06-.66-.16-.99-.17-6.27-.15-12.53.01-18.76.8-3.78.48-7.17,1.81-10.03,4.38-.79.71-1.63,1.36-2.41,2.08-7.32,6.67-13.87,14.07-20.28,21.61-.6.71-.87,1.47-.84,2.38.08,2.51.36,5,.9,7.45-1.34.1-2.69-.05-4.02.3-.79.21-1.44.49-1.85,1.22-.28.5-.61.98-.88,1.49-1.78,3.27-2.93,6.8-3.96,10.36-.6,2.07-.99,4.2-1.45,6.3-.23,1.04,0,1.26,1.1,1.54.9.23,1.8.24,2.72.27,1.21.05,2.4-.29,3.58-.27,1.51.03,2.96-.3,4.45-.39.89-.05,1.81-.17,2.71-.31,1.84-.29,3.69-.57,5.54-.86.52-.1,1.09.21,1.57-.22Zm-137.9,40.82c1.11-.88,2.49-.59,3.74-.79,2.7-.43,5.44-.59,8.14-1.01.89-.14,1.83-.08,2.69-.45.51-.22.83-.5.74-1.07-.08-.53-.43-.86-.95-.96-.33-.06-.66.03-1,.08-1.75.27-3.51.56-5.27.73-2.01.19-4,.48-6.01.68-2.72.28-5.45.5-8.16.81-1.48.17-2.97.2-4.46.33-2.54.22-5.06.52-7.61.53-.43,0-.88-.05-1.3.03-3.1.55-6.25.39-9.36.45-7.71.16-15.42.29-23.14-.14-2.45-.14-4.9-.32-7.35-.41-1.24-.05-2.5-.09-3.73-.28-3.18-.47-6.4-.6-9.58-1.07-3.27-.49-6.58-.72-9.85-1.25-4.02-.66-8.08-1.15-12.03-2.2-.32-.08-.67-.06-1.01-.07-.47,0-.86.14-.98.66-.11.48.07.86.46,1.13.44.31.97.41,1.49.52,1.31.27,2.63.56,3.95.78,2.08.35,4.14.83,6.25.98,0,.31.17.55.34.78,1.13,1.5,2.26,3.01,3.39,4.51,1.2,1.6,2.8,2.61,4.68,3.25,1.92.65,3.88,1.17,5.86,1.56,6.16,1.22,12.4,1.71,18.66,2.09,2.26.14,4.53.16,6.79.33,4.87.36,9.74.33,14.61.35,3.8.02,7.62-.03,11.42-.43,3.08-.32,5.93-1.09,8.52-2.88,3.45-2.39,6.83-4.88,10.05-7.57Zm99.93-103.87c-1.44-.16-2.89-.19-4.34-.15-.57-.17-1.16-.23-1.75-.14-.19-.03-.38-.07-.57-.08-6.22-.2-12.45-.47-18.67-.56-14.19-.2-28.39-.26-42.57.57-3.85.23-7.7.54-11.54.91-1.76.17-3.52.34-5.22,1.04-6.53,2.72-12.67,6.14-18.51,10.11-15.2,10.32-28.4,22.85-40.54,36.57-.24.27-.6.5-.55.94.22.28.53.2.8.23,4.23.37,8.46.74,12.69,1.08,1.87.15,3.75.2,5.63.3.96.07,1.91.17,2.87.22,3.74.16,7.47.52,11.22.47.4.23.84.17,1.27.19,2.41.1,4.82.22,7.23.28,8.15.21,16.3.42,24.46.59,5.55.12,11.1.18,16.65.24,16.7.17,33.39.16,50.09.17.84,0,1.47-.23,2.05-.83,1.14-1.18,2.34-2.3,3.49-3.47,14.48-14.79,28.72-29.82,42.96-44.85.19-.2.47-.35.41-.83-3.89-.45-7.8-.99-11.75-1.15-.27-.2-.58-.18-.89-.13-1.34-.13-2.68-.28-4.02-.38-3.4-.27-6.81-.57-10.22-.77-3.26-.19-6.52-.5-9.79-.49-.29-.14-.59-.15-.89-.08Zm-166.08,147.05c-1.34-.12-2.69-.22-4.03-.37-4.02-.44-8.05-.89-12.07-1.34-3.83-.43-7.67-.83-11.49-1.29-3.07-.37-6.14-.57-9.24-.52-1.48.02-2.69.54-3.81,1.48-1.52,1.28-2.94,2.66-4.28,4.11-2.09,2.27-4.16,4.57-5.78,7.22-1.37,2.25-1.13,2.86,1.37,3.49,3.56.9,7.2,1.31,10.83,1.79,4.97.66,9.96,1.12,14.95,1.61,3.98.39,7.98.66,11.96.97,5.77.45,11.53.92,17.3,1.34,4.47.32,8.95.59,13.42.87,6.26.39,12.51.77,18.77,1.17,4.48.28,8.95.57,13.43.86,4.67.3,9.34.6,14,.87,5.92.34,11.85.61,17.77.99,2.07.13,4.14.17,6.21.3,5.49.33,10.98.57,16.49.49.73-.01,1.44-.05,2.16-.21,1.21-.27,1.41-.6,1.1-1.83-.23-.9-.62-1.72-1.08-2.52-.65-1.13-1.36-2.22-2.15-3.26-2.85-3.8-6.07-7.25-9.94-10.05-1.83-1.32-3.85-2.19-6.13-2.34-1.4-.09-2.79-.23-4.19-.27-3.81-.13-7.62-.13-11.43-.26-5.4-.19-10.81-.11-16.21-.27-5.35-.16-10.71-.33-16.06-.43-.03-2.75-.05-5.49-.08-8.24-.05-4-.18-8-.56-11.99-.14-1.45-.17-1.51-1.62-1.69-1.24-.15-2.49-.27-3.74-.35-3.41-.24-6.83-.46-10.25-.67-7.7-.47-15.4-.88-23.12-.84-.43,0-.87.05-1.3.03-.68-.04-.96.32-1.03.93-.03.24-.06.48-.07.72-.33,5.54-.34,11.08-.14,16.63.04.96.15,1.92.04,2.89Zm105.25-35.28c5,.06,10.13-.39,15.24-1.2,4.75-.75,8.81-2.74,12.08-6.28.88-.96,1.79-1.89,2.63-2.89,3.39-4.05,6.14-8.53,8.78-13.09,1.89-3.26,1.27-7.7-3.16-9.83-1.77-.85-3.67-1.17-5.62-1.2-2.57-.03-5.09.42-7.59.98-8.42,1.89-16.42,4.95-24.17,8.71-5.53,2.68-10.81,5.78-15.7,9.51-1.63,1.24-3.08,2.64-4.03,4.49-1.64,3.16-.83,5.98,2.24,7.79,1.51.89,3.16,1.42,4.87,1.79,4.7,1.02,9.46,1.27,14.42,1.22Zm105.75-105.46c0-.37-.12-.68-.47-.82-.47-.19-.95-.18-1.36.17-.7.59-1.4,1.17-2.07,1.8-1.22,1.16-2.34,2.43-3.47,3.67-2.04,2.25-4.25,4.33-6.31,6.57-2.84,3.08-5.73,6.11-8.58,9.18-2.52,2.72-5.06,5.42-7.56,8.16-2.95,3.24-6.02,6.38-8.95,9.63-1.13,1.25-2.33,2.44-3.43,3.71-2.79,3.19-5.69,6.27-8.55,9.4-1.69,1.84-3.35,3.71-5.02,5.58-.54.61-.57,1.43-.11,1.8.47.39,1.34.27,1.78-.37.93-1.36,2.16-2.46,3.25-3.67,3.05-3.4,6.17-6.75,9.23-10.15,1.77-1.97,3.68-3.82,5.43-5.81,1.11-1.27,2.3-2.46,3.44-3.71,2.73-2.98,5.4-6.02,8.17-8.96,2.47-2.63,4.92-5.29,7.37-7.94,3.4-3.68,6.86-7.31,10.33-10.92,2.01-2.09,4.09-4.1,6.13-6.15.33-.34.76-.62.77-1.17Zm-91.55,113.76c-.22,1.62.18,3.48.36,5.34.34,3.43.89,6.85,1.43,10.26.62,3.88,1.3,7.76,1.99,11.63.64,3.64,1.38,7.26,1.97,10.9.5,3.12,1.26,6.21,1.52,9.37.09,1.14.64,1.82,1.33,1.75.71-.07,1.11-.84.93-1.99-.4-2.51-.84-5.01-1.28-7.52-.52-2.98-1.07-5.95-1.6-8.93-.65-3.64-1.3-7.27-1.92-10.91-.45-2.7-.86-5.4-1.27-8.1-.25-1.66-.45-3.33-.69-4.99-.4-2.76-.64-5.53-.75-8.31-.02-.6.23-1.13.28-1.7.06-.63-.25-.99-.81-1.21-.62-.24-.89.18-1.15.59-.27.41-.37.88-.36,1.38.02.72,0,1.45,0,2.44Zm132.03-46.32c.43,0,.88.07,1.3-.01,1.65-.34,3.34-.32,5-.56,1.9-.28,3.79-.56,5.68-.92,1-.19,1.25-.68,1.02-1.67-.11-.47-.23-.93-.38-1.39-.41-1.2-.84-1.45-2.12-1.53-1.6-.1-3.14.41-4.75.32-2.41-.14-4.78.31-7.17.59-1.06.12-1.37.54-1.38,1.64,0,.53-.01,1.04.15,1.57.55,1.75.82,1.97,2.64,1.96Z"/>
  <path class="cls-3" d="m448.09,382.05c-.67,1.85-1.28,3.73-2.02,5.55-1.15,2.83-2.63,5.46-4.66,7.78-2.4,2.75-5.31,4.25-9.06,4.39-6.75.25-13.49.47-20.24.29-1.59-.04-3.18-.17-4.76-.34-1.79-.19-3.32-.95-4.65-2.13-2.53-2.23-4.45-4.92-5.87-7.97,4.82-.69,9.64-1.36,14.46-2.07,2.43-.36,4.89-.53,7.27-1.17,1.32-.35,1.32-.38.91-1.62-1.77-5.44-2.71-11.03-3.01-16.74-.38-7.19.26-14.26,2.11-21.21.97-3.65,2.3-7.16,4.29-10.39,1.17-1.9,2.52-3.65,4.25-5.08,4.01-3.32,8.68-3.27,12.62.15,2.49,2.16,4.24,4.86,5.63,7.81,2.58,5.47,3.86,11.28,4.54,17.26.54,4.77.37,9.53.22,14.3-.22,1.52-.4,3.05-.68,4.55-.41,2.22-.89,4.42-1.34,6.64Zm-4.52-18.06c.06-4.34-.4-8.89-1.52-13.36-.83-3.29-1.92-6.47-3.94-9.26-.68-.95-1.48-1.78-2.46-2.42-1.76-1.14-3.53-1.13-5.31-.07-.84.5-1.53,1.17-2.14,1.92-1.13,1.4-1.99,2.96-2.68,4.61-1.69,4.09-2.57,8.37-2.96,12.76-.64,7.12-.31,14.16,1.62,21.07.81,2.89,1.91,5.67,3.74,8.1,3.03,4.02,7,4.02,10.03,0,1.29-1.71,2.22-3.61,2.93-5.62,2.01-5.66,2.75-11.51,2.7-17.74Z"/>
  <path class="cls-10" d="m66.24,318.03c.68-.42,1-1.15,1.44-1.76,3-4.23,6.99-7.34,11.31-10.08.08-.05.18-.05.28-.07.54,4.15.82,8.33,1.15,12.5.2,2.49.33,4.99.42,7.49.08,2.03-.08,4.04-.91,5.94-.63,1.42-1.57,2.52-3.07,3.07-1.42.52-2.77.23-4.04-.42-2.32-1.17-4.61-2.39-6.9-3.61-1.36-.72-2.69-1.49-4.04-2.24.4-2.33,1.3-4.49,2.28-6.61.66-1.42,1.39-2.81,2.09-4.21Z"/>
  <path class="cls-5" d="m280.09,227.83c3.27-.01,6.53.3,9.79.49,3.41.19,6.81.5,10.22.77,1.34.11,2.68.25,4.02.38-1.09.33-2.17.23-3.26.03-1.29-.23-2.6-.28-3.83.27-2.95,1.31-5.89,2.63-8.83,3.96-2.28,1.03-4.55,2.09-6.84,3.11-3.12,1.39-6.26,2.75-9.38,4.14-2.29,1.02-4.55,2.09-6.84,3.1-4,1.78-8.01,3.53-12.02,5.31-2.29,1.02-4.55,2.08-6.84,3.1-3.12,1.39-6.26,2.75-9.38,4.14-2.29,1.02-4.55,2.09-6.84,3.1-4,1.78-8.01,3.53-12.02,5.31-2.29,1.02-4.55,2.09-6.84,3.1-3.91,1.74-7.83,3.46-11.76,5.18-2.56,1.12-5.13,2.18-7.68,3.32-2.17.97-4.3,2-6.45,3,2.47.16,4.88.13,7.3.17,1.15.02,2.17-.27,3.19-.75,2.13-1,4.29-1.96,6.44-2.93,3.43-1.53,6.86-3.05,10.29-4.58,2.68-1.19,5.36-2.39,8.05-3.57,4-1.77,8.02-3.53,12.02-5.3,2.95-1.31,5.88-2.65,8.83-3.96,3.12-1.39,6.26-2.75,9.38-4.13,2.95-1.31,5.88-2.65,8.83-3.96,3.7-1.63,7.41-3.22,11.11-4.86,3.04-1.34,6.05-2.74,9.09-4.09,4.09-1.82,8.19-3.62,12.28-5.42,3.08-1.36,6.17-2.7,9.25-4.07,1.45-.64,2.88-1.32,4.32-1.99-.19-.33-.62-.24-.68-.6,3.95.16,7.86.7,11.75,1.15.06.47-.22.63-.41.83-14.24,15.02-28.48,30.05-42.96,44.85-1.15,1.17-2.35,2.29-3.49,3.47-.58.59-1.21.83-2.05.83-16.7,0-33.39,0-50.09-.17-5.55-.06-11.1-.12-16.65-.24-8.15-.17-16.3-.38-24.46-.59-2.41-.06-4.82-.18-7.23-.28-.43-.02-.87.04-1.27-.19.94-.18,1.93.15,2.86-.27,2.68-1.21,5.37-2.38,8.05-3.59,3.91-1.75,7.81-3.53,11.73-5.27,5.59-2.48,11.19-4.93,16.78-7.4,5.2-2.3,10.38-4.61,15.58-6.92,5.24-2.33,10.47-4.65,15.71-6.98,5.19-2.31,10.38-4.61,15.57-6.92,5.24-2.33,10.47-4.66,15.71-6.98,4.31-1.92,8.63-3.83,12.93-5.75.42-.19.9-.3,1.31-.96-1.17,0-2.15.01-3.14,0-.4,0-.9.18-1.14-.37Z"/>
  <path class="cls-2" d="m154.98,377.39c5.36.1,10.71.27,16.06.43,5.4.16,10.81.08,16.21.27,3.81.14,7.62.14,11.43.26,1.4.05,2.79.18,4.19.27,2.29.15,4.3,1.01,6.13,2.34,3.87,2.8,7.09,6.24,9.94,10.05.78,1.04,1.49,2.14,2.15,3.26.46.8.85,1.63,1.08,2.52.32,1.23.11,1.56-1.1,1.83-.71.16-1.43.2-2.16.21-5.5.08-11-.16-16.49-.49-2.07-.12-4.14-.16-6.21-.3-5.92-.38-11.85-.65-17.77-.99-4.67-.27-9.34-.58-14-.87-4.48-.28-8.95-.58-13.43-.86-6.26-.39-12.51-.77-18.77-1.17-4.48-.28-8.95-.54-13.42-.87-5.77-.42-11.54-.88-17.3-1.34-3.99-.31-7.98-.58-11.96-.97-4.99-.49-9.98-.95-14.95-1.61-3.63-.48-7.27-.89-10.83-1.79-2.5-.63-2.74-1.25-1.37-3.49,1.62-2.65,3.68-4.95,5.78-7.22,1.34-1.45,2.76-2.83,4.28-4.11,1.12-.95,2.33-1.46,3.81-1.48,3.09-.04,6.17.16,9.24.52,3.83.46,7.66.86,11.49,1.29,4.02.45,8.05.91,12.07,1.34,1.34.15,2.69.24,4.03.37.04.38.09.76.13,1.15.15,1.48.21,1.54,1.74,1.75,5.89.78,11.8,1.25,17.72,1.72,5.24.41,10.49.74,15.74,1.07,1.73.11,3.47.11,5.21.12.99,0,1.04-.06,1.16-1.05.08-.72.12-1.44.17-2.16Z"/>
  <path class="cls-5" d="m307.66,271.35c-.55-2.45-.82-4.94-.9-7.45-.03-.91.24-1.68.84-2.38,6.4-7.54,12.95-14.93,20.28-21.61.78-.71,1.62-1.37,2.41-2.08,2.86-2.57,6.25-3.9,10.03-4.38,6.23-.79,12.49-.95,18.76-.8.33,0,.66.11.99.17.15.46.28.92.45,1.36,6.12,16.05,11.36,32.38,15.39,49.08-2.62.38-5.23.78-7.86,1.13-5.58.76-11.16,1.5-16.75,2.23-4.87.63-9.74,1.24-14.61,1.85-4.3.54-8.6,1.09-12.89,1.62-.86.11-1.72.19-2.59.28,0-.14,0-.29,0-.43,1.58-.42,3.16-.85,4.74-1.25,1.9-.47,2.91-1.73,3.37-3.56.75-3.04.77-6.09.24-9.17-.23-1.33-.87-2.21-2.3-2.35-.24-.02-.46-.14-.7-.18-6.24-1.24-12.53-2.09-18.91-2.09Z"/>
  <path class="cls-5" d="m154.05,278.56c-1.88-.1-3.76-.15-5.63-.3-4.23-.33-8.46-.71-12.69-1.08-.27-.02-.58.05-.8-.23-.05-.44.31-.67.55-.94,12.14-13.71,25.35-26.25,40.54-36.57,5.84-3.97,11.98-7.39,18.51-10.11,1.7-.71,3.46-.87,5.22-1.04,3.84-.37,7.69-.68,11.54-.91,14.18-.83,28.37-.77,42.57-.57,6.23.09,12.45.37,18.67.56.19,0,.38.05.57.08-1.23.37-2.48.15-3.72.15-1.14,0-2.17.16-3.19.72-1.05.58-2.18,1.02-3.28,1.51-4.18,1.85-8.35,3.7-12.53,5.56-2.99,1.33-5.96,2.69-8.95,4.02-4.09,1.82-8.18,3.61-12.27,5.43-2.2.98-4.38,2-6.57,2.98-3.21,1.43-6.43,2.83-9.63,4.25-2.9,1.29-5.79,2.61-8.69,3.89-3.87,1.71-7.75,3.39-11.62,5.11-4.09,1.82-8.15,3.7-12.24,5.52-4.75,2.11-9.51,4.18-14.26,6.28-3.56,1.58-7.12,3.17-10.67,4.77-.52.23-1.11.38-1.43.93Z"/>
  <path class="cls-3" d="m305.02,401.79c-.49,1.61-.95,3.23-1.48,4.83-1.26,3.86-2.88,7.56-5.17,10.94-1.3,1.93-2.78,3.7-4.61,5.15-2.17,1.72-4.58,2.7-7.4,2.89-9.01.6-18.02.69-27.03.49-1.83-.04-3.65-.25-5.47-.47-1.89-.23-3.49-1.05-4.95-2.2-.23-.18-.45-.36-.66-.56-4.23-3.91-7.06-8.73-9.03-14.09,7.64,0,15.21-.91,22.78-1.73,1.97-.21,3.93-.41,5.9-.63.94-.1.96-.12.69-1.06-.96-3.29-1.74-6.62-2.24-10.01-.91-6.17-1.23-12.37-.85-18.61.38-6.04,1.27-11.98,2.98-17.79,1.36-4.61,3.18-9,5.92-12.98,1.66-2.41,3.59-4.55,6.15-6.04,3.9-2.28,7.79-2.24,11.64.11,2.92,1.78,5.02,4.35,6.8,7.2,3.1,4.97,4.95,10.44,6.24,16.11,1.03,4.52,1.59,9.11,1.85,13.75.46,8.2-.2,16.28-2.05,24.28-.03.14-.01.29-.02.43Zm-6.04-21.67c.04-2.78-.37-7.33-1.22-11.85-.77-4.04-1.89-7.98-3.77-11.66-.95-1.86-2.08-3.59-3.65-5.01-2.76-2.5-5.71-2.63-8.64-.37-1.72,1.33-2.88,3.11-3.89,4.99-1.67,3.08-2.74,6.38-3.49,9.78-1.51,6.77-2.02,13.62-1.57,20.56.27,4.2.82,8.35,1.85,12.43.97,3.8,2.26,7.48,4.52,10.75.94,1.36,2.03,2.58,3.46,3.45,2.14,1.32,4.29,1.31,6.42.01,1.21-.74,2.19-1.73,3.03-2.87,1.63-2.19,2.79-4.62,3.69-7.19,2.41-6.86,3.24-13.97,3.26-23.03Z"/>
  <path class="cls-5" d="m366.17,233.1c2.51-.13,5,.2,7.49.43,4.99.46,9.95,1.08,14.89,1.93,6.84,1.18,13.57,2.81,20.08,5.26.54.2,1.05.48,1.57.73.07.23.1.47.2.68,4.83,10.6,8.57,21.57,11.07,32.96-5.72,1.6-11.54,2.72-17.37,3.8-6.97,1.29-13.98,2.35-20.98,3.43-.43.07-.87.06-1.3.09-4.04-16.81-9.34-33.22-15.65-49.31Z"/>
  <path class="cls-10" d="m218.36,339.52c-4.96.05-9.72-.2-14.42-1.22-1.7-.37-3.35-.9-4.87-1.79-3.07-1.81-3.88-4.64-2.24-7.79.96-1.84,2.41-3.25,4.03-4.49,4.89-3.73,10.17-6.83,15.7-9.51,7.75-3.76,15.75-6.81,24.17-8.71,2.5-.56,5.02-1.01,7.59-.98,1.95.02,3.85.35,5.62,1.2,4.43,2.13,5.05,6.57,3.16,9.83-2.64,4.56-5.39,9.04-8.78,13.09-.84,1-1.74,1.94-2.63,2.89-3.27,3.54-7.32,5.53-12.08,6.28-5.11.81-10.24,1.26-15.24,1.2Zm.37-3.85c1.75.18,3.52-.16,5.28-.35,3.77-.42,7.49-1.15,11.12-2.28,2.68-.84,5.28-1.94,7.42-3.77,4.18-3.58,6.97-8.18,9.14-13.18.15-.35.29-.71.28-1.11-.02-1.33-.94-1.92-2.15-1.39-.55.25-.96.66-1.31,1.11-2.01,2.55-4.35,4.78-6.87,6.78-5.19,4.12-11.06,6.96-17.45,8.69-2.83.76-5.69,1.37-8.64,1.48-.7.03-1.3.37-1.84.78-.76.58-.77,1.41-.12,2.13.34.38.78.53,1.25.69,1.25.42,2.54.51,3.89.42Z"/>
  <path class="cls-13" d="m154.98,377.39c-.05.72-.08,1.44-.17,2.16-.12.99-.17,1.06-1.16,1.05-1.74,0-3.48-.01-5.21-.12-5.25-.33-10.5-.66-15.74-1.07-5.92-.47-11.83-.94-17.72-1.72-1.53-.2-1.59-.27-1.74-1.75-.04-.38-.09-.77-.13-1.15.11-.96,0-1.93-.04-2.89-.2-5.54-.19-11.09.14-16.63.01-.24.05-.48.07-.72.07-.61.35-.97,1.03-.93.43.02.87-.02,1.3-.03,7.72-.04,15.42.37,23.12.84,3.42.21,6.83.43,10.25.67,1.25.09,2.5.2,3.74.35,1.44.18,1.48.24,1.62,1.69.37,3.99.51,7.99.56,11.99.03,2.75.05,5.49.08,8.24Z"/>
  <path class="cls-13" d="m154.05,278.56c.32-.55.91-.69,1.43-.93,3.55-1.6,7.11-3.2,10.67-4.77,4.75-2.1,9.51-4.17,14.26-6.28,4.09-1.82,8.15-3.69,12.24-5.52,3.86-1.72,7.75-3.4,11.62-5.11,2.9-1.29,5.79-2.6,8.69-3.89,3.21-1.43,6.43-2.83,9.63-4.25,2.2-.98,4.38-2,6.57-2.98,4.09-1.82,8.18-3.61,12.27-5.43,2.99-1.33,5.96-2.69,8.95-4.02,4.17-1.86,8.35-3.7,12.53-5.56,1.1-.49,2.23-.93,3.28-1.51,1.01-.56,2.05-.72,3.19-.72,1.24,0,2.5.22,3.72-.15.59-.09,1.18-.03,1.75.14,1.43.59,2.89.37,4.34.15.31-.06.61-.06.89.08.24.55.73.36,1.14.37.98.02,1.97,0,3.14,0-.41.66-.89.78-1.31.96-4.31,1.92-8.62,3.83-12.93,5.75-5.24,2.33-10.47,4.66-15.71,6.98-5.19,2.31-10.38,4.61-15.57,6.92-5.24,2.33-10.47,4.65-15.71,6.98-5.19,2.31-10.38,4.62-15.58,6.92-5.59,2.47-11.19,4.92-16.78,7.4-3.92,1.74-7.82,3.52-11.73,5.27-2.68,1.2-5.37,2.38-8.05,3.59-.93.42-1.91.09-2.86.27-3.75.05-7.48-.31-11.22-.47-.96-.04-1.91-.14-2.87-.22Z"/>
  <path class="cls-3" d="m83.09,409.48c-1.81-2.83-3.13-5.9-4.2-9.08-.1-.31-.15-.65-.22-.97,2.27.07,4.5.51,6.76.73,4.13.41,8.25.9,12.38,1.31,4.94.49,9.89.94,14.84,1.37,2.93.26,5.87.42,8.8.68,2.06.18,4.15.18,6.2.52-1.49,3.75-3.44,7.23-6.17,10.22-1.68,1.84-3.59,3.4-6.13,3.87-1.23.23-2.49.31-3.74.37-5.4.29-10.79.39-16.2.1-4.02-.22-7.07-1.94-9.47-5.06"/>
  <path class="cls-2" d="m179.27,331.62c-3.22,2.69-6.6,5.18-10.05,7.57-2.59,1.79-5.44,2.56-8.52,2.88-3.8.39-7.62.44-11.42.43-4.87-.02-9.74.01-14.61-.35-2.26-.17-4.53-.19-6.79-.33-6.26-.38-12.5-.87-18.66-2.09-1.99-.39-3.94-.91-5.86-1.56-1.88-.64-3.48-1.65-4.68-3.25-1.13-1.51-2.26-3.01-3.39-4.51-.17-.23-.34-.47-.34-.78.23.06.46.14.7.17,4.63.61,9.25,1.28,13.88,1.8,4.16.47,8.33.87,12.51,1.13,4.81.3,9.63.47,14.45.58,4.19.1,8.39-.04,12.59-.15,3.95-.1,7.9-.4,11.86-.41.14,0,.29-.01.43-.02,3.41-.27,6.82-.52,10.22-.8,1.77-.15,3.54-.37,5.32-.49.78-.05,1.61-.41,2.36.17Z"/>
  <path class="cls-7" d="m307.66,271.35c6.38,0,12.66.84,18.91,2.09.24.05.46.16.7.18,1.43.14,2.07,1.02,2.3,2.35.53,3.07.51,6.13-.24,9.17-.45,1.83-1.47,3.1-3.37,3.56-1.59.39-3.16.83-4.74,1.25-1.38.19-2.75.36-4.07.85h.02c-.52.12-1.07-.07-1.57.21-1.85.28-3.69.56-5.54.86-.9.14-1.82.26-2.71.31-1.49.09-2.94.43-4.45.39-1.19-.03-2.37.32-3.58.27-.91-.04-1.81-.05-2.72-.27-1.1-.28-1.33-.5-1.1-1.54.46-2.11.85-4.24,1.45-6.3,1.03-3.56,2.17-7.08,3.96-10.36.28-.51.6-.99.88-1.49.41-.73,1.06-1.01,1.85-1.22,1.33-.35,2.68-.2,4.02-.3Z"/>
  <path class="cls-13" d="m305.01,229.6c.07.35.49.27.68.6-1.45.67-2.88,1.35-4.32,1.99-3.08,1.37-6.17,2.71-9.25,4.07-4.1,1.8-8.19,3.6-12.28,5.42-3.03,1.35-6.05,2.75-9.09,4.09-3.7,1.63-7.41,3.22-11.11,4.86-2.95,1.3-5.88,2.65-8.83,3.96-3.12,1.39-6.26,2.75-9.38,4.13-2.95,1.31-5.88,2.65-8.83,3.96-4,1.78-8.01,3.53-12.02,5.3-2.69,1.19-5.37,2.38-8.05,3.57-3.43,1.52-6.86,3.04-10.29,4.58-2.15.96-4.31,1.92-6.44,2.93-1.02.48-2.05.77-3.19.75-2.41-.05-4.83-.01-7.3-.17,2.15-1,4.29-2.03,6.45-3,2.55-1.14,5.13-2.2,7.68-3.32,3.92-1.72,7.84-3.44,11.76-5.18,2.29-1.02,4.55-2.09,6.84-3.1,4-1.78,8.01-3.53,12.02-5.31,2.29-1.02,4.55-2.08,6.84-3.1,3.12-1.39,6.26-2.75,9.38-4.14,2.29-1.02,4.55-2.09,6.84-3.1,4-1.78,8.01-3.53,12.02-5.31,2.29-1.02,4.55-2.08,6.84-3.1,3.12-1.39,6.26-2.75,9.38-4.14,2.29-1.02,4.56-2.08,6.84-3.11,2.94-1.33,5.88-2.65,8.83-3.96,1.24-.55,2.54-.5,3.83-.27,1.1.2,2.18.3,3.26-.03.31-.05.62-.07.89.13Z"/>
  <path class="cls-3" d="m366.17,233.1c6.31,16.09,11.61,32.5,15.65,49.31-1.94.52-3.91.77-5.91.86-4.03-16.7-9.27-33.03-15.39-49.08-.17-.45-.3-.91-.45-1.36,2.04.05,4.08-.09,6.11.27Z"/>
  <path class="cls-8" d="m179.27,331.62c-.75-.58-1.58-.22-2.36-.17-1.78.12-3.54.34-5.32.49-3.41.28-6.81.54-10.22.8-.14.01-.29.02-.43.02-3.96,0-7.9.31-11.86.41-4.2.11-8.39.25-12.59.15-4.82-.11-9.64-.28-14.45-.58-4.18-.26-8.35-.66-12.51-1.13-4.64-.52-9.26-1.19-13.88-1.8-.24-.03-.47-.11-.7-.17-2.11-.16-4.17-.63-6.25-.98-1.32-.22-2.64-.51-3.95-.78-.52-.11-1.04-.21-1.49-.52-.39-.27-.57-.65-.46-1.13.12-.52.51-.67.98-.66.34,0,.69-.02,1.01.07,3.95,1.05,8.01,1.54,12.03,2.2,3.26.53,6.58.76,9.85,1.25,3.18.48,6.4.6,9.58,1.07,1.23.18,2.5.23,3.73.28,2.45.09,4.9.27,7.35.41,7.71.43,15.43.31,23.14.14,3.11-.07,6.26.09,9.36-.45.42-.07.87-.03,1.3-.03,2.55,0,5.08-.31,7.61-.53,1.48-.13,2.97-.16,4.46-.33,2.72-.31,5.44-.52,8.16-.81,2-.21,4-.49,6.01-.68,1.76-.17,3.52-.47,5.27-.73.34-.05.66-.14,1-.08.52.1.87.43.95.96.09.57-.22.85-.74,1.07-.87.37-1.8.31-2.69.45-2.7.42-5.44.58-8.14,1.01-1.25.2-2.63-.09-3.74.79Z"/>
  <path class="cls-5" d="m413.14,242.72c4.09,1.66,7.85,3.86,11.09,6.9.74.7,1.04,1.61,1.29,2.54.93,3.35,1.53,6.76,2.03,10.2.39,2.67.65,5.35.66,8.06,0,1.57-.61,2.56-2.07,3.08-.77.27-1.49.69-2.31.8-.34-1.4-.67-2.81-1.03-4.21-2.42-9.4-5.69-18.51-9.67-27.36Z"/>
  <path class="cls-8" d="m324.11,234.06c0,.55-.43.84-.77,1.17-2.04,2.05-4.13,4.07-6.13,6.15-3.47,3.61-6.93,7.24-10.33,10.92-2.45,2.65-4.9,5.31-7.37,7.94-2.77,2.94-5.44,5.98-8.17,8.96-1.14,1.24-2.33,2.43-3.44,3.71-1.74,1.99-3.65,3.84-5.43,5.81-3.06,3.4-6.17,6.75-9.23,10.15-1.09,1.21-2.32,2.31-3.25,3.67-.44.64-1.31.76-1.78.37-.46-.38-.43-1.19.11-1.8,1.66-1.87,3.33-3.74,5.02-5.58,2.86-3.12,5.77-6.2,8.55-9.4,1.11-1.27,2.3-2.46,3.43-3.71,2.94-3.25,6-6.39,8.95-9.63,2.5-2.74,5.04-5.44,7.56-8.16,2.85-3.07,5.75-6.1,8.58-9.18,2.06-2.24,4.27-4.32,6.31-6.57,1.13-1.25,2.25-2.51,3.47-3.67.66-.63,1.37-1.21,2.07-1.8.41-.35.89-.35,1.36-.17.35.14.48.46.47.82Z"/>
  <path class="cls-8" d="m232.56,347.82c0-.99.01-1.72,0-2.44-.01-.5.09-.97.36-1.38.26-.4.54-.83,1.15-.59.56.22.87.58.81,1.21-.06.57-.3,1.11-.28,1.7.11,2.78.35,5.56.75,8.31.24,1.66.44,3.33.69,4.99.41,2.7.81,5.41,1.27,8.1.61,3.64,1.27,7.28,1.92,10.91.53,2.98,1.07,5.95,1.6,8.93.44,2.5.88,5.01,1.28,7.52.18,1.15-.22,1.92-.93,1.99-.69.07-1.24-.61-1.33-1.75-.25-3.17-1.01-6.25-1.52-9.37-.59-3.65-1.32-7.27-1.97-10.9-.68-3.87-1.37-7.75-1.99-11.63-.54-3.41-1.09-6.82-1.43-10.26-.18-1.86-.58-3.72-.36-5.34Z"/>
  <path class="cls-3" d="m413.14,242.72c3.98,8.85,7.25,17.96,9.67,27.36.36,1.4.68,2.81,1.03,4.21-.72.46-1.54.64-2.36.79-2.5-11.39-6.23-22.36-11.07-32.96-.1-.21-.13-.45-.2-.68,1.03.31,2,.75,2.94,1.28Z"/>
  <path class="cls-7" d="m364.59,301.5c-1.82.01-2.1-.21-2.64-1.96-.16-.53-.16-1.05-.15-1.57.01-1.11.32-1.52,1.38-1.64,2.38-.27,4.76-.72,7.17-.59,1.6.09,3.15-.42,4.75-.32,1.28.08,1.71.33,2.12,1.53.15.45.27.92.38,1.39.23.99-.02,1.48-1.02,1.67-1.88.35-3.78.64-5.68.92-1.66.24-3.35.22-5,.56-.42.09-.87.01-1.3.01Z"/>
  <path class="cls-4" d="m317.15,290.8c1.31-.48,2.69-.66,4.07-.85,0,.14,0,.29,0,.43-1.34.3-2.69.43-4.06.41Z"/>
  <path class="cls-9" d="m315.6,291.01c.49-.27,1.05-.09,1.57-.22-.47.43-1.05.12-1.57.22Z"/>
  <path class="cls-9" d="m443.58,363.99c.05,6.23-.69,12.08-2.7,17.74-.71,2.01-1.65,3.91-2.93,5.62-3.03,4.03-7,4.03-10.03,0-1.83-2.43-2.93-5.21-3.74-8.1-1.94-6.91-2.26-13.96-1.62-21.07.4-4.39,1.27-8.67,2.96-12.76.68-1.66,1.55-3.21,2.68-4.61.61-.76,1.3-1.42,2.14-1.92,1.78-1.06,3.55-1.07,5.31.07.99.64,1.78,1.47,2.46,2.42,2.02,2.79,3.11,5.97,3.94,9.26,1.13,4.47,1.59,9.01,1.52,13.36Z"/>
  <path class="cls-9" d="m298.97,380.12c-.02,9.06-.85,16.16-3.26,23.03-.9,2.56-2.05,5-3.69,7.19-.84,1.13-1.82,2.13-3.03,2.87-2.14,1.3-4.28,1.3-6.42-.01-1.43-.88-2.51-2.09-3.46-3.45-2.26-3.26-3.55-6.95-4.52-10.75-1.04-4.08-1.58-8.22-1.85-12.43-.45-6.94.06-13.78,1.57-20.56.76-3.4,1.83-6.7,3.49-9.78,1.01-1.87,2.17-3.66,3.89-4.99,2.94-2.26,5.89-2.13,8.64.37,1.56,1.42,2.7,3.15,3.65,5.01,1.88,3.68,3,7.62,3.77,11.66.86,4.52,1.26,9.07,1.22,11.85Z"/>
  <path class="cls-13" d="m218.73,335.68c-1.35.09-2.63,0-3.89-.42-.46-.15-.9-.31-1.25-.69-.66-.72-.65-1.55.12-2.13.54-.41,1.14-.75,1.84-.78,2.94-.12,5.81-.72,8.64-1.48,6.39-1.72,12.26-4.56,17.45-8.69,2.52-2,4.87-4.23,6.87-6.78.35-.45.76-.87,1.31-1.11,1.2-.54,2.13.06,2.15,1.39,0,.4-.13.76-.28,1.11-2.17,5-4.95,9.6-9.14,13.18-2.14,1.83-4.74,2.93-7.42,3.77-3.63,1.13-7.35,1.87-11.12,2.28-1.75.19-3.53.53-5.28.35Z"/>
</svg>