<svg xmlns="http://www.w3.org/2000/svg" width="337" height="63" viewBox="0 0 337 63">
  <g id="Group_170" data-name="Group 170" transform="translate(-680.371 -4496.703)">
    <g id="Group_122" data-name="Group 122" transform="translate(680.371 4497.349)">
      <rect id="Rectangle_270" data-name="Rectangle 270" width="13.238" height="50.445" rx="1.395" fill="#633e1c"/>
      <path id="Path_95" data-name="Path 95" d="M715.584,4497.349H703.615a1.393,1.393,0,0,0-1.184.66l-6.66,10.743a1.406,1.406,0,0,0-.211.742V4524.6a1.4,1.4,0,0,0,1.394,1.4h9.056a1.4,1.4,0,0,1,1.394,1.4V4558.3a1.4,1.4,0,0,0,1.4,1.4h8.08a1.4,1.4,0,0,0,1.395-1.4V4526s.806-10.8-11.93-10.8c0,0-.438-.082.234-1.1.716-1.081,7.135-10.247,10.147-14.545A1.4,1.4,0,0,0,715.584,4497.349Z" transform="translate(-680.371 -4497.349)" fill="#633e1c"/>
      <path id="Path_96" data-name="Path 96" d="M756.177,4498.744a1.4,1.4,0,0,0-1.4-1.4H724.546a1.4,1.4,0,0,0-1.4,1.4v9.332a1.4,1.4,0,0,0,1.4,1.4h7.383a1.4,1.4,0,0,1,1.395,1.4V4546.4a1.4,1.4,0,0,0,1.394,1.4h9.752a1.4,1.4,0,0,0,1.4-1.4v-35.533a1.4,1.4,0,0,1,1.4-1.4h7.522a1.4,1.4,0,0,0,1.4-1.4Z" transform="translate(-680.371 -4497.349)" fill="#633e1c"/>
      <path id="Path_97" data-name="Path 97" d="M783.211,4497.349h-10.7s-10.108,1.307-10.108,10.707c0,1.719.738,9.487,6.612,12.807,3.959,3,9.61,5.683,8.333,11.813-.766,2.235-5.652,8.365-17.832,2.108v11.3s19.617,7.906,27.939-7.853c0,0,5.932-12.926-5.135-19.654-2.213-1.5-9.03-6.817-4.515-11.067h5.4Z" transform="translate(-680.371 -4497.349)" fill="#633e1c"/>
    </g>
    <g id="Group_124" data-name="Group 124" transform="translate(807.01 4496.703)">
      <g id="Group_123" data-name="Group 123">
        <path id="Path_98" data-name="Path 98" d="M819.6,4503.429a14.228,14.228,0,0,1-1.539,2.906l-2.68-1.82c.1-.127.148-.177.2-.255h-2.227v1.593a17.556,17.556,0,0,0,3.54,4.755l-1.844,2.552a15.884,15.884,0,0,1-1.7-3.137v10.67h-2.906v-10.542a18.651,18.651,0,0,1-2.655,5.635l-1.161-3.968a23.32,23.32,0,0,0,3.54-7.558H807.12v-2.931h3.335v-4.4h2.906v4.4h2.783v2.1a19.112,19.112,0,0,0,2.021-5.841l3.033.354c-.152.708-.28,1.288-.6,2.527h1.589v-3.54h2.985v3.54H830.4v2.96h-5.232v3.029h5.688v3.009H826.1a18.007,18.007,0,0,0,5.183,6.093L829.867,4519a18.548,18.548,0,0,1-4.7-6.393v8.089h-2.985v-8.064a18.982,18.982,0,0,1-5.281,6.294l-1.869-2.882a19.358,19.358,0,0,0,6.241-6.574h-5.129v-3.009h6.038v-3.029Z" transform="translate(-806.639 -4496.703)" fill="#633e1c"/>
        <path id="Path_99" data-name="Path 99" d="M837.343,4516.749c1.465-.127,2.881-.255,5.079-.506v-6.751h-4.548v-3.034h12.057v3.034h-4.347v6.323c2.149-.305,3.791-.585,5.154-.811l.028,3.034c-3.54.757-8.368,1.391-12.995,1.947Zm20.878-16.054h2.931v3.034H853.8c.354,8.673,2.606,13.045,3.766,13.045.91,0,1.519-2.2,1.873-3.614l2.1,2.527c-.251,1.112-1.186,5.055-3.689,5.055-1.337,0-6.623-1.136-7.253-17.013H837.47v-3.034h13.016c-.024-.708-.074-3.26-.074-3.791h3.26c0,.408.025,2.174.05,3.791h3.589a15.579,15.579,0,0,0-2.856-2.35l2.251-1.642a12.938,12.938,0,0,1,3.359,2.655Z" transform="translate(-806.639 -4496.703)" fill="#633e1c"/>
        <path id="Path_100" data-name="Path 100" d="M873.073,4505.1a35.015,35.015,0,0,1-4.067,2.124l-1.568-3.112c6.141-2.4,9.15-5.207,10.517-7.228h3.585c1.367,1.72,3.845,4.548,10.444,7.228l-1.618,3.087a24.626,24.626,0,0,1-4-2.149v1.441h-13.3Zm14.662,15.848c-.279-.506-.456-.885-1.012-1.795a156.3,156.3,0,0,1-17.594,1.087l-.4-3.186c.329,0,3.034.029,3.614.029a37.559,37.559,0,0,0,2.174-5.236H868.45v-2.956h22.5v2.956H878.128c-.959,2.251-1.589,3.692-2.375,5.207.811,0,5.03-.1,9.175-.428-.556-.758-1.21-1.593-2.552-3.133l2.68-1.441a40.225,40.225,0,0,1,5.561,7.253Zm-3.363-17.264a25.075,25.075,0,0,1-4.651-4.273,19.97,19.97,0,0,1-4.549,4.273Z" transform="translate(-806.639 -4496.703)" fill="#633e1c"/>
        <path id="Path_101" data-name="Path 101" d="M904.79,4520.742h-3.162v-9.175a27.243,27.243,0,0,1-2.881,2.247l-1.033-3.462a18.008,18.008,0,0,0,6.471-6.775h-6.093v-2.956h3.536v-3.741h3.162v3.741H907.6v2.956a23.632,23.632,0,0,1-2.326,3.972,12.054,12.054,0,0,0,3.512,2.931l-1.54,2.956a17.575,17.575,0,0,1-2.453-2.6Zm8.138-23.862h3.21v6.775h5.208v3.211h-5.208v9.908h5.689v3.186H906.811v-3.186h6.117v-9.908h-4.952v-3.211h4.952Z" transform="translate(-806.639 -4496.703)" fill="#633e1c"/>
        <path id="Path_102" data-name="Path 102" d="M836.294,4555.048l-.821,3.6h-13.09c-1.8,0-6.418,0-10.088-3.117a13.6,13.6,0,0,1-3.3,3.824l-2.266-3.4a12.823,12.823,0,0,0,3.028-3.271,18.6,18.6,0,0,1-2.535-6.145l2.873-1.01a17.429,17.429,0,0,0,1.19,3.485,35.923,35.923,0,0,0,.827-4.645H807.1v-3.58a36.773,36.773,0,0,0,4.157-5.562H807.1v-3.426h8.285v3.426a29.491,29.491,0,0,1-4.217,5.9h4.247a40.346,40.346,0,0,1-1.648,11.313c1.862,1.678,5.1,2.6,8.011,2.6Zm-9.415-22.69h7.339v4.252h1.618v2.933h-1.618v4.192h-7.339v1.589h7.737v2.688h-7.737v1.529h8.957v2.843h-8.957v2.171h-3.515v-2.171h-7.643v-2.843h7.643v-1.529h-6.638v-2.688h6.638v-1.589h-5.9v-2.664h5.9v-1.528h-7.643v-2.933h7.643v-1.5h-5.9v-2.753h5.9v-1.773h3.515Zm3.883,2.753h-3.883v1.5h3.883Zm0,4.432h-3.883v1.528h3.883Z" transform="translate(-806.639 -4496.36)" fill="#633e1c"/>
        <path id="Path_103" data-name="Path 103" d="M844.908,4535.813a18.667,18.667,0,0,1,4.954,2.415l-1.683,2.908a19.6,19.6,0,0,0-4.859-2.6Zm6.513,7.554a36.709,36.709,0,0,1-5.6,6.542l-2.23-3.087a37.059,37.059,0,0,0,5.536-5.84Zm5.994,5.716-.492-2.784H859.4c.518,0,.642-.3.642-.607v-2.509h-7.921v-2.933h7.921v-1.623h-4.067v-1.375a22.259,22.259,0,0,1-3.974,1.434l-1.379-3.3a17.609,17.609,0,0,0,9.57-4.8h3.52a22.354,22.354,0,0,0,9.505,4.8l-1.529,3.3a29.609,29.609,0,0,1-3.943-1.588v1.529H863.53v1.623h8.19v2.933h-8.19v3.729c0,1.255-.488,2.509-2.325,2.509h-.976v1.375H870.62v2.967H860.229v1.773h12.318v3.181H843.992v-3.181H856.28v-1.773H845.919V4550.8H856.28v-1.713Zm-10.884-18.742a21.822,21.822,0,0,1,4.949,2.385l-1.832,2.938a19.688,19.688,0,0,0-5.014-2.569ZM857.9,4545.08a20.754,20.754,0,0,1-5.228,4.675l-2.479-2.415a17.082,17.082,0,0,0,4.924-3.849Zm7.489-9.237a14.39,14.39,0,0,1-3.361-2.6,17.167,17.167,0,0,1-3.4,2.6Zm2.355,7.494a30.572,30.572,0,0,0,5.044,4.1l-2.564,2.5a24.721,24.721,0,0,1-5.139-4.645Z" transform="translate(-806.639 -4496.36)" fill="#633e1c"/>
        <path id="Path_104" data-name="Path 104" d="M908.277,4537.372v3.854h-4.89v3.087c0,10.4-7.981,12.841-14.618,13.792l-1.529-3.824c9.694-.946,12.02-4.984,12.02-10v-3.057h-8.808v7.523h-4.1v-7.523h-4.705v-3.854h4.705v-5.288h4.1v5.288h8.808V4532h4.127v5.377Z" transform="translate(-806.639 -4496.36)" fill="#633e1c"/>
        <path id="Path_105" data-name="Path 105" d="M944.714,4542.879v4.247H918.479v-4.247Z" transform="translate(-806.639 -4496.432)" fill="#633e1c"/>
        <path id="Path_106" data-name="Path 106" d="M960.816,4541.44a54.106,54.106,0,0,0,12.936-4.86l1.922,3.789a72.451,72.451,0,0,1-14.858,5.044v5.751c0,1.773.4,1.957,2.9,1.957h7.922a36.828,36.828,0,0,0,6.816-.613l.244,4.158a39.411,39.411,0,0,1-5.96.428h-9.754c-3.331,0-6.328-.518-6.328-4.859v-19.419h4.157Zm14.37-10.581a25.755,25.755,0,0,1,3.117,5.751l-2.321,1.255a25.592,25.592,0,0,0-2.967-5.841Zm4.436-1.314a25.7,25.7,0,0,1,3.087,5.781l-2.325,1.254a25.1,25.1,0,0,0-2.933-5.87Z" transform="translate(-806.639 -4496.36)" fill="#633e1c"/>
        <path id="Path_107" data-name="Path 107" d="M1012.539,4533.369a31.152,31.152,0,0,1-5.472,12.716,94,94,0,0,1,9.933,8.624l-3.426,3.3a95.841,95.841,0,0,0-9.017-8.9,37.005,37.005,0,0,1-11.9,8.837l-2.32-3.4a29.192,29.192,0,0,0,10.82-7.578,28.116,28.116,0,0,0,5.994-9.754H992.02v-3.854Z" transform="translate(-806.639 -4496.36)" fill="#633e1c"/>
      </g>
    </g>
  </g>
</svg>
