<svg xmlns="http://www.w3.org/2000/svg" width="18" height="18" viewBox="0 0 18 18">
  <g id="Group_4" data-name="Group 4" transform="translate(-3 -3)">
    <path id="Path_100" data-name="Path 100" d="M7.532,9.782a.75.75,0,0,1,1.061,0L12,13.189l3.407-3.407a.75.75,0,0,1,1.061,1.061L12.53,14.78a.75.75,0,0,1-1.061,0L7.532,10.843A.75.75,0,0,1,7.532,9.782Z" fill="#569ee3" fill-rule="evenodd"/>
    <path id="Path_101" data-name="Path 101" d="M12,3a.75.75,0,0,1,.75.75v10.5a.75.75,0,0,1-1.5,0V3.75A.75.75,0,0,1,12,3Z" fill="#569ee3" fill-rule="evenodd"/>
    <path id="Path_102" data-name="Path 102" d="M3.75,13.5a.75.75,0,0,1,.75.75V19.5h15V14.25a.75.75,0,0,1,1.5,0V19.5A1.5,1.5,0,0,1,19.5,21H4.5A1.5,1.5,0,0,1,3,19.5V14.25A.75.75,0,0,1,3.75,13.5Z" fill="#569ee3" fill-rule="evenodd"/>
  </g>
</svg>
