<svg xmlns="http://www.w3.org/2000/svg" width="22.495" height="17.988" viewBox="0 0 22.495 17.988">
  <g id="Group_1" data-name="Group 1" transform="translate(-0.752 -3.012)">
    <path id="Path_2" data-name="Path 2" d="M23.184,11.7A13.186,13.186,0,0,0,20.6,8.091,11.968,11.968,0,0,0,12,4.5a12.413,12.413,0,0,0-2.063.169.759.759,0,0,0-.431,1.247L19,16.359a.749.749,0,0,0,.553.244.806.806,0,0,0,.506-.187,13.488,13.488,0,0,0,3.122-4.106.769.769,0,0,0,0-.609Z" fill="#687e95"/>
    <path id="Path_3" data-name="Path 3" d="M5.053,3.244A.75.75,0,0,0,3.947,4.256l1.8,1.978A13.474,13.474,0,0,0,.815,11.7a.769.769,0,0,0,0,.609A13.378,13.378,0,0,0,3.4,15.91,11.967,11.967,0,0,0,12,19.5a11.9,11.9,0,0,0,4.884-1.013l2.063,2.269A.75.75,0,0,0,19.5,21a.768.768,0,0,0,.506-.2.741.741,0,0,0,.047-1.059ZM12,15.375a3.375,3.375,0,0,1-2.766-5.306l4.425,4.866A3.318,3.318,0,0,1,12,15.375Z" fill="#687e95"/>
  </g>
</svg>
