<svg xmlns="http://www.w3.org/2000/svg" width="19" height="18" viewBox="0 0 19 18">
  <g id="Group_3" data-name="Group 3" transform="translate(-2 -4)">
    <path id="Path_93" data-name="Path 93" d="M19.433,14.692h-.765L16.7,10.62a1.072,1.072,0,0,0-.417-.451A1.2,1.2,0,0,0,15.665,10H7.335a1.2,1.2,0,0,0-.617.169,1.072,1.072,0,0,0-.417.451L4.332,14.7H3.567a.592.592,0,0,0-.4.153.493.493,0,0,0,0,.738.592.592,0,0,0,.4.153h.567v5.217a1,1,0,0,0,.332.738,1.185,1.185,0,0,0,.8.306h1.7a1.185,1.185,0,0,0,.8-.306,1,1,0,0,0,.332-.738V19.913h6.8v1.043a1,1,0,0,0,.332.738,1.185,1.185,0,0,0,.8.306h1.7a1.185,1.185,0,0,0,.8-.306,1,1,0,0,0,.332-.738V15.739h.567a.592.592,0,0,0,.4-.153.493.493,0,0,0,0-.738.592.592,0,0,0-.4-.153ZM8.1,17.822H6.967a.593.593,0,0,1-.4-.153.493.493,0,0,1,0-.738.593.593,0,0,1,.4-.153H8.1a.593.593,0,0,1,.4.153.493.493,0,0,1,0,.738A.593.593,0,0,1,8.1,17.822Zm6.8,0a.593.593,0,0,1-.4-.153.493.493,0,0,1,0-.738.593.593,0,0,1,.4-.153h1.133a.592.592,0,0,1,.4.153.493.493,0,0,1,0,.738.592.592,0,0,1-.4.153Z" fill="#569ee3"/>
    <path id="Path_94" data-name="Path 94" d="M2.713,10a.669.669,0,0,1-.448-.175.806.806,0,0,1-.249-.448.867.867,0,0,1,.061-.522.75.75,0,0,1,.343-.364l8.808-4.42a.648.648,0,0,1,.589,0l8.765,4.42a.763.763,0,0,1,.372.442.869.869,0,0,1-.018.6.748.748,0,0,1-.4.413.648.648,0,0,1-.545-.02L11.521,5.646,3.006,9.921A.655.655,0,0,1,2.713,10Z" fill="#569ee3"/>
  </g>
</svg>
