<svg xmlns="http://www.w3.org/2000/svg" width="16" height="19" viewBox="0 0 16 19">
  <path id="Path_99" data-name="Path 99" d="M18.5,3H5.5A1.5,1.5,0,0,0,4,4.5v16A1.5,1.5,0,0,0,5.5,22h8.191a1.491,1.491,0,0,0,1.059-.441l4.809-4.809A1.491,1.491,0,0,0,20,15.691V4.5A1.5,1.5,0,0,0,18.5,3ZM9,8.25h6a.75.75,0,0,1,0,1.5H9a.75.75,0,0,1,0-1.5Zm3,7.5H9a.75.75,0,0,1,0-1.5h3a.75.75,0,0,1,0,1.5Zm-3-3a.75.75,0,0,1,0-1.5h6a.75.75,0,0,1,0,1.5Zm5,7.441V16h4.191Z" transform="translate(-4 -3)" fill="#569ee3"/>
</svg>
