<svg xmlns="http://www.w3.org/2000/svg" width="22.5" height="18.75" viewBox="0 0 22.5 18.75">
  <g id="Group_2" data-name="Group 2" transform="translate(-0.75 -2.25)">
    <path id="Path_85" data-name="Path 85" d="M.75,20.25a.75.75,0,0,1,.75-.75h21a.75.75,0,0,1,0,1.5H1.5A.75.75,0,0,1,.75,20.25Z" fill="#687e95" fill-rule="evenodd"/>
    <path id="Path_86" data-name="Path 86" d="M2.689,2.689A1.5,1.5,0,0,1,3.75,2.25h9a1.5,1.5,0,0,1,1.5,1.5v16.5a.75.75,0,0,1-1.5,0V3.75h-9v16.5a.75.75,0,0,1-1.5,0V3.75A1.5,1.5,0,0,1,2.689,2.689Z" fill="#687e95" fill-rule="evenodd"/>
    <path id="Path_87" data-name="Path 87" d="M12.75,9a.75.75,0,0,1,.75-.75h6.75a1.5,1.5,0,0,1,1.5,1.5v10.5a.75.75,0,0,1-1.5,0V9.75H13.5A.75.75,0,0,1,12.75,9Z" fill="#687e95" fill-rule="evenodd"/>
    <path id="Path_88" data-name="Path 88" d="M5.25,6.75A.75.75,0,0,1,6,6H9A.75.75,0,0,1,9,7.5H6A.75.75,0,0,1,5.25,6.75Z" fill="#687e95" fill-rule="evenodd"/>
    <path id="Path_89" data-name="Path 89" d="M6.75,12.75A.75.75,0,0,1,7.5,12h3a.75.75,0,0,1,0,1.5h-3A.75.75,0,0,1,6.75,12.75Z" fill="#687e95" fill-rule="evenodd"/>
    <path id="Path_90" data-name="Path 90" d="M5.25,16.5A.75.75,0,0,1,6,15.75H9a.75.75,0,0,1,0,1.5H6A.75.75,0,0,1,5.25,16.5Z" fill="#687e95" fill-rule="evenodd"/>
    <path id="Path_91" data-name="Path 91" d="M15.75,16.5a.75.75,0,0,1,.75-.75H18a.75.75,0,0,1,0,1.5H16.5A.75.75,0,0,1,15.75,16.5Z" fill="#687e95" fill-rule="evenodd"/>
    <path id="Path_92" data-name="Path 92" d="M15.75,12.75A.75.75,0,0,1,16.5,12H18a.75.75,0,0,1,0,1.5H16.5A.75.75,0,0,1,15.75,12.75Z" fill="#687e95" fill-rule="evenodd"/>
  </g>
</svg>
