<svg width="310" height="23" viewBox="0 0 310 23" fill="none" xmlns="http://www.w3.org/2000/svg">
<path d="M3.152 21.096C3.088 21.016 3.032 20.936 2.984 20.856C2.936 20.776 2.88 20.696 2.816 20.616C2.528 20.248 2.216 19.888 1.88 19.536C1.8 19.456 1.72 19.384 1.64 19.32C1.56 19.256 1.48 19.184 1.4 19.104C1.064 18.848 1.088 18.64 1.472 18.48C3.152 17.728 4.56 16.76 5.696 15.576C6.832 14.392 7.736 12.944 8.408 11.232C8.52 10.928 8.504 10.688 8.36 10.512C8.216 10.32 7.984 10.232 7.664 10.248L3.44 10.392C3.216 10.408 3.032 10.352 2.888 10.224C2.744 10.08 2.664 9.896 2.648 9.672L2.48 7.632C2.464 7.424 2.512 7.264 2.624 7.152C2.752 7.024 2.92 6.96 3.128 6.96H3.848C5.496 6.96 7.144 6.936 8.792 6.888C9 6.872 9.168 6.808 9.296 6.696C9.44 6.568 9.52 6.4 9.536 6.192C9.616 5.632 9.664 5.072 9.68 4.512C9.696 3.936 9.704 3.368 9.704 2.808C9.704 2.568 9.776 2.376 9.92 2.232C10.064 2.088 10.256 2.016 10.496 2.016L12.632 2.04C12.856 2.04 13.04 2.112 13.184 2.256C13.328 2.4 13.4 2.584 13.4 2.808C13.4 3.08 13.4 3.36 13.4 3.648C13.4 3.92 13.392 4.192 13.376 4.464C13.344 4.704 13.32 4.944 13.304 5.184C13.304 5.424 13.288 5.656 13.256 5.88C13.224 6.152 13.28 6.376 13.424 6.552C13.584 6.712 13.8 6.784 14.072 6.768L16.232 6.696C16.696 6.68 17.128 6.664 17.528 6.648C17.944 6.632 18.32 6.608 18.656 6.576L19.328 6.552C19.776 6.52 20 6.728 20 7.176C19.936 8.488 19.832 9.792 19.688 11.088C19.56 12.384 19.392 13.68 19.184 14.976C19.12 15.36 19.04 15.776 18.944 16.224C18.848 16.656 18.736 17.096 18.608 17.544C18.48 17.976 18.328 18.392 18.152 18.792C17.976 19.192 17.768 19.544 17.528 19.848C17.24 20.2 16.904 20.48 16.52 20.688C16.136 20.896 15.728 21.048 15.296 21.144C14.88 21.256 14.448 21.328 14 21.36C13.552 21.392 13.12 21.408 12.704 21.408C12.528 21.408 12.376 21.352 12.248 21.24C12.136 21.144 12.064 21.008 12.032 20.832C12.016 20.736 12 20.648 11.984 20.568C11.968 20.472 11.944 20.368 11.912 20.256C11.848 20.032 11.776 19.808 11.696 19.584C11.616 19.344 11.536 19.112 11.456 18.888C11.408 18.776 11.36 18.672 11.312 18.576C11.264 18.48 11.216 18.384 11.168 18.288C10.96 17.904 11.072 17.712 11.504 17.712C11.84 17.696 12.144 17.688 12.416 17.688C12.704 17.672 12.96 17.648 13.184 17.616C13.68 17.552 14.08 17.432 14.384 17.256C14.704 17.08 14.952 16.744 15.128 16.248C15.208 16.008 15.288 15.744 15.368 15.456C15.448 15.152 15.528 14.824 15.608 14.472C15.72 13.864 15.816 13.256 15.896 12.648C15.992 12.024 16.072 11.408 16.136 10.8C16.168 10.528 16.112 10.32 15.968 10.176C15.824 10.032 15.616 9.96 15.344 9.96L13.112 10.056C12.936 10.072 12.784 10.128 12.656 10.224C12.528 10.32 12.44 10.456 12.392 10.632C11.704 13.016 10.664 15.104 9.272 16.896C7.896 18.688 6.112 20.168 3.92 21.336C3.824 21.384 3.736 21.408 3.656 21.408C3.448 21.408 3.28 21.304 3.152 21.096ZM25.184 13.248V12.672L25.16 11.28V10.704C25.144 10.528 25.184 10.392 25.28 10.296C25.376 10.2 25.512 10.16 25.688 10.176L26.6 10.2C26.968 10.216 27.384 10.232 27.848 10.248C28.312 10.248 28.816 10.248 29.36 10.248L32.912 10.272H33.872L35.768 10.296H36.728C37.816 10.296 38.896 10.296 39.968 10.296C41.056 10.28 42.144 10.256 43.232 10.224C43.456 10.224 43.656 10.224 43.832 10.224C44.008 10.208 44.168 10.2 44.312 10.2C44.488 10.184 44.624 10.224 44.72 10.32C44.816 10.4 44.856 10.528 44.84 10.704V13.2C44.84 13.376 44.792 13.512 44.696 13.608C44.6 13.704 44.464 13.744 44.288 13.728L43.136 13.68C42.128 13.648 41.12 13.632 40.112 13.632C39.104 13.616 38.096 13.608 37.088 13.608H33.512C32.456 13.608 31.392 13.616 30.32 13.632C29.264 13.632 28.208 13.648 27.152 13.68C26.608 13.696 26.128 13.72 25.712 13.752C25.36 13.784 25.184 13.616 25.184 13.248ZM67.016 5.712C66.68 5.712 66.36 5.648 66.056 5.52C65.768 5.392 65.512 5.224 65.288 5.016C65.08 4.792 64.912 4.536 64.784 4.248C64.656 3.944 64.592 3.624 64.592 3.288C64.592 2.952 64.656 2.64 64.784 2.352C64.912 2.048 65.088 1.792 65.312 1.584C65.536 1.36 65.792 1.192 66.08 1.08C66.368 0.951999 66.68 0.887999 67.016 0.887999C67.688 0.887999 68.256 1.12 68.72 1.584C69.184 2.048 69.416 2.616 69.416 3.288C69.416 3.624 69.352 3.936 69.224 4.224C69.112 4.512 68.944 4.768 68.72 4.992C68.512 5.216 68.256 5.392 67.952 5.52C67.664 5.648 67.352 5.712 67.016 5.712ZM67.016 4.536C67.384 4.536 67.68 4.424 67.904 4.2C68.144 3.96 68.264 3.656 68.264 3.288C68.264 2.92 68.144 2.624 67.904 2.4C67.68 2.16 67.384 2.04 67.016 2.04C66.664 2.04 66.36 2.16 66.104 2.4C65.864 2.64 65.744 2.936 65.744 3.288C65.744 3.64 65.864 3.936 66.104 4.176C66.36 4.416 66.664 4.536 67.016 4.536ZM55.352 20.712C55.288 20.504 55.248 20.32 55.232 20.16C55.168 19.936 55.104 19.72 55.04 19.512C54.992 19.304 54.928 19.088 54.848 18.864C54.784 18.64 54.712 18.448 54.632 18.288C54.472 17.936 54.592 17.744 54.992 17.712C55.216 17.712 55.448 17.696 55.688 17.664C55.944 17.632 56.168 17.576 56.36 17.496C56.568 17.416 56.736 17.288 56.864 17.112C56.992 16.936 57.056 16.704 57.056 16.416V10.92C57.056 10.68 56.984 10.488 56.84 10.344C56.696 10.2 56.504 10.128 56.264 10.128C55.88 10.128 55.496 10.128 55.112 10.128C54.744 10.128 54.376 10.136 54.008 10.152L51.416 10.2C51.256 10.2 51.104 10.208 50.96 10.224C50.832 10.224 50.704 10.224 50.576 10.224C50.336 10.24 50.136 10.176 49.976 10.032C49.832 9.888 49.76 9.696 49.76 9.456V7.728C49.76 7.456 49.832 7.248 49.976 7.104C50.136 6.96 50.352 6.904 50.624 6.936C50.896 6.952 51.192 6.968 51.512 6.984C51.832 6.984 52.184 6.984 52.568 6.984C53.096 7 53.664 7.008 54.272 7.008C54.88 7.008 55.544 7.008 56.264 7.008C56.504 7.008 56.696 6.936 56.84 6.792C56.984 6.648 57.056 6.456 57.056 6.216V3.576C57.056 3.336 57.128 3.144 57.272 3C57.416 2.856 57.608 2.784 57.848 2.784H59.96C60.2 2.784 60.392 2.856 60.536 3C60.68 3.144 60.752 3.336 60.752 3.576V6.216C60.752 6.456 60.824 6.648 60.968 6.792C61.112 6.936 61.304 7.008 61.544 7.008C63.128 7.008 64.448 6.984 65.504 6.936L67.352 6.888C67.608 6.872 67.808 6.936 67.952 7.08C68.096 7.224 68.168 7.424 68.168 7.68V9.432C68.168 9.688 68.088 9.888 67.928 10.032C67.784 10.176 67.584 10.24 67.328 10.224C66.368 10.176 65.4 10.152 64.424 10.152C63.464 10.136 62.504 10.128 61.544 10.128C61.304 10.128 61.112 10.2 60.968 10.344C60.824 10.488 60.752 10.68 60.752 10.92V17.184C60.752 18 60.632 18.664 60.392 19.176C60.152 19.672 59.816 20.064 59.384 20.352C58.968 20.64 58.472 20.848 57.896 20.976C57.32 21.104 56.688 21.192 56 21.24C55.824 21.272 55.68 21.232 55.568 21.12C55.456 21.024 55.384 20.888 55.352 20.712ZM66.176 18.048C65.744 17.312 65.224 16.576 64.616 15.84C64.008 15.104 63.384 14.44 62.744 13.848C62.52 13.64 62.408 13.424 62.408 13.2C62.424 12.976 62.544 12.768 62.768 12.576L63.992 11.616C64.152 11.488 64.32 11.424 64.496 11.424C64.64 11.424 64.792 11.48 64.952 11.592C65.72 12.216 66.44 12.888 67.112 13.608C67.8 14.328 68.448 15.08 69.056 15.864C69.168 16.008 69.2 16.152 69.152 16.296C69.12 16.424 69.024 16.528 68.864 16.608C68.784 16.656 68.696 16.712 68.6 16.776C68.52 16.824 68.44 16.88 68.36 16.944C68.184 17.072 68.008 17.208 67.832 17.352C67.656 17.48 67.48 17.608 67.304 17.736C67.224 17.816 67.144 17.888 67.064 17.952C67 18 66.936 18.064 66.872 18.144C66.76 18.24 66.648 18.288 66.536 18.288C66.408 18.288 66.288 18.208 66.176 18.048ZM50.528 18.24C50.512 18.208 50.496 18.192 50.48 18.192C50.464 18.176 50.448 18.152 50.432 18.12L50.24 17.904C50.064 17.728 49.88 17.56 49.688 17.4C49.512 17.224 49.336 17.048 49.16 16.872C49.08 16.808 49 16.752 48.92 16.704C48.856 16.64 48.792 16.576 48.728 16.512C48.424 16.304 48.424 16.096 48.728 15.888C49.048 15.648 49.384 15.376 49.736 15.072C50.088 14.768 50.424 14.448 50.744 14.112C51.08 13.76 51.392 13.4 51.68 13.032C51.968 12.664 52.216 12.304 52.424 11.952C52.6 11.68 52.824 11.544 53.096 11.544C53.224 11.544 53.368 11.584 53.528 11.664L55.136 12.6C55.328 12.712 55.456 12.864 55.52 13.056C55.584 13.232 55.552 13.416 55.424 13.608C54.912 14.504 54.304 15.352 53.6 16.152C52.896 16.936 52.144 17.664 51.344 18.336C51.216 18.416 51.096 18.456 50.984 18.456C50.808 18.456 50.656 18.384 50.528 18.24ZM73.184 13.248V12.672L73.16 11.28V10.704C73.144 10.528 73.184 10.392 73.28 10.296C73.376 10.2 73.512 10.16 73.688 10.176L74.6 10.2C74.968 10.216 75.384 10.232 75.848 10.248C76.312 10.248 76.816 10.248 77.36 10.248L80.912 10.272H81.872L83.768 10.296H84.728C85.816 10.296 86.896 10.296 87.968 10.296C89.056 10.28 90.144 10.256 91.232 10.224C91.456 10.224 91.656 10.224 91.832 10.224C92.008 10.208 92.168 10.2 92.312 10.2C92.488 10.184 92.624 10.224 92.72 10.32C92.816 10.4 92.856 10.528 92.84 10.704V13.2C92.84 13.376 92.792 13.512 92.696 13.608C92.6 13.704 92.464 13.744 92.288 13.728L91.136 13.68C90.128 13.648 89.12 13.632 88.112 13.632C87.104 13.616 86.096 13.608 85.088 13.608H81.512C80.456 13.608 79.392 13.616 78.32 13.632C77.264 13.632 76.208 13.648 75.152 13.68C74.608 13.696 74.128 13.72 73.712 13.752C73.36 13.784 73.184 13.616 73.184 13.248ZM103.88 21.12V3C103.88 2.76 103.952 2.568 104.096 2.424C104.24 2.28 104.432 2.208 104.672 2.208H106.712C106.952 2.208 107.144 2.28 107.288 2.424C107.432 2.568 107.504 2.76 107.504 3V8.52C107.504 8.856 107.568 9.024 107.696 9.024C107.808 9.024 107.936 8.912 108.08 8.688L108.2 8.52C108.376 8.28 108.584 8.16 108.824 8.16C108.984 8.16 109.144 8.216 109.304 8.328C109.432 8.408 109.568 8.496 109.712 8.592C109.872 8.688 110.04 8.792 110.216 8.904C110.6 9.16 111.008 9.432 111.44 9.72C111.888 9.992 112.344 10.272 112.808 10.56C113.272 10.832 113.736 11.088 114.2 11.328C114.664 11.568 115.112 11.784 115.544 11.976C115.88 12.152 115.928 12.384 115.688 12.672C115.624 12.752 115.56 12.832 115.496 12.912C115.432 12.992 115.368 13.08 115.304 13.176C115.08 13.448 114.872 13.736 114.68 14.04C114.504 14.328 114.328 14.624 114.152 14.928C114.024 15.152 113.848 15.264 113.624 15.264C113.512 15.264 113.4 15.232 113.288 15.168C113.176 15.088 113.056 15.016 112.928 14.952C112.8 14.872 112.664 14.784 112.52 14.688C112.248 14.528 111.968 14.36 111.68 14.184C111.408 14.008 111.12 13.816 110.816 13.608C110.384 13.336 109.952 13.056 109.52 12.768C109.104 12.48 108.688 12.192 108.272 11.904C108.112 11.792 107.976 11.736 107.864 11.736C107.624 11.736 107.504 11.92 107.504 12.288V21.12C107.504 21.36 107.432 21.552 107.288 21.696C107.144 21.84 106.952 21.912 106.712 21.912H104.672C104.432 21.912 104.24 21.84 104.096 21.696C103.952 21.552 103.88 21.36 103.88 21.12ZM125.912 20.64C125.848 20.56 125.784 20.48 125.72 20.4C125.672 20.304 125.616 20.208 125.552 20.112C125.392 19.904 125.232 19.704 125.072 19.512C124.928 19.32 124.768 19.12 124.592 18.912C124.512 18.816 124.432 18.728 124.352 18.648C124.272 18.568 124.192 18.488 124.112 18.408C123.968 18.264 123.904 18.136 123.92 18.024C123.936 17.896 124.04 17.792 124.232 17.712C125.704 17.152 127.064 16.44 128.312 15.576C129.56 14.712 130.672 13.72 131.648 12.6C132.624 11.48 133.44 10.24 134.096 8.88C134.768 7.52 135.256 6.072 135.56 4.536C135.608 4.264 135.72 4.072 135.896 3.96C136.072 3.832 136.296 3.808 136.568 3.888L138.824 4.512C139.032 4.576 139.184 4.688 139.28 4.848C139.392 5.008 139.424 5.2 139.376 5.424C138.544 8.992 137.08 12.088 134.984 14.712C132.904 17.336 130.184 19.408 126.824 20.928C126.728 20.976 126.624 21 126.512 21C126.256 21 126.056 20.88 125.912 20.64ZM125.6 10.32C125.536 10.192 125.464 10.064 125.384 9.936C125.304 9.792 125.224 9.64 125.144 9.48C124.76 8.872 124.352 8.272 123.92 7.68C123.808 7.552 123.704 7.432 123.608 7.32C123.512 7.192 123.408 7.064 123.296 6.936C123.12 6.728 123.04 6.52 123.056 6.312C123.072 6.088 123.2 5.896 123.44 5.736L125.456 4.392C125.616 4.312 125.76 4.272 125.888 4.272C126.096 4.272 126.272 4.344 126.416 4.488C126.496 4.584 126.576 4.68 126.656 4.776C126.736 4.872 126.824 4.976 126.92 5.088C127.336 5.616 127.736 6.152 128.12 6.696C128.52 7.24 128.888 7.808 129.224 8.4C129.32 8.56 129.344 8.728 129.296 8.904C129.264 9.064 129.16 9.192 128.984 9.288L126.752 10.632C126.592 10.728 126.44 10.776 126.296 10.776C126.008 10.776 125.776 10.624 125.6 10.32ZM145.184 13.248V12.672L145.16 11.28V10.704C145.144 10.528 145.184 10.392 145.28 10.296C145.376 10.2 145.512 10.16 145.688 10.176L146.6 10.2C146.968 10.216 147.384 10.232 147.848 10.248C148.312 10.248 148.816 10.248 149.36 10.248L152.912 10.272H153.872L155.768 10.296H156.728C157.816 10.296 158.896 10.296 159.968 10.296C161.056 10.28 162.144 10.256 163.232 10.224C163.456 10.224 163.656 10.224 163.832 10.224C164.008 10.208 164.168 10.2 164.312 10.2C164.488 10.184 164.624 10.224 164.72 10.32C164.816 10.4 164.856 10.528 164.84 10.704V13.2C164.84 13.376 164.792 13.512 164.696 13.608C164.6 13.704 164.464 13.744 164.288 13.728L163.136 13.68C162.128 13.648 161.12 13.632 160.112 13.632C159.104 13.616 158.096 13.608 157.088 13.608H153.512C152.456 13.608 151.392 13.616 150.32 13.632C149.264 13.632 148.208 13.648 147.152 13.68C146.608 13.696 146.128 13.72 145.712 13.752C145.36 13.784 145.184 13.616 145.184 13.248ZM173.264 4.992V3C173.264 2.728 173.344 2.52 173.504 2.376C173.664 2.232 173.88 2.168 174.152 2.184C174.344 2.2 174.544 2.216 174.752 2.232C174.976 2.232 175.224 2.232 175.496 2.232C176.008 2.248 176.568 2.256 177.176 2.256C177.8 2.256 178.496 2.256 179.264 2.256C180 2.256 180.672 2.256 181.28 2.256C181.888 2.24 182.448 2.224 182.96 2.208C183.2 2.192 183.424 2.184 183.632 2.184C183.84 2.184 184.032 2.176 184.208 2.16C184.464 2.144 184.664 2.208 184.808 2.352C184.968 2.496 185.048 2.696 185.048 2.952V4.752C185.048 5.024 184.96 5.24 184.784 5.4C184.624 5.544 184.408 5.608 184.136 5.592C183.976 5.576 183.8 5.568 183.608 5.568C183.432 5.552 183.24 5.544 183.032 5.544C182.568 5.528 182.016 5.52 181.376 5.52C180.752 5.52 180.048 5.52 179.264 5.52H176.792L174.632 5.568C174.504 5.568 174.376 5.576 174.248 5.592C174.136 5.592 174.032 5.592 173.936 5.592C173.488 5.624 173.264 5.424 173.264 4.992ZM173.816 21.864L173.576 21.36C173.464 21.168 173.352 20.976 173.24 20.784C173.144 20.592 173.032 20.4 172.904 20.208C172.792 20.016 172.672 19.848 172.544 19.704C172.32 19.368 172.392 19.152 172.76 19.056C174.776 18.432 176.632 17.536 178.328 16.368C180.024 15.2 181.432 13.704 182.552 11.88C182.776 11.544 182.816 11.272 182.672 11.064C182.544 10.84 182.28 10.744 181.88 10.776L174.392 11.136C173.512 11.184 172.736 11.232 172.064 11.28C171.936 11.296 171.816 11.304 171.704 11.304C171.608 11.304 171.512 11.312 171.416 11.328C171.24 11.36 171.088 11.32 170.96 11.208C170.832 11.096 170.76 10.944 170.744 10.752L170.6 8.568C170.568 8.296 170.624 8.088 170.768 7.944C170.912 7.784 171.12 7.712 171.392 7.728H172.376C173.128 7.76 173.984 7.76 174.944 7.728L177.896 7.656C179.144 7.624 180.376 7.592 181.592 7.56C182.824 7.512 184.056 7.424 185.288 7.296C185.368 7.296 185.448 7.304 185.528 7.32C185.624 7.336 185.712 7.368 185.792 7.416L187.04 8.16C187.2 8.256 187.304 8.384 187.352 8.544C187.416 8.704 187.424 8.872 187.376 9.048C186.368 12.376 184.8 15.112 182.672 17.256C180.544 19.384 177.848 21.024 174.584 22.176C174.232 22.304 173.976 22.2 173.816 21.864ZM193.184 13.248V12.672L193.16 11.28V10.704C193.144 10.528 193.184 10.392 193.28 10.296C193.376 10.2 193.512 10.16 193.688 10.176L194.6 10.2C194.968 10.216 195.384 10.232 195.848 10.248C196.312 10.248 196.816 10.248 197.36 10.248L200.912 10.272H201.872L203.768 10.296H204.728C205.816 10.296 206.896 10.296 207.968 10.296C209.056 10.28 210.144 10.256 211.232 10.224C211.456 10.224 211.656 10.224 211.832 10.224C212.008 10.208 212.168 10.2 212.312 10.2C212.488 10.184 212.624 10.224 212.72 10.32C212.816 10.4 212.856 10.528 212.84 10.704V13.2C212.84 13.376 212.792 13.512 212.696 13.608C212.6 13.704 212.464 13.744 212.288 13.728L211.136 13.68C210.128 13.648 209.12 13.632 208.112 13.632C207.104 13.616 206.096 13.608 205.088 13.608H201.512C200.456 13.608 199.392 13.616 198.32 13.632C197.264 13.632 196.208 13.648 195.152 13.68C194.608 13.696 194.128 13.72 193.712 13.752C193.36 13.784 193.184 13.616 193.184 13.248ZM225.152 8.208C225.072 8.16 224.992 8.104 224.912 8.04C224.832 7.976 224.744 7.912 224.648 7.848C224.44 7.704 224.224 7.56 224 7.416C223.776 7.272 223.552 7.12 223.328 6.96C223.088 6.816 222.848 6.68 222.608 6.552C222.384 6.424 222.16 6.296 221.936 6.168C221.84 6.12 221.744 6.072 221.648 6.024C221.552 5.976 221.464 5.928 221.384 5.88C221.224 5.8 221.12 5.696 221.072 5.568C221.04 5.424 221.072 5.28 221.168 5.136L222.464 3.144C222.656 2.904 222.864 2.784 223.088 2.784C223.2 2.784 223.32 2.824 223.448 2.904C223.8 3.08 224.144 3.272 224.48 3.48C224.816 3.672 225.144 3.88 225.464 4.104L226.784 4.992C226.88 5.072 226.968 5.136 227.048 5.184C227.128 5.232 227.208 5.288 227.288 5.352C227.608 5.592 227.648 5.872 227.408 6.192L225.992 8.112C225.864 8.288 225.72 8.376 225.56 8.376C225.432 8.376 225.296 8.32 225.152 8.208ZM220.88 20.784L219.704 18.648C219.544 18.36 219.512 18.112 219.608 17.904C219.704 17.68 219.912 17.528 220.232 17.448C221.368 17.144 222.536 16.72 223.736 16.176C224.936 15.616 226.112 14.984 227.264 14.28C228.432 13.56 229.544 12.792 230.6 11.976C231.672 11.144 232.64 10.312 233.504 9.48C233.872 9.128 234.208 8.784 234.512 8.448C234.816 8.112 235.088 7.784 235.328 7.464C235.456 7.32 235.56 7.248 235.64 7.248C235.768 7.248 235.864 7.352 235.928 7.56C235.976 7.768 236.048 7.984 236.144 8.208C236.224 8.448 236.304 8.688 236.384 8.928C236.48 9.152 236.584 9.376 236.696 9.6C236.744 9.728 236.792 9.84 236.84 9.936C236.904 10.032 236.96 10.128 237.008 10.224C237.168 10.544 237.144 10.848 236.936 11.136C236.04 12.208 235 13.248 233.816 14.256C232.632 15.264 231.376 16.208 230.048 17.088C228.72 17.952 227.352 18.736 225.944 19.44C224.536 20.128 223.16 20.696 221.816 21.144C221.4 21.304 221.088 21.184 220.88 20.784ZM221.504 13.152C221.296 13.024 221.056 12.88 220.784 12.72C220.48 12.56 220.176 12.408 219.872 12.264C219.584 12.104 219.28 11.952 218.96 11.808C218.8 11.728 218.648 11.664 218.504 11.616C218.376 11.552 218.248 11.496 218.12 11.448C217.864 11.336 217.696 11.184 217.616 10.992C217.552 10.784 217.592 10.56 217.736 10.32L218.768 8.472C218.864 8.296 219 8.184 219.176 8.136C219.368 8.072 219.552 8.08 219.728 8.16C220.384 8.432 221.016 8.736 221.624 9.072C222.248 9.392 222.864 9.736 223.472 10.104C223.68 10.232 223.8 10.392 223.832 10.584C223.88 10.776 223.84 10.968 223.712 11.16L222.608 12.936C222.448 13.176 222.24 13.296 221.984 13.296C221.84 13.296 221.68 13.248 221.504 13.152ZM242.96 20.424C242.784 20.12 242.592 19.824 242.384 19.536C242.176 19.248 241.952 18.968 241.712 18.696C241.312 18.248 241.376 17.888 241.904 17.616C242.912 17.12 243.912 16.544 244.904 15.888C245.896 15.216 246.84 14.488 247.736 13.704C248.648 12.92 249.504 12.08 250.304 11.184C251.104 10.288 251.816 9.368 252.44 8.424C252.664 8.104 252.712 7.848 252.584 7.656C252.472 7.448 252.224 7.36 251.84 7.392L250.52 7.464C250.056 7.496 249.6 7.528 249.152 7.56C248.704 7.592 248.256 7.624 247.808 7.656L244.616 7.896C244.392 7.928 244.2 7.88 244.04 7.752C243.896 7.608 243.808 7.424 243.776 7.2L243.536 5.088C243.488 4.528 243.76 4.232 244.352 4.2C247.52 4.2 250.672 4.056 253.808 3.768C254.128 3.736 254.408 3.712 254.648 3.696C254.904 3.664 255.128 3.632 255.32 3.6C255.528 3.568 255.72 3.608 255.896 3.72L257.528 4.776C257.672 4.872 257.776 5.008 257.84 5.184C257.904 5.344 257.896 5.512 257.816 5.688C257.096 7.56 256.16 9.312 255.008 10.944C254.88 11.136 254.832 11.336 254.864 11.544C254.896 11.736 255 11.904 255.176 12.048C256.136 12.816 257.072 13.624 257.984 14.472C258.912 15.304 259.784 16.176 260.6 17.088C260.776 17.28 260.848 17.48 260.816 17.688C260.784 17.896 260.664 18.08 260.456 18.24C260.152 18.448 259.864 18.688 259.592 18.96C259.448 19.088 259.312 19.216 259.184 19.344C259.056 19.456 258.928 19.576 258.8 19.704C258.608 19.912 258.408 20.016 258.2 20.016C257.96 20.016 257.744 19.888 257.552 19.632C256.8 18.768 256.04 17.928 255.272 17.112C254.52 16.28 253.72 15.48 252.872 14.712C252.728 14.584 252.56 14.52 252.368 14.52C252.144 14.52 251.952 14.6 251.792 14.76C250.64 15.944 249.408 17.032 248.096 18.024C246.8 19.016 245.424 19.904 243.968 20.688C243.856 20.752 243.728 20.784 243.584 20.784C243.344 20.784 243.136 20.664 242.96 20.424ZM268.784 5.496L268.664 3.384C268.632 2.952 268.84 2.736 269.288 2.736C269.384 2.736 269.488 2.736 269.6 2.736C269.712 2.736 269.832 2.728 269.96 2.712L272.192 2.688C272.624 2.688 273.064 2.688 273.512 2.688C273.96 2.672 274.416 2.656 274.88 2.64L277.544 2.592C278.392 2.56 279.136 2.536 279.776 2.52L280.4 2.496C280.592 2.48 280.744 2.536 280.856 2.664C280.984 2.776 281.056 2.928 281.072 3.12L281.096 5.28C281.112 5.488 281.056 5.648 280.928 5.76C280.816 5.872 280.656 5.928 280.448 5.928H277.592L272.432 6.024L270.224 6.096C270.096 6.112 269.968 6.12 269.84 6.12C269.728 6.12 269.624 6.128 269.528 6.144C269.32 6.16 269.144 6.112 269 6C268.872 5.872 268.8 5.704 268.784 5.496ZM269.288 21.912C269.112 21.624 268.92 21.344 268.712 21.072C268.52 20.8 268.312 20.536 268.088 20.28C268.008 20.2 267.936 20.128 267.872 20.064C267.808 19.984 267.744 19.904 267.68 19.824C267.408 19.552 267.448 19.336 267.8 19.176C268.584 18.856 269.288 18.496 269.912 18.096C270.552 17.696 271.104 17.24 271.568 16.728C272.048 16.2 272.44 15.608 272.744 14.952C273.048 14.296 273.272 13.552 273.416 12.72C273.464 12.448 273.416 12.24 273.272 12.096C273.144 11.936 272.944 11.864 272.672 11.88C272.224 11.88 271.784 11.88 271.352 11.88C270.936 11.88 270.52 11.888 270.104 11.904L267.248 11.976L266.312 12.024C266.088 12.04 265.896 11.976 265.736 11.832C265.592 11.688 265.512 11.504 265.496 11.28L265.4 9.312C265.368 8.832 265.6 8.592 266.096 8.592H269.576L273.008 8.568C273.616 8.568 274.232 8.568 274.856 8.568C275.48 8.552 276.104 8.536 276.728 8.52L280.184 8.472C281.24 8.456 282.16 8.432 282.944 8.4L283.688 8.352C283.912 8.352 284.096 8.424 284.24 8.568C284.384 8.696 284.456 8.872 284.456 9.096L284.504 11.088C284.504 11.312 284.44 11.488 284.312 11.616C284.184 11.728 284.008 11.784 283.784 11.784H280.688C280.224 11.784 279.736 11.784 279.224 11.784C278.728 11.784 278.216 11.792 277.688 11.808H277.376C277.296 11.808 277.256 11.848 277.256 11.928C277.048 14.392 276.36 16.448 275.192 18.096C274.024 19.728 272.344 21.088 270.152 22.176C270.056 22.224 269.952 22.248 269.84 22.248C269.616 22.248 269.432 22.136 269.288 21.912ZM305.6 19.488C305.472 19.28 305.344 19.064 305.216 18.84C305.088 18.616 304.952 18.384 304.808 18.144C304.616 17.856 304.36 17.736 304.04 17.784L302.624 17.952L293.936 19.152L291.368 19.536C291.176 19.568 290.992 19.6 290.816 19.632C290.64 19.648 290.48 19.672 290.336 19.704C290.112 19.736 289.92 19.704 289.76 19.608C289.6 19.496 289.488 19.328 289.424 19.104L288.8 16.752C288.704 16.304 288.88 16.064 289.328 16.032C289.44 16.032 289.552 16.032 289.664 16.032C289.792 16.016 289.92 16 290.048 15.984L291.752 15.84C292.04 15.84 292.248 15.704 292.376 15.432C293.016 14.152 293.6 12.856 294.128 11.544C294.672 10.232 295.2 8.904 295.712 7.56C296.096 6.568 296.432 5.656 296.72 4.824C296.8 4.6 296.872 4.392 296.936 4.2C297 3.992 297.064 3.8 297.128 3.624C297.288 3.128 297.616 2.944 298.112 3.072L300.584 3.768C300.824 3.832 300.984 3.952 301.064 4.128C301.144 4.288 301.128 4.48 301.016 4.704C300.952 4.816 300.888 4.936 300.824 5.064C300.776 5.192 300.72 5.32 300.656 5.448C300.352 6.072 300.008 6.808 299.624 7.656L296.648 14.208C296.472 14.576 296.456 14.864 296.6 15.072C296.744 15.264 297.016 15.344 297.416 15.312C297.784 15.264 298.136 15.224 298.472 15.192C298.824 15.144 299.184 15.104 299.552 15.072C299.904 15.04 300.24 15 300.56 14.952C300.896 14.904 301.224 14.864 301.544 14.832C301.832 14.8 302.008 14.696 302.072 14.52C302.152 14.344 302.104 14.144 301.928 13.92C301.752 13.68 301.568 13.448 301.376 13.224C301.2 12.984 301 12.752 300.776 12.528C300.616 12.352 300.544 12.176 300.56 12C300.576 11.808 300.688 11.648 300.896 11.52L302.432 10.512C302.528 10.432 302.664 10.392 302.84 10.392C303.048 10.392 303.216 10.456 303.344 10.584C304.448 11.56 305.448 12.64 306.344 13.824C307.256 14.992 308.096 16.2 308.864 17.448C309.008 17.672 309.04 17.888 308.96 18.096C308.896 18.304 308.752 18.472 308.528 18.6C307.936 18.904 307.36 19.288 306.8 19.752C306.624 19.88 306.44 19.944 306.248 19.944C305.976 19.944 305.76 19.792 305.6 19.488Z" fill="black"/>
</svg>
