<?xml version="1.0" encoding="UTF-8"?>
<svg id="_レイヤー_1" data-name="レイヤー 1" xmlns="http://www.w3.org/2000/svg" viewBox="0 0 1668 185.5">
  <defs>
    <style>
      .cls-1 {
        fill: #898989;
      }

      .cls-1, .cls-2, .cls-3, .cls-4, .cls-5, .cls-6, .cls-7, .cls-8, .cls-9, .cls-10, .cls-11, .cls-12, .cls-13, .cls-14, .cls-15 {
        stroke-width: 0px;
      }

      .cls-2 {
        fill: #5a5757;
      }

      .cls-3 {
        fill: #443f3e;
      }

      .cls-4 {
        fill: #c9c9ca;
      }

      .cls-5 {
        fill: #dff2fb;
      }

      .cls-6 {
        fill: #c8cad5;
      }

      .cls-7 {
        fill: #dd9b05;
      }

      .cls-8 {
        fill: #ac7804;
      }

      .cls-9 {
        fill: #9e9e9f;
      }

      .cls-10 {
        fill: #c1dbe8;
      }

      .cls-11 {
        fill: #333;
      }

      .cls-12 {
        fill: #fdfefe;
      }

      .cls-13 {
        fill: #686666;
      }

      .cls-14 {
        fill: #fff;
      }

      .cls-15 {
        fill: #f6ac06;
      }
    </style>
  </defs>
  <g>
    <path class="cls-5" d="m124.29,99.37c-.61.09-1.22.19-1.82-.06.61-.02,1.21,0,1.82.06Z"/>
    <path class="cls-1" d="m41.98,131.16c-.47.38-1.04.62-1.47,1.05-.04,0-.08,0-.12.03-1.81,1.15-3.48,2.45-4.74,4.23-.18.26-.32.56-.6.74,0-.12,0-.24,0-.36-.1-5.89-.07-11.77-.15-17.66-.07-4.81-.03-9.63-.12-14.44-.09-4.67-.03-9.35-.12-14.02-.09-4.83-.03-9.67-.12-14.5-.09-4.63-.03-9.27-.12-13.9-.07-3.52-.06-7.04-.09-10.56,0-.55,0-.55-.54-.65-4.21-.8-8.41-1.61-12.62-2.41-3.08-.59-6.15-1.18-9.22-1.77-3.1-.59-6.19-1.17-9.29-1.76.03-.32.33-.33.53-.43,2.49-1.16,5.01-2.26,7.55-3.3,4.24-1.74,8.52-3.37,12.85-4.9,2.65-.94,5.3-1.85,7.97-2.72,2-.65,3.99-1.32,5.99-1.94,3.82-1.17,7.64-2.33,11.49-3.41,3.32-.93,6.65-1.85,9.99-2.71,6.11-1.57,12.24-3.09,18.41-4.43,2.85-.62,5.7-1.28,8.57-1.86,4.46-.9,8.93-1.8,13.41-2.61,2.66-.48,5.31-.96,7.97-1.42,1.61-.28,3.21-.56,4.82-.83,1.31-.22,2.62-.42,3.94-.63,1.23-.19,2.47-.37,3.7-.56,1.15-.18,2.31-.36,3.46-.53,1.13-.17,2.27-.33,3.41-.5,1.24.44,2.48.84,3.73,1.23,2.14.67,4.25,1.41,6.38,2.09,2.94.93,5.86,1.92,8.79,2.88,1.97.65,3.95,1.29,5.92,1.94.2.07.44.08.58.28-.27-.06-.43.05-.48.32-.04.2-.08.39-.13.59-.24,1.04-.49,2.08-.73,3.12-.05.23-.14.39-.42.43-2.36.3-4.71.68-7.05,1.07-3.02.5-6.04,1.07-9.04,1.65-4.42.85-8.81,1.8-13.2,2.78-4.39.98-8.77,2-13.14,3.08-3.94.98-7.87,1.97-11.79,2.99-3.67.96-7.34,1.94-10.99,2.95-4.42,1.22-8.82,2.47-13.22,3.78-4.2,1.25-8.39,2.54-12.56,3.88-4.27,1.38-8.51,2.85-12.7,4.43-1.57.59-3.13,1.2-4.66,1.88-.88.4-.73.29-.72,1.11.04,3.07,0,6.15.09,9.22.13,4.51,0,9.02.12,13.53.12,4.71,0,9.42.13,14.14.12,4.39,0,8.78.12,13.17.13,4.71,0,9.42.12,14.14.09,3.8.04,7.61.05,11.41,0,.24-.06.49.1.7Zm23.18-90.24c.77-.22,1.55-.44,2.32-.66,4.25-1.19,8.5-2.39,12.76-3.55,3.89-1.05,7.8-2.05,11.69-3.07.16-.04.31-.09.44-.19.87-.07,1.68-.38,2.52-.56,3.01-.74,6.02-1.48,9.04-2.2,4.19-1,8.4-1.93,12.61-2.87,1.26-.28,2.51-.55,3.77-.83.68-.14,1.36-.27,2.04-.41,8.72-1.84,17.47-3.48,26.29-4.97-.14-.19-.28-.2-.42-.24-1.46-.48-2.92-.95-4.38-1.43-2.92-.96-5.83-1.91-8.75-2.87-2.47-.82-4.95-1.64-7.42-2.46-.9-.3-1.77-.56-2.76-.38-1.78.34-3.58.56-5.37.84-1.93.29-3.87.57-5.79.89-2.86.47-5.72.94-8.58,1.45-3.1.55-6.19,1.11-9.27,1.71-2.89.56-5.76,1.18-8.65,1.76-4.37.87-8.71,1.86-13.05,2.88-2.87.67-5.73,1.37-8.58,2.1-4.93,1.25-9.84,2.58-14.72,3.98-3.96,1.14-7.9,2.33-11.82,3.6-5.67,1.83-11.3,3.79-16.86,5.93-3.71,1.43-7.39,2.96-11.02,4.59-.53.24-1.05.51-1.62.79.25.12.44.17.63.21.93.17,1.86.34,2.79.52,2.65.51,5.3,1.03,7.95,1.54,2.81.54,5.62,1.07,8.43,1.61,1.94.38,3.87.78,5.81,1.14.34.06.7.17,1.07.03.51-.19,1.04-.33,1.56-.5,4.14-1.38,8.3-2.69,12.47-3.95,3.61-1.1,7.23-2.16,10.84-3.25.57-.17,1.17-.27,1.72-.55.79-.13,1.53-.4,2.3-.62Z"/>
    <path class="cls-1" d="m122.09,94.13c-.87.14-1.75.06-2.63.05-.06-4.33,0-8.65-.11-12.98-.09-3.78-.04-7.57-.05-11.35,0-.22.02-.45-.03-.66-.05-.24.03-.37.22-.5.69-.43,1.35-.89,2.04-1.3,2.93-1.72,5.99-3.2,9.1-4.58,4-1.76,8.07-3.32,12.19-4.76,4.12-1.44,8.28-2.73,12.48-3.94,6.58-1.89,13.21-3.57,19.86-5.17,4.14-.99,8.29-1.92,12.46-2.76,1.94-.39,3.88-.77,5.82-1.12,1.78-.32,3.58-.62,5.37-.91,1.29-.21,2.59-.38,3.89-.56.84-.12,1.68-.23,2.52-.31.56-.05,1.12-.17,1.68-.08.58.09,1.14.27,1.71.4.11.03.19.07.21.18-.15.05-.3.13-.46.15-1.24.16-2.46.41-3.69.61-2.17.36-4.32.78-6.48,1.19-1.72.33-3.44.67-5.16,1.03-.82.17-1.66.28-2.46.58-.86.07-1.7.28-2.53.51-.06,0-.12-.01-.18,0-4.06.87-8.1,1.8-12.14,2.74-1.98.46-3.96.93-5.94,1.42-.52.13-1.07.17-1.54.46-.88.07-1.71.34-2.55.59-.12.02-.24.02-.36.05-1.15.3-2.3.6-3.45.89-4.36,1.11-8.67,2.38-12.94,3.8-1.15.38-2.31.71-3.42,1.19-.66.15-1.27.44-1.91.65-2.38.89-4.75,1.82-7.09,2.81-3.28,1.39-6.48,2.94-9.6,4.64-.1.05-.25.07-.21.23,1.09.22,2.18.44,3.26.65,2.51.48,5.03.96,7.54,1.45,1.66.32,3.32.65,4.99.97.36.07.71.05,1.06-.12.79-.37,1.59-.7,2.39-1.04,3.55-1.53,7.16-2.88,10.8-4.14,4.77-1.65,9.58-3.19,14.43-4.59,3.61-1.04,7.22-2.03,10.86-2.96,2.6-.66,5.21-1.29,7.82-1.91,1.96-.47,3.93-.92,5.9-1.34,2.7-.58,5.41-1.13,8.11-1.68,1.72-.35,3.44-.68,5.16-1,1.76-.33,3.53-.64,5.29-.95,1.77-.31,3.54-.6,5.31-.89,1.43-.24,2.86-.47,4.3-.69,1.47-.23,2.95-.42,4.42-.66.42-.07.87-.02,1.29-.25-.19-.15-.37-.18-.54-.23-2.65-.87-5.3-1.74-7.94-2.61-3.22-1.06-6.45-2.12-9.67-3.18-.51-.17-.51-.16-.81.32-.19.3-.3.66-.61.88-1.01-.08-1.94-.46-2.97-.66.22-.98.43-1.92.65-2.85.07-.3.15-.59-.06-.86h0c.23-.03.44.04.65.11.88.29,1.77.56,2.65.85,2.19.71,4.37,1.43,6.56,2.14,2.01.66,4.02,1.32,6.04,1.97,2.17.7,4.32,1.45,6.5,2.13,2.04.63,4.07,1.33,6.1,1.99.19.06.4.09.53.27-.65.22-1.34.24-2.02.35-2.57.41-5.15.8-7.73,1.19-3.69.56-7.37,1.21-11.05,1.88-4.08.74-8.14,1.53-12.19,2.37-6.61,1.37-13.18,2.87-19.73,4.53-5.95,1.51-11.87,3.15-17.74,4.96-6.44,1.98-12.81,4.12-19.07,6.61-1.15.45-2.28.93-3.41,1.43-.36.16-.69.17-1.05.1-2.14-.41-4.29-.82-6.43-1.23-3.71-.71-7.42-1.42-11.13-2.13-.34-.06-.63-.02-.92.17-.67.46-1.34.9-2.02,1.34-.28.18-.39.41-.38.75.03,2.33,0,4.65.05,6.98.09,3.86.06,7.73.11,11.59.02,1.6.05,3.2.08,4.79Z"/>
    <path class="cls-4" d="m126.7,12.39c-1.14.17-2.27.33-3.41.5-1.16.17-2.31.35-3.46.53-1.23.19-2.47.37-3.7.56-1.31.2-2.63.41-3.94.63-1.61.27-3.22.55-4.82.83-2.66.46-5.31.94-7.97,1.42-4.48.81-8.94,1.71-13.41,2.61-2.86.58-5.71,1.24-8.57,1.86-6.17,1.35-12.29,2.86-18.41,4.43-3.34.86-6.66,1.78-9.99,2.71-3.85,1.08-7.67,2.23-11.49,3.41-2.01.62-4,1.29-5.99,1.94-2.67.87-5.32,1.78-7.97,2.72-4.32,1.53-8.6,3.16-12.85,4.9-2.54,1.04-5.06,2.14-7.55,3.3-.2.09-.5.1-.53.43-.19,0-.25-.1-.25-.27,0-.97,0-1.94,0-2.91,0-.25.15-.35.34-.44,1.02-.48,2.04-.99,3.07-1.44,1.79-.78,3.59-1.55,5.4-2.3,1.68-.69,3.38-1.34,5.07-2,3.21-1.26,6.46-2.43,9.72-3.56,3.01-1.04,6.03-2.07,9.08-3,1.68-.51,3.35-1.06,5.02-1.58,2.58-.8,5.17-1.56,7.78-2.29,2.82-.78,5.62-1.59,8.45-2.35,2.76-.74,5.54-1.43,8.32-2.12,2.21-.55,4.42-1.09,6.64-1.61,3.61-.85,7.22-1.65,10.85-2.43,3.19-.69,6.38-1.34,9.58-1.99,2.21-.45,4.43-.84,6.64-1.26,1.92-.36,3.84-.72,5.76-1.06,1.78-.31,3.57-.59,5.36-.89,1.82-.31,3.65-.64,5.47-.93,1.45-.23,2.91-.43,4.36-.65,1.45-.22,2.9-.46,4.35-.68.91-.14,1.83-.27,2.75-.39.11-.02.25-.04.33.09-.01,1.1-.02,2.19-.03,3.29Z"/>
    <path class="cls-13" d="m126.7,12.39c.01-1.1.02-2.19.03-3.29.31-.01.6.09.88.18,9.54,3.12,19.09,6.24,28.63,9.36,12.62,4.12,25.23,8.25,37.85,12.37,14.08,4.6,28.15,9.2,42.23,13.8.1.03.19.08.29.1.28.05.4.2.39.51-.02.89,0,1.78,0,2.67,0,.18.03.39-.26.36-.13-.18-.34-.21-.53-.27-2.03-.67-4.05-1.36-6.1-1.99-2.18-.67-4.33-1.43-6.5-2.13-2.02-.65-4.03-1.32-6.04-1.97-2.19-.71-4.37-1.43-6.56-2.14-.88-.29-1.77-.56-2.65-.85-.21-.07-.42-.14-.65-.11-.13-.19-.33-.21-.52-.27-.83-.27-1.65-.53-2.48-.8-2.21-.72-4.41-1.44-6.62-2.16-2.01-.66-4.03-1.32-6.04-1.97-2.19-.71-4.37-1.43-6.56-2.14-2.03-.66-4.05-1.37-6.1-2-2.18-.67-4.32-1.45-6.5-2.12-2.04-.64-4.07-1.33-6.1-1.99-2.17-.7-4.32-1.45-6.5-2.13-2.52-.79-5.02-1.65-7.54-2.46-.16-.05-.36-.26-.55-.03-.03-.03-.07-.07-.1-.1-.14-.2-.38-.21-.58-.28-1.97-.65-3.95-1.29-5.92-1.94-2.93-.96-5.85-1.96-8.79-2.88-2.13-.67-4.25-1.42-6.38-2.09-1.25-.39-2.5-.79-3.73-1.23Z"/>
    <path class="cls-1" d="m42.45,171.61c-1.45-.16-2.89-.33-4.34-.47-.76-.07-1.51-.12-2.26-.24-.46-.07-.5-.12-.51-.58-.02-.79-.02-1.58-.03-2.37,0-.73.01-1.47.02-2.2,1.03.14,2.06.28,3.09.43.64.1,1.3.1,1.93.29.03.14.05.28.09.41.45,1.34,1.02,2.63,1.79,3.82.19.29.29.57.21.91Z"/>
    <path class="cls-14" d="m113.26,94.35c-.88.16-1.77.14-2.66.2-3.81.27-7.61.69-11.37,1.38-4.62.85-9.15,2.04-13.38,4.15-3.4,1.7-6.51,3.84-9.48,6.19-5.04,3.99-9.64,8.44-13.9,13.25-.22.25-.46.44-.75.59-5.26,2.63-10.42,5.45-15.48,8.45-.19.11-.37.25-.59.3-.07-3.94-.03-7.89-.11-11.83-.09-4.45-.03-8.9-.12-13.35-.09-4.43-.03-8.86-.12-13.29-.09-4.63-.03-9.26-.13-13.9-.08-4.25-.02-8.5-.12-12.74-.05-2.35-.02-4.69-.06-7.04,0-.41.12-.62.49-.78,1.23-.53,2.44-1.08,3.66-1.63.35-.16.69-.16,1.06-.09,3.27.63,6.55,1.26,9.82,1.88,4.56.87,9.13,1.73,13.69,2.6,3.95.75,7.9,1.51,11.84,2.26,3.75.72,7.5,1.43,11.25,2.15,2.42.46,4.84.92,7.26,1.38,2.82.53,5.64,1.07,8.45,1.61.48.09.48.1.48.59.03,2.49.06,4.98.09,7.46.05,4.19.01,8.37.11,12.56.06,2.55.03,5.1.05,7.65Z"/>
    <path class="cls-1" d="m113.26,94.35c-.01-2.55.01-5.1-.05-7.65-.09-4.19-.06-8.37-.11-12.56-.03-2.49-.06-4.98-.09-7.46,0-.49,0-.5-.48-.59-2.82-.54-5.64-1.07-8.45-1.61-2.42-.46-4.84-.92-7.26-1.38-3.75-.71-7.5-1.43-11.25-2.15-3.95-.75-7.9-1.51-11.84-2.26-4.56-.87-9.13-1.73-13.69-2.6-3.27-.62-6.55-1.25-9.82-1.88-.37-.07-.71-.07-1.06.09-1.21.55-2.43,1.1-3.66,1.63-.37.16-.5.36-.49.78.04,2.35,0,4.69.06,7.04.1,4.25.03,8.5.12,12.74.09,4.63.04,9.27.13,13.9.09,4.43.03,8.86.12,13.29.09,4.45.03,8.9.12,13.35.08,3.94.04,7.89.11,11.83-.71.57-1.53.96-2.29,1.46-.25.16-.52.3-.78.45-.03-.58-.08-1.17-.09-1.75-.07-4.57.02-9.14-.11-13.71-.13-4.55,0-9.1-.12-13.65-.12-4.57,0-9.14-.12-13.71-.13-4.57,0-9.14-.12-13.71-.13-4.57.04-9.14-.13-13.71-.07-1.84,0-3.68-.04-5.52,0-.38.1-.57.46-.72,2.2-.97,4.45-1.82,6.71-2.64,4.5-1.64,9.04-3.16,13.61-4.6,4.95-1.56,9.92-3.05,14.91-4.48,4.81-1.38,9.64-2.72,14.47-4,4.86-1.29,9.72-2.54,14.6-3.75,5.03-1.25,10.08-2.42,15.14-3.57,2.3-.52,4.61-1.01,6.92-1.48,2.77-.57,5.53-1.12,8.31-1.66,1.42-.28,2.86-.53,4.29-.78,1.81-.31,3.62-.62,5.43-.92,1.17-.19,2.35-.38,3.53-.51,1.22-.14,2.34.33,3.47.67-.07.13-.19.13-.31.16-2.02.39-4.03.76-6.04,1.16-2.7.54-5.4,1.08-8.1,1.64-1.3.27-2.59.57-3.89.86-.76.16-1.52.32-2.29.48-.14.03-.27.06-.41.09-4.28.9-8.54,1.89-12.8,2.86-3.03.69-6.04,1.42-9.06,2.14-.8.19-1.6.39-2.4.59-.68.15-1.37.3-2.04.51-.28.05-.56.09-.83.16-8.38,2.07-16.75,4.16-25.05,6.53-.17.05-.43.01-.49.28-.07,0-.14,0-.21.01-.14-.1-.28-.09-.4.04-.69.19-1.39.34-2.05.62-.15-.02-.28.03-.41.07-2.78.85-5.57,1.66-8.34,2.55-4.93,1.57-9.82,3.23-14.65,5.08-.47.18-.97.33-1.47.64.73.19,1.41.29,2.08.42,2.14.4,4.27.82,6.41,1.23,3.15.6,6.29,1.21,9.44,1.81,3.17.61,6.33,1.21,9.5,1.83,2.29.45,4.59.9,6.88,1.33,3.17.59,6.33,1.21,9.5,1.82,3.15.61,6.29,1.21,9.44,1.82,2.73.53,5.46,1.05,8.19,1.59.23.05.42.04.64-.06,2.51-1.17,5.03-2.31,7.58-3.38,2.9-1.23,5.83-2.39,8.77-3.52.49-.19,1.01-.29,1.44-.6.76-.16,1.45-.47,2.17-.75,3.5-1.22,7-2.44,10.53-3.56,3.03-.96,6.08-1.87,9.14-2.74.1-.03.2-.04.26-.14.85-.15,1.7-.32,2.48-.71.2.03.4-.02.59-.07.68-.19,1.36-.36,2.04-.54,5.07-1.3,10.15-2.53,15.26-3.67.74-.17,1.51-.24,2.21-.55.88-.06,1.72-.27,2.57-.51.77-.15,1.54-.29,2.31-.45,2.29-.46,4.58-.94,6.88-1.36,2.4-.44,4.79-.88,7.2-1.27,2.21-.36,4.41-.73,6.62-1.07.39-.06.83-.01,1.27-.28-.24-.08-.41-.15-.58-.2-2.72-.89-5.45-1.79-8.17-2.68-2.82-.93-5.64-1.85-8.46-2.78-2.74-.9-5.49-1.8-8.23-2.7-2.92-.96-5.83-1.92-8.75-2.88-2.91-.96-5.83-1.92-8.74-2.88-1.4-.46-2.8-.92-4.2-1.38-.19-.06-.4-.19-.54.05-.39.68-.92,1.28-1.16,2.05-.23-.13-.48-.19-.74-.25-.8-.19-1.6-.39-2.39-.59-.55-.14-.57-.18-.44-.74.24-1.01.48-2.03.72-3.04.06-.24.09-.47.05-.71.19-.23.39-.03.55.03,2.52.81,5.02,1.67,7.54,2.46,2.18.68,4.33,1.43,6.5,2.13,2.04.66,4.06,1.35,6.1,1.99,2.18.68,4.32,1.45,6.5,2.12,2.04.63,4.06,1.34,6.1,2,2.19.71,4.37,1.43,6.56,2.14,2.01.66,4.03,1.32,6.04,1.97,2.21.72,4.41,1.44,6.62,2.16.82.27,1.65.54,2.48.8.19.06.4.09.52.27,0,0,0,0,0,0-.26,0-.32.19-.37.4-.2.89-.41,1.77-.61,2.65-.12.53-.11.54-.63.62-1.22.18-2.44.25-3.66.44-1.75.27-3.52.47-5.26.78-2.74.47-5.48.97-8.2,1.52-4.96.99-9.9,2.08-14.82,3.27-4.33,1.05-8.66,2.14-12.97,3.28-4.92,1.31-9.8,2.73-14.64,4.3-3.07.99-6.12,2.08-9.14,3.24-5.05,1.92-10,4.06-14.73,6.66-1.19.65-2.35,1.35-3.47,2.11-.39.27-.5.56-.49,1.01.03,1.7.09,3.39.09,5.09,0,6.55.15,13.1.16,19.65,0,.06,0,.12,0,.18-1.91,0-3.81.19-5.71.16Z"/>
    <path class="cls-3" d="m153.69,26.57c-1.13-.34-2.25-.81-3.47-.67-1.18.13-2.36.32-3.53.51-1.81.29-3.62.6-5.43.92-1.43.25-2.86.5-4.29.78-2.77.54-5.54,1.09-8.31,1.66-2.31.48-4.62.96-6.92,1.48-5.06,1.14-10.11,2.32-15.14,3.57-4.88,1.21-9.74,2.46-14.6,3.75-4.84,1.29-9.66,2.62-14.47,4-4.99,1.43-9.96,2.92-14.91,4.48-4.57,1.44-9.11,2.96-13.61,4.6-2.26.82-4.51,1.67-6.71,2.64-.35.16-.46.34-.46.72.03,1.84-.03,3.68.04,5.52.16,4.57,0,9.14.13,13.71.13,4.57,0,9.14.12,13.71.13,4.57,0,9.14.12,13.71.12,4.55,0,9.1.12,13.65.13,4.57.04,9.14.11,13.71,0,.58.06,1.17.09,1.75-.17.18-.37.31-.59.39-.16-.22-.1-.47-.1-.7-.02-3.8.04-7.61-.05-11.41-.12-4.71,0-9.43-.12-14.14-.12-4.39,0-8.78-.12-13.17-.13-4.71,0-9.43-.13-14.14-.12-4.51,0-9.02-.12-13.53-.09-3.07-.05-6.15-.09-9.22-.01-.82-.16-.71.72-1.11,1.53-.69,3.09-1.29,4.66-1.88,4.2-1.58,8.43-3.05,12.7-4.43,4.17-1.35,8.36-2.63,12.56-3.88,4.39-1.3,8.8-2.56,13.22-3.78,3.66-1.01,7.32-1.99,10.99-2.95,3.93-1.02,7.86-2.01,11.79-2.99,4.37-1.08,8.75-2.1,13.14-3.08,4.39-.98,8.79-1.92,13.2-2.78,3.01-.58,6.02-1.15,9.04-1.65,2.35-.38,4.69-.77,7.05-1.07.28-.04.37-.19.42-.43.24-1.04.49-2.08.73-3.12.05-.2.09-.39.13-.59.05-.27.21-.38.48-.32.03.03.07.07.1.1.05.24.01.48-.05.71-.25,1.01-.48,2.03-.72,3.04-.13.57-.11.61.44.74.8.2,1.6.39,2.39.59.25.06.51.12.74.25.05.44-.02.53-.39.46-.31-.06-.61-.14-.93-.15Z"/>
    <path class="cls-3" d="m118.97,94.19c0-.06,0-.12,0-.18-.01-6.55-.15-13.1-.16-19.65,0-1.7-.05-3.39-.09-5.09,0-.45.1-.74.49-1.01,1.12-.76,2.28-1.46,3.47-2.11,4.74-2.61,9.69-4.74,14.73-6.66,3.02-1.15,6.06-2.24,9.14-3.24,4.84-1.56,9.72-2.99,14.64-4.3,4.31-1.14,8.63-2.24,12.97-3.28,4.92-1.19,9.86-2.28,14.82-3.27,2.73-.54,5.46-1.04,8.2-1.52,1.75-.3,3.51-.5,5.26-.78,1.22-.19,2.44-.26,3.66-.44.52-.08.52-.09.63-.62.2-.89.41-1.77.61-2.65.05-.21.1-.4.37-.4.21.28.13.57.06.86-.22.93-.43,1.87-.65,2.85,1.03.2,1.96.58,2.97.66.18.51.12.59-.36.51-.1-.02-.2-.04-.3-.06-.12-.12-.26-.11-.4-.04-.07,0-.13.01-.2.02-.03-.11-.11-.16-.21-.18-.57-.14-1.13-.32-1.71-.4-.56-.08-1.12.03-1.68.08-.84.08-1.68.2-2.52.31-1.3.18-2.6.35-3.89.56-1.79.29-3.58.58-5.37.91-1.94.35-3.88.73-5.82,1.12-4.17.85-8.33,1.77-12.46,2.76-6.65,1.6-13.28,3.27-19.86,5.17-4.19,1.21-8.36,2.5-12.48,3.94-4.12,1.44-8.19,3-12.19,4.76-3.11,1.37-6.16,2.86-9.1,4.58-.7.41-1.36.87-2.04,1.3-.2.12-.28.25-.22.5.05.21.03.44.03.66.01,3.78-.04,7.57.05,11.35.1,4.33.05,8.66.11,12.98-.16.04-.33.04-.49,0Z"/>
    <path class="cls-6" d="m62.86,41.54c-.54.27-1.14.37-1.72.55-3.61,1.09-7.23,2.16-10.84,3.25-4.17,1.27-8.33,2.57-12.47,3.95-.52.17-1.05.31-1.56.5-.37.14-.72.03-1.07-.03-1.94-.37-3.87-.77-5.81-1.14-2.81-.54-5.62-1.07-8.43-1.61-2.65-.51-5.3-1.03-7.95-1.54-.93-.18-1.86-.36-2.79-.52-.2-.04-.38-.08-.63-.21.57-.28,1.09-.55,1.62-.79,3.63-1.63,7.3-3.16,11.02-4.59,5.56-2.14,11.19-4.1,16.86-5.93,3.92-1.26,7.86-2.46,11.82-3.6,4.89-1.41,9.79-2.73,14.72-3.98,2.85-.73,5.71-1.43,8.58-2.1,4.34-1.02,8.68-2,13.05-2.88,2.89-.58,5.76-1.2,8.65-1.76,3.09-.6,6.18-1.16,9.27-1.71,2.86-.51,5.72-.98,8.58-1.45,1.93-.32,3.86-.59,5.79-.89,1.79-.27,3.59-.5,5.37-.84.99-.19,1.87.08,2.76.38,2.47.82,4.95,1.64,7.42,2.46,2.92.96,5.83,1.92,8.75,2.87,1.46.48,2.92.96,4.38,1.43.13.04.28.06.42.24-8.82,1.49-17.58,3.13-26.29,4.97-.04-.31-.33-.27-.51-.33-1.94-.61-3.89-1.2-5.84-1.8-1.95-.6-3.89-1.21-5.83-1.81-2.97-.91-5.94-1.82-8.9-2.73-.85-.26-1.69-.53-2.55-.76-.33-.09-.59.09-.7.41-.09.26,0,.49.28.65.12.07.25.13.39.17,3.29,1.01,6.59,2.01,9.89,3.02,3.08.95,6.16,1.92,9.25,2.85.83.25,1.64.57,2.49.72-1.26.27-2.51.55-3.77.83-4.21.93-8.41,1.87-12.61,2.87-3.02.72-6.03,1.46-9.04,2.2-.06-.11-.16-.17-.28-.21-1.09-.28-2.18-.57-3.27-.86-2.33-.63-4.67-1.25-7-1.88-2.76-.75-5.52-1.49-8.28-2.24-2-.54-4-1.09-6.01-1.62-.48-.13-.96-.31-1.47-.33-.3,0-.51.12-.59.41-.08.3.05.55.36.68.22.09.46.16.69.23,4.34,1.17,8.68,2.33,13.02,3.49,3.13.84,6.27,1.68,9.39,2.53.31.09.68.08.93.36-.13.11-.28.15-.44.19-3.9,1.02-7.8,2.02-11.69,3.07-4.26,1.15-8.51,2.36-12.76,3.55-.78.22-1.55.44-2.32.66-.07-.18-.22-.2-.39-.24-.65-.14-1.3-.28-1.94-.43-2.14-.49-4.28-.99-6.42-1.48-3.71-.84-7.43-1.67-11.14-2.51-2.34-.53-4.67-1.07-7.01-1.6-.17-.04-.36-.04-.54-.04-.23,0-.38.15-.45.35-.07.22-.04.44.15.61.17.15.38.21.6.26,2.3.52,4.59,1.05,6.89,1.57,3.28.74,6.56,1.48,9.84,2.22,2.14.48,4.29.95,6.42,1.46.56.13,1.14.21,1.68.45Z"/>
    <path class="cls-12" d="m62.86,41.54c-.53-.24-1.12-.31-1.68-.45-2.14-.51-4.28-.98-6.42-1.46-3.28-.74-6.56-1.47-9.84-2.22-2.3-.52-4.59-1.05-6.89-1.57-.22-.05-.43-.11-.6-.26-.19-.17-.22-.39-.15-.61.07-.2.22-.34.45-.35.18,0,.37,0,.54.04,2.34.53,4.67,1.07,7.01,1.6,3.71.84,7.43,1.67,11.14,2.51,2.14.49,4.28.99,6.42,1.48.65.15,1.3.3,1.94.43.17.03.32.06.39.24-.76.21-1.51.49-2.3.62Z"/>
    <path class="cls-12" d="m92.38,33.45c-.24-.28-.61-.28-.93-.36-3.13-.86-6.26-1.69-9.39-2.53-4.34-1.16-8.68-2.33-13.02-3.49-.23-.06-.47-.14-.69-.23-.32-.13-.45-.38-.36-.68.08-.29.29-.42.59-.41.51.02.99.2,1.47.33,2.01.53,4.01,1.08,6.01,1.62,2.76.75,5.52,1.5,8.28,2.24,2.33.63,4.67,1.26,7,1.88,1.09.29,2.18.58,3.27.86.13.03.22.09.28.21-.84.18-1.65.49-2.52.56Z"/>
    <path class="cls-12" d="m120.31,26.99c-.86-.16-1.67-.47-2.49-.72-3.09-.94-6.16-1.91-9.25-2.85-3.29-1.01-6.59-2.01-9.89-3.02-.13-.04-.27-.1-.39-.17-.28-.17-.38-.39-.28-.65.11-.32.37-.5.7-.41.85.24,1.7.5,2.55.76,2.97.91,5.94,1.81,8.9,2.73,1.95.6,3.89,1.21,5.83,1.81,1.94.6,3.89,1.19,5.84,1.8.19.06.47.02.51.33-.68.14-1.36.27-2.04.41Z"/>
    <path class="cls-6" d="m209.43,43.81c.1.02.2.04.3.06.48.08.54,0,.36-.51.31-.22.42-.58.61-.88.3-.48.29-.49.81-.32,3.22,1.06,6.45,2.12,9.67,3.18,2.65.87,5.3,1.74,7.94,2.61.17.06.35.09.54.23-.42.23-.87.19-1.29.25-1.47.24-2.95.43-4.42.66-1.43.22-2.86.45-4.3.69-1.77.29-3.54.58-5.31.89-1.77.31-3.53.62-5.29.95-1.72.32-3.45.65-5.16,1-2.71.55-5.41,1.1-8.11,1.68-1.97.42-3.94.87-5.9,1.34-2.61.62-5.22,1.25-7.82,1.91-3.64.92-7.26,1.91-10.86,2.96-4.85,1.4-9.66,2.94-14.43,4.59-3.64,1.26-7.26,2.62-10.8,4.14-.8.34-1.6.67-2.39,1.04-.35.17-.7.19-1.06.12-1.66-.32-3.32-.65-4.99-.97-2.51-.48-5.03-.96-7.54-1.45-1.09-.21-2.17-.43-3.26-.65-.04-.16.11-.18.21-.23,3.12-1.71,6.33-3.25,9.6-4.64,2.34-1,4.71-1.92,7.09-2.81,0,.15.11.19.24.22,1.06.24,2.12.49,3.18.73,3.02.69,6.05,1.37,9.07,2.06,1.16.26,2.32.52,3.48.78.47.1.77-.13.77-.58,0-.31-.13-.47-.52-.56-1.33-.31-2.67-.62-4-.92-1.71-.39-3.42-.76-5.13-1.16-1.73-.4-3.45-.81-5.18-1.21,1.11-.48,2.28-.81,3.42-1.19,4.27-1.42,8.58-2.69,12.94-3.8,1.15-.29,2.3-.6,3.45-.89.12-.03.24-.03.36-.05,1.11.42,2.28.64,3.42.96,1.84.52,3.7,1.01,5.54,1.51,2.14.58,4.28,1.16,6.42,1.73.17.05.36.04.54.03.22-.02.37-.16.43-.37.06-.2.04-.4-.13-.56-.13-.13-.3-.21-.47-.26-.89-.25-1.79-.49-2.68-.73-3.37-.9-6.74-1.8-10.11-2.7-.16-.04-.31-.08-.42-.22.47-.29,1.02-.33,1.54-.46,1.97-.49,3.96-.96,5.94-1.42,4.04-.94,8.08-1.88,12.14-2.74.06-.01.12,0,.18,0,1.2.46,2.45.79,3.68,1.17,3.08.96,6.16,1.91,9.24,2.86.54.17,1.08.34,1.62.5.38.11.69-.05.82-.41.11-.29-.02-.53-.39-.71-.09-.04-.18-.09-.28-.12-3.81-1.17-7.63-2.33-11.44-3.5-.24-.07-.52-.09-.71-.3.79-.3,1.64-.4,2.46-.58,1.71-.36,3.43-.7,5.16-1.03,2.16-.41,4.31-.83,6.48-1.19,1.23-.21,2.46-.45,3.69-.61.16-.02.3-.1.46-.15.07,0,.13-.01.2-.02.13.07.26.07.4.04Z"/>
    <path class="cls-12" d="m145.54,59.01c1.73.4,3.45.81,5.18,1.21,1.71.39,3.42.77,5.13,1.16,1.34.3,2.67.61,4,.92.38.09.52.25.52.56,0,.44-.3.68-.77.58-1.16-.25-2.32-.51-3.48-.78-3.02-.68-6.05-1.37-9.07-2.06-1.06-.24-2.12-.49-3.18-.73-.13-.03-.23-.06-.24-.22.64-.2,1.25-.5,1.91-.65Z"/>
    <path class="cls-12" d="m168.26,52.48c.11.14.27.17.42.22,3.37.9,6.74,1.8,10.11,2.7.9.24,1.79.48,2.68.73.18.05.34.12.47.26.16.16.18.36.13.56-.06.21-.21.35-.43.37-.18.01-.37.02-.54-.03-2.14-.57-4.28-1.15-6.42-1.73-1.85-.5-3.7-.99-5.54-1.51-1.14-.32-2.31-.55-3.42-.96.83-.26,1.67-.52,2.55-.59Z"/>
    <path class="cls-12" d="m190.59,47.34c.19.21.46.23.71.3,3.81,1.17,7.63,2.34,11.44,3.5.1.03.19.07.28.12.37.18.49.42.39.71-.13.35-.44.52-.82.41-.54-.16-1.08-.33-1.62-.5-3.08-.95-6.16-1.91-9.24-2.86-1.23-.38-2.47-.71-3.68-1.17.83-.23,1.67-.44,2.53-.51Z"/>
    <path class="cls-6" d="m132.32,57.33c-.43.31-.96.41-1.44.6-2.94,1.13-5.87,2.29-8.77,3.52-2.55,1.08-5.07,2.21-7.58,3.38-.21.1-.4.1-.64.06-2.73-.54-5.46-1.07-8.19-1.59-3.15-.61-6.29-1.21-9.44-1.82-3.17-.61-6.33-1.23-9.5-1.82-2.3-.43-4.59-.87-6.88-1.33-3.16-.62-6.33-1.22-9.5-1.83-3.15-.6-6.29-1.21-9.44-1.81-2.14-.41-4.27-.83-6.41-1.23-.67-.12-1.35-.23-2.08-.42.49-.32.99-.46,1.47-.64,4.83-1.85,9.73-3.51,14.65-5.08,2.77-.88,5.56-1.7,8.34-2.55.14-.04.27-.1.41-.07.21.17.49.18.73.23,3.02.69,6.05,1.38,9.07,2.06,3.3.75,6.6,1.48,9.9,2.23,1.77.4,3.54.8,5.3,1.2.65.15,1.3.32,2.1.52-1.05.38-1.96.7-2.87,1.03-1.53.57-3.07,1.13-4.59,1.72-2.97,1.15-5.92,2.37-8.83,3.69-.53.24-1.06.51-1.58.78-.38.2-.51.6-.34.91.15.26.49.33.85.16.66-.31,1.32-.62,1.97-.93,1.66-.79,3.36-1.49,5.06-2.19,1.74-.71,3.49-1.38,5.24-2.05,2.28-.87,4.58-1.68,6.89-2.49.28-.1.55-.13.83-.06,1.14.25,2.28.52,3.42.78,2.14.49,4.28.99,6.42,1.48,3.18.72,6.37,1.43,9.55,2.14,1.38.31,2.76.6,4.12.94.58.15,1.2.16,1.73.47Z"/>
    <path class="cls-6" d="m153.69,26.57c.32.01.62.09.93.15.37.07.43-.03.39-.46.24-.77.78-1.36,1.16-2.05.14-.24.35-.11.54-.05,1.4.46,2.8.92,4.2,1.38,2.91.96,5.83,1.92,8.74,2.88,2.91.96,5.83,1.92,8.75,2.88,2.74.9,5.49,1.8,8.23,2.7,2.82.93,5.64,1.85,8.46,2.78,2.72.89,5.45,1.79,8.17,2.68.17.06.34.12.58.2-.44.27-.87.22-1.27.28-2.21.34-4.41.71-6.62,1.07-2.41.39-4.8.83-7.2,1.27-2.3.42-4.58.91-6.88,1.36-.77.15-1.54.3-2.31.45-.24-.21-.55-.25-.83-.33-1.95-.61-3.9-1.19-5.84-1.79-1.74-.53-3.47-1.08-5.2-1.61-2.78-.85-5.56-1.7-8.33-2.55-.1-.03-.26-.01-.25-.19.01-.02.02-.04.04-.04,3.18-.62,6.36-1.25,9.54-1.87,1.66-.32,3.33-.6,4.99-.9,1.54-.27,3.09-.54,4.64-.81.65-.12,1.31-.22,1.96-.37.38-.09.54-.37.46-.66-.09-.35-.41-.54-.79-.48-.42.07-.83.14-1.25.21-1.96.35-3.92.7-5.88,1.05-2.34.42-4.68.82-7.01,1.27-3.02.58-6.04,1.19-9.06,1.81-.26.05-.47.03-.7-.04-.85-.27-1.69-.54-2.54-.81-3.03-.93-6.05-1.86-9.08-2.79-1.41-.43-2.82-.85-4.23-1.29-1.62-.5-3.23-1.02-4.84-1.53,1.3-.29,2.59-.59,3.89-.86,2.7-.56,5.4-1.1,8.1-1.64,2.01-.4,4.03-.78,6.04-1.16.12-.02.24-.03.31-.16Z"/>
    <path class="cls-6" d="m79.98,44.03c.07-.26.32-.23.49-.28,8.3-2.37,16.67-4.46,25.05-6.53.27-.07.55-.11.83-.16,1.38.5,2.82.8,4.24,1.19,2.33.65,4.67,1.25,7.01,1.88,2.74.74,5.48,1.5,8.23,2.24,1.12.3,2.24.59,3.44.91-.16.08-.22.14-.3.16-2.61.69-5.21,1.43-7.8,2.19-2.95.85-5.88,1.75-8.8,2.67-1.73.55-3.45,1.14-5.18,1.72-.29.1-.57.19-.89.11-3.08-.71-6.16-1.42-9.25-2.11-2.08-.47-4.17-.93-6.25-1.4-3.54-.8-7.07-1.61-10.6-2.41-.11-.02-.19-.07-.22-.18Z"/>
    <path class="cls-12" d="m79.98,44.03c.04.11.12.15.22.18,3.53.8,7.07,1.61,10.6,2.41,2.08.47,4.17.93,6.25,1.4,3.08.7,6.16,1.41,9.25,2.11.32.07.6-.02.89-.11,1.72-.57,3.44-1.17,5.18-1.72,2.92-.92,5.86-1.82,8.8-2.67,2.59-.75,5.19-1.49,7.8-2.19.07-.02.14-.07.3-.16-1.21-.32-2.33-.61-3.44-.91-2.74-.74-5.48-1.5-8.23-2.24-2.33-.63-4.68-1.23-7.01-1.88-1.41-.4-2.85-.69-4.24-1.19.67-.22,1.35-.36,2.04-.51.41-.02.8.08,1.19.18,4.07,1.1,8.13,2.2,12.2,3.3,3.13.84,6.27,1.68,9.4,2.53.36.1.71.1,1.07,0,.97-.26,1.95-.52,2.92-.76,3.11-.76,6.22-1.52,9.34-2.25,2.86-.67,5.73-1.3,8.6-1.94.21-.05.48,0,.65-.2-.08-.13-.18-.14-.28-.16-1.08-.34-2.16-.67-3.24-1-3.37-1.03-6.75-2.06-10.12-3.09-2.14-.66-4.28-1.31-6.42-1.98-.22-.07-.48-.09-.65-.3.76-.16,1.52-.32,2.29-.48,1.61.51,3.22,1.03,4.84,1.53,1.41.44,2.82.85,4.23,1.29,3.03.93,6.06,1.86,9.08,2.79.85.26,1.69.53,2.54.81.23.07.45.09.7.04,3.02-.62,6.03-1.23,9.06-1.81,2.33-.45,4.67-.85,7.01-1.27,1.96-.35,3.92-.7,5.88-1.05.42-.07.83-.14,1.25-.21.38-.06.7.13.79.48.08.29-.08.57-.46.66-.64.15-1.3.26-1.96.37-1.54.27-3.09.54-4.64.81-1.66.29-3.33.58-4.99.9-3.18.61-6.36,1.24-9.54,1.87-.01,0-.02.03-.04.04,0,.17.16.16.25.19,2.78.85,5.56,1.7,8.33,2.55,1.74.53,3.47,1.08,5.2,1.61,1.95.6,3.9,1.19,5.84,1.79.28.09.6.12.83.33-.84.23-1.69.44-2.57.51-.11-.21-.34-.2-.52-.26-.73-.24-1.46-.47-2.19-.69-3.51-1.08-7.02-2.15-10.53-3.22-2.01-.61-4.03-1.18-6.01-1.87-.99-.35-1.88-.3-2.87-.09-3.96.84-7.91,1.73-11.85,2.65-2.28.53-4.54,1.1-6.81,1.67-.63.16-1.28.26-1.94.54.24.2.49.23.71.29,1.89.5,3.78,1,5.66,1.51,2.74.74,5.48,1.5,8.22,2.24,2.06.56,4.12,1.13,6.19,1.66.6.15,1.18.41,1.82.42-.78.39-1.63.56-2.48.71-.09-.14-.25-.14-.38-.17-2.02-.55-4.04-1.1-6.07-1.64-2.33-.63-4.67-1.25-7.01-1.88-2.98-.8-5.95-1.6-8.93-2.41-.29-.08-.55-.08-.82.03-.17.06-.35.1-.52.14-2.12.58-4.24,1.15-6.35,1.74-2.12.59-4.22,1.23-6.32,1.86-2.88.86-5.74,1.77-8.6,2.71-.11.04-.24.06-.32.2.16.05.3.11.45.14,1.06.24,2.12.47,3.18.71,1.61.37,3.22.74,4.83,1.11,3.2.72,6.4,1.44,9.6,2.16,1.71.38,3.42.74,5.12,1.16.74.18,1.5.27,2.21.57-.71.28-1.41.6-2.17.75-.53-.31-1.15-.32-1.73-.47-1.37-.35-2.75-.64-4.12-.94-3.18-.71-6.37-1.42-9.55-2.14-2.14-.48-4.28-.99-6.42-1.48-1.14-.26-2.28-.52-3.42-.78-.28-.06-.55-.03-.83.06-2.31.8-4.61,1.61-6.89,2.49-1.75.67-3.51,1.34-5.24,2.05-1.7.69-3.4,1.4-5.06,2.19-.66.31-1.31.62-1.97.93-.36.17-.7.1-.85-.16-.17-.31-.04-.71.34-.91.52-.27,1.04-.54,1.58-.78,2.9-1.32,5.85-2.54,8.83-3.69,1.52-.59,3.06-1.15,4.59-1.72.91-.33,1.82-.65,2.87-1.03-.79-.2-1.44-.37-2.1-.52-1.77-.41-3.53-.8-5.3-1.2-3.3-.74-6.6-1.48-9.9-2.23-3.03-.68-6.05-1.37-9.07-2.06-.25-.06-.52-.06-.73-.23.66-.28,1.36-.44,2.05-.62.14.02.27.02.4-.04.07,0,.14,0,.21-.01Z"/>
    <path class="cls-6" d="m134.48,56.58c-.71-.3-1.47-.39-2.21-.57-1.7-.42-3.42-.77-5.12-1.16-3.2-.72-6.4-1.44-9.6-2.16-1.61-.36-3.22-.74-4.83-1.11-1.06-.24-2.12-.47-3.18-.71-.15-.03-.3-.09-.45-.14.08-.15.21-.17.32-.2,2.85-.94,5.72-1.85,8.6-2.71,2.11-.63,4.21-1.27,6.32-1.86,2.12-.59,4.24-1.16,6.35-1.74.17-.05.36-.08.52-.14.27-.1.53-.11.82-.03,2.97.81,5.95,1.61,8.93,2.41,2.33.63,4.67,1.25,7.01,1.88,2.02.54,4.05,1.09,6.07,1.64.13.04.29.04.38.17-.06.1-.16.11-.26.14-3.06.87-6.11,1.78-9.14,2.74-3.54,1.11-7.03,2.34-10.53,3.56Z"/>
    <path class="cls-6" d="m133.06,30.87c.16.21.42.23.65.3,2.14.67,4.28,1.33,6.42,1.98,3.37,1.03,6.75,2.06,10.12,3.09,1.08.33,2.16.67,3.24,1,.09.03.2.04.28.16-.17.2-.44.15-.65.2-2.87.63-5.74,1.27-8.6,1.94-3.12.73-6.23,1.49-9.34,2.25-.98.24-1.95.5-2.92.76-.36.1-.71.1-1.07,0-3.13-.85-6.27-1.68-9.4-2.53-4.07-1.1-8.13-2.2-12.2-3.3-.39-.11-.78-.21-1.19-.18.8-.2,1.6-.4,2.4-.59,3.02-.72,6.04-1.45,9.06-2.14,4.26-.97,8.52-1.96,12.8-2.86.14-.03.27-.06.41-.09Z"/>
    <path class="cls-6" d="m156.89,49.44c-.64,0-1.22-.27-1.82-.42-2.07-.53-4.13-1.1-6.19-1.66-2.74-.74-5.48-1.5-8.22-2.24-1.89-.51-3.78-1.01-5.66-1.51-.23-.06-.47-.08-.71-.29.66-.28,1.31-.38,1.94-.54,2.27-.57,4.53-1.14,6.81-1.67,3.94-.92,7.89-1.81,11.85-2.65.99-.21,1.88-.26,2.87.09,1.98.7,4,1.26,6.01,1.87,3.51,1.08,7.02,2.15,10.53,3.22.73.22,1.47.45,2.19.69.18.06.41.05.52.26-.7.32-1.47.39-2.21.56-5.11,1.14-10.19,2.37-15.26,3.67-.68.17-1.36.35-2.04.54-.2.05-.39.1-.59.07Z"/>
    <path class="cls-6" d="m79.77,44.04c-.13.06-.26.06-.4.04.12-.13.26-.13.4-.04Z"/>
    <path class="cls-1" d="m209.43,43.81c-.14.03-.27.03-.4-.04.14-.07.28-.08.4.04Z"/>
    <path class="cls-15" d="m31.42,165.15c-1.14-.23-2.27-.46-3.41-.69-.64-.13-1.26-.31-1.87-.53-.48-.17-.76-.48-.92-.96-.3-.94-.43-1.9-.54-2.87-.44-3.86-.47-7.74-.45-11.63.01-2.16.12-4.32.27-6.48.22-3.32,1.49-6.2,3.46-8.82.32-.43.64-.86,1.04-1.22.65.36,1.29.73,1.95,1.08,1.1.59,2.21,1.18,3.33,1.74.62.31,1.27.45,1.95.2.73-.26,1.18-.8,1.48-1.48.4-.91.48-1.88.44-2.86-.05-1.21-.11-2.41-.2-3.61-.16-2.01-.29-4.03-.55-6.03.49-.5,1.15-.77,1.69-1.2.26-.1.49-.24.68-.45.3-.17.61-.33.9-.52.87-.57,1.82-1.02,2.64-1.68.26-.05.46-.22.68-.34,5.83-3.44,11.76-6.69,17.81-9.72.34-.17.62-.4.87-.68,4.9-5.53,10.19-10.66,15.99-15.25,3.42-2.7,7-5.17,10.9-7.12,4.87-2.44,10.07-3.8,15.39-4.78,4.33-.79,8.69-1.28,13.08-1.58,1.02-.07,2.05-.04,3.06-.23,2.19.03,4.38-.18,6.57-.18.19.04.38.04.57,0,1.01,0,2.02.1,3.03-.06,1.61.03,3.21.07,4.82.08,4.35.03,8.7.24,13.04.48,3.23.18,6.45.41,9.67.7,5.16.46,10.31,1.1,15.43,1.89,9.26,1.44,18.42,3.37,27.41,6.05,2.69.8,5.37,1.67,7.96,2.78.53.23,1.05.5,1.57.75.36.17.54.44.64.84,1,4.21,2.03,8.41,3.02,12.61.72,3.05,1.46,6.11,2.02,9.19.95,5.24,1.9,10.48,2.83,15.72.29,1.65.43,3.32.48,4.99.1,3.47.15,6.93.12,10.4-.01,1.54-.11,3.07-.26,4.6-.09.89-.44,1.59-1.16,2.13-.85.64-1.7,1.3-2.65,1.8.07-2.3.16-4.6-.1-6.9-.33-2.88-.95-5.68-2.19-8.32-.67-1.42-1.51-2.72-2.71-3.77-1.9-1.65-4.15-1.67-6.08-.07-.83.69-1.49,1.53-2.05,2.45-.96,1.56-1.6,3.25-2.07,5.01-.89,3.35-1.2,6.76-1.02,10.23.15,2.76.6,5.45,1.45,8.07.2.6.2.61-.44.78-1.15.31-2.34.39-3.51.57-2.32.34-4.65.67-6.97,1-.19,0-.37,0-.56.03-1.93.26-3.86.54-5.8.8-2.14.3-4.28.59-6.42.88-2.55.35-5.11.71-7.66,1.05-2.26.31-4.51.6-6.77.9-2.33.31-4.65.62-6.98.93-2,.27-4.01.53-6.01.79-1.36.17-2.72.32-4.08.48,0-.07,0-.14,0-.21.89-3.85,1.21-7.75.99-11.71-.13-2.23-.4-4.45-.89-6.63-.62-2.73-1.51-5.37-3.01-7.77-.86-1.37-1.87-2.61-3.28-3.47-1.86-1.13-3.73-1.15-5.61-.05-1.23.72-2.16,1.75-2.96,2.91-1.32,1.92-2.2,4.04-2.86,6.26-.83,2.8-1.26,5.66-1.44,8.58-.19,3.01-.03,6,.41,8.97.24,1.64.62,3.24,1.08,4.83.13.45.12.46-.33.51-.95.1-1.9.2-2.84.3-3.65.39-7.3.83-10.99.83-1.42-.04-2.83-.1-4.25-.12-4.86-.08-9.72-.25-14.57-.43-3.32-.13-6.64-.26-9.97-.41-3.88-.17-7.76-.35-11.63-.57-2.11-.12-4.23-.22-6.34-.33-.95-.05-1.9-.16-2.85-.2-1.39-.05-2.78-.25-4.18-.21-.99-.17-1.99-.16-2.99-.25-1.41-.12-2.83-.2-4.24-.33-2.39-.21-4.77-.43-7.16-.66-1.99-.2-3.98-.44-5.97-.63-1.09-.11-2.16-.31-3.26-.35-.71-.22-1.46-.23-2.18-.34-1.16-.18-2.33-.33-3.5-.49Zm120.66-51.54h0c.66.01,1.31-.05,1.96-.19.42-.04.83-.08,1.25-.13,2.07-.26,4.14-.52,6.22-.78,2.35-.3,4.7-.59,7.04-.89,2.69-.35,5.38-.71,8.07-1.07,1.26-.17,2.53-.36,3.79-.55.96-.04,1.92-.16,2.85-.41.21-.01.42-.01.63-.05,3.38-.52,6.75-1.03,10.11-1.65,2.81-.52,5.62-1.06,8.37-1.83.4-.07.79-.16,1.14-.38.4-.05.74-.25,1.11-.38.7-.25,1-.73,1-1.48,0-1.31-.13-2.6-.32-3.89-.24-1.66-.53-3.3-.98-4.92-.12-.45-.27-.89-.62-1.22-1.56-1.46-3.37-2.52-5.35-3.33-.45-.25-.92-.47-1.42-.62-.25-.12-.5-.25-.76-.35-3.14-1.18-6.38-1.97-9.68-2.53-2.38-.41-4.78-.71-7.18-.93-1.2-.11-2.4-.27-3.61-.21-.98-.18-1.96-.11-2.94-.13-.16-.03-.32-.08-.48-.08-3.02-.07-6.04,0-9.05.39-1.82.23-3.46.87-4.84,2.11-.38.34-.78.66-1.16,1-3.53,3.22-6.69,6.78-9.78,10.42-.29.34-.42.71-.4,1.15.04,1.21.17,2.41.44,3.59-.65.05-1.29-.03-1.94.14-.38.1-.7.24-.89.59-.14.24-.29.47-.42.72-.86,1.58-1.41,3.28-1.91,4.99-.29,1-.48,2.02-.7,3.04-.11.5,0,.61.53.74.43.11.87.11,1.31.13.58.03,1.16-.14,1.73-.13.73.02,1.43-.15,2.14-.19.43-.03.87-.08,1.31-.15.89-.14,1.78-.28,2.67-.41.25-.05.53.1.76-.11Zm-66.48,19.68c.53-.42,1.2-.29,1.8-.38,1.3-.21,2.62-.29,3.92-.49.43-.07.88-.04,1.3-.22.25-.11.4-.24.36-.52-.04-.26-.21-.41-.46-.46-.16-.03-.32.01-.48.04-.85.13-1.69.27-2.54.35-.97.09-1.93.23-2.9.33-1.31.14-2.63.24-3.93.39-.72.08-1.43.09-2.15.16-1.22.11-2.44.25-3.67.26-.21,0-.42-.02-.63.01-1.49.26-3.01.19-4.51.22-3.72.08-7.44.14-11.15-.07-1.18-.07-2.36-.15-3.54-.2-.6-.02-1.21-.04-1.8-.13-1.53-.23-3.08-.29-4.62-.52-1.58-.24-3.17-.35-4.75-.6-1.94-.32-3.89-.56-5.8-1.06-.15-.04-.32-.03-.49-.03-.23,0-.42.07-.47.32-.05.23.04.41.22.54.21.15.47.2.72.25.63.13,1.27.27,1.91.38,1,.17,2,.4,3.01.47,0,.15.08.26.17.38.54.73,1.09,1.45,1.63,2.18.58.77,1.35,1.26,2.26,1.57.93.31,1.87.56,2.83.75,2.97.59,5.98.82,9,1.01,1.09.07,2.19.08,3.27.16,2.35.17,4.7.16,7.04.17,1.83,0,3.67-.02,5.51-.21,1.48-.15,2.86-.53,4.11-1.39,1.66-1.15,3.29-2.35,4.84-3.65Zm48.18-50.08c-.7-.08-1.39-.09-2.09-.07-.28-.08-.56-.11-.84-.07-.09-.01-.18-.04-.28-.04-3-.09-6-.23-9-.27-6.84-.1-13.69-.13-20.52.27-1.86.11-3.71.26-5.57.44-.85.08-1.7.16-2.52.5-3.15,1.31-6.11,2.96-8.92,4.87-7.33,4.98-13.69,11.02-19.55,17.63-.12.13-.29.24-.26.45.11.14.26.1.39.11,2.04.18,4.08.36,6.12.52.9.07,1.81.1,2.72.14.46.04.92.08,1.38.1,1.8.08,3.6.25,5.41.23.19.11.41.08.61.09,1.16.05,2.32.1,3.49.13,3.93.1,7.86.2,11.79.29,2.67.06,5.35.09,8.03.11,8.05.08,16.1.08,24.15.08.4,0,.71-.11.99-.4.55-.57,1.13-1.11,1.68-1.67,6.98-7.13,13.84-14.38,20.71-21.62.09-.1.23-.17.2-.4-1.88-.22-3.76-.48-5.66-.55-.13-.1-.28-.09-.43-.06-.65-.06-1.29-.13-1.94-.18-1.64-.13-3.28-.28-4.93-.37-1.57-.09-3.14-.24-4.72-.23-.14-.07-.28-.07-.43-.04Zm-80.07,70.9c-.65-.06-1.3-.11-1.94-.18-1.94-.21-3.88-.43-5.82-.65-1.85-.21-3.7-.4-5.54-.62-1.48-.18-2.96-.27-4.45-.25-.71,0-1.3.26-1.84.72-.73.62-1.42,1.28-2.06,1.98-1.01,1.09-2,2.21-2.79,3.48-.66,1.08-.54,1.38.66,1.68,1.72.43,3.47.63,5.22.86,2.4.32,4.8.54,7.21.78,1.92.19,3.85.32,5.77.47,2.78.22,5.56.44,8.34.64,2.16.16,4.31.28,6.47.42,3.02.19,6.03.37,9.05.56,2.16.14,4.32.28,6.47.41,2.25.14,4.5.29,6.75.42,2.86.16,5.71.29,8.57.48,1,.06,2,.08,3,.14,2.65.16,5.3.27,7.95.23.35,0,.7-.02,1.04-.1.58-.13.68-.29.53-.88-.11-.43-.3-.83-.52-1.22-.31-.54-.66-1.07-1.03-1.57-1.38-1.83-2.93-3.5-4.79-4.84-.88-.64-1.86-1.06-2.96-1.13-.67-.04-1.34-.11-2.02-.13-1.84-.06-3.67-.06-5.51-.13-2.6-.09-5.21-.05-7.82-.13-2.58-.08-5.16-.16-7.74-.21-.01-1.32-.02-2.65-.04-3.97-.02-1.93-.09-3.86-.27-5.78-.07-.7-.08-.73-.78-.81-.6-.07-1.2-.13-1.8-.17-1.65-.11-3.29-.22-4.94-.32-3.71-.23-7.43-.42-11.15-.41-.21,0-.42.02-.63.01-.33-.02-.46.16-.5.45-.01.12-.03.23-.04.35-.16,2.67-.17,5.34-.07,8.02.02.46.07.93.02,1.39Zm50.74-17.01c2.41.03,4.88-.19,7.35-.58,2.29-.36,4.25-1.32,5.82-3.03.43-.46.86-.91,1.27-1.39,1.64-1.95,2.96-4.11,4.23-6.31.91-1.57.61-3.71-1.52-4.74-.85-.41-1.77-.57-2.71-.58-1.24-.01-2.45.2-3.66.47-4.06.91-7.92,2.39-11.65,4.2-2.66,1.29-5.21,2.78-7.57,4.58-.78.6-1.48,1.28-1.94,2.16-.79,1.52-.4,2.88,1.08,3.76.73.43,1.52.69,2.35.86,2.26.49,4.56.61,6.95.59Zm50.98-50.85c0-.18-.06-.33-.23-.4-.23-.09-.46-.09-.66.08-.34.29-.68.57-1,.87-.59.56-1.13,1.17-1.67,1.77-.98,1.08-2.05,2.09-3.04,3.17-1.37,1.49-2.76,2.95-4.14,4.43-1.22,1.31-2.44,2.61-3.65,3.93-1.42,1.56-2.9,3.07-4.32,4.64-.54.6-1.12,1.18-1.65,1.79-1.34,1.54-2.74,3.03-4.12,4.53-.82.89-1.62,1.79-2.42,2.69-.26.3-.28.69-.05.87.23.19.64.13.86-.18.45-.66,1.04-1.19,1.57-1.77,1.47-1.64,2.98-3.25,4.45-4.89.85-.95,1.78-1.84,2.62-2.8.54-.61,1.11-1.19,1.66-1.79,1.32-1.44,2.6-2.9,3.94-4.32,1.19-1.27,2.37-2.55,3.55-3.83,1.64-1.78,3.31-3.52,4.98-5.26.97-1.01,1.97-1.98,2.96-2.97.16-.16.37-.3.37-.57Zm-44.14,54.85c-.11.78.09,1.68.17,2.58.16,1.66.43,3.3.69,4.95.3,1.87.63,3.74.96,5.61.31,1.75.66,3.5.95,5.26.24,1.51.61,2.99.73,4.52.04.55.31.88.64.84.34-.03.54-.4.45-.96-.19-1.21-.4-2.42-.62-3.62-.25-1.44-.52-2.87-.77-4.3-.31-1.75-.63-3.51-.92-5.26-.22-1.3-.41-2.6-.61-3.91-.12-.8-.22-1.6-.33-2.4-.19-1.33-.31-2.67-.36-4.01-.01-.29.11-.54.14-.82.03-.3-.12-.48-.39-.58-.3-.12-.43.09-.56.28-.13.2-.18.42-.17.67,0,.35,0,.7,0,1.18Zm63.65-22.33c.21,0,.43.04.63,0,.8-.16,1.61-.15,2.41-.27.91-.13,1.83-.27,2.74-.44.48-.09.6-.33.49-.8-.05-.22-.11-.45-.18-.67-.2-.58-.4-.7-1.02-.74-.77-.05-1.52.2-2.29.15-1.16-.07-2.31.15-3.46.28-.51.06-.66.26-.67.79,0,.25,0,.5.07.76.26.84.39.95,1.27.94Z"/>
    <path class="cls-3" d="m215.21,157.61c-.32.89-.62,1.8-.97,2.67-.55,1.36-1.27,2.63-2.24,3.75-1.16,1.33-2.56,2.05-4.37,2.12-3.25.12-6.5.23-9.76.14-.77-.02-1.53-.08-2.29-.16-.86-.09-1.6-.46-2.24-1.03-1.22-1.08-2.15-2.37-2.83-3.84,2.32-.33,4.65-.65,6.97-1,1.17-.17,2.36-.26,3.51-.57.64-.17.64-.18.44-.78-.85-2.62-1.3-5.32-1.45-8.07-.18-3.46.13-6.87,1.02-10.23.47-1.76,1.11-3.45,2.07-5.01.56-.92,1.21-1.76,2.05-2.45,1.93-1.6,4.18-1.58,6.08.07,1.2,1.04,2.04,2.35,2.71,3.77,1.24,2.64,1.86,5.44,2.19,8.32.26,2.3.18,4.6.1,6.9-.11.73-.19,1.47-.33,2.2-.2,1.07-.43,2.13-.65,3.2Zm-2.18-8.71c.03-2.09-.19-4.29-.74-6.44-.4-1.59-.93-3.12-1.9-4.46-.33-.46-.71-.86-1.19-1.16-.85-.55-1.7-.55-2.56-.04-.4.24-.74.56-1.03.93-.54.67-.96,1.42-1.29,2.22-.81,1.97-1.24,4.03-1.43,6.15-.31,3.43-.15,6.83.78,10.16.39,1.39.92,2.73,1.8,3.9,1.46,1.94,3.37,1.94,4.84,0,.62-.82,1.07-1.74,1.41-2.71.97-2.73,1.33-5.55,1.3-8.55Z"/>
    <path class="cls-10" d="m31.11,126.74c.33-.2.48-.55.69-.85,1.45-2.04,3.37-3.54,5.45-4.86.04-.02.09-.02.13-.03.26,2,.39,4.02.55,6.03.1,1.2.16,2.41.2,3.61.04.98-.04,1.95-.44,2.86-.3.68-.76,1.22-1.48,1.48-.68.25-1.33.11-1.95-.2-1.12-.57-2.22-1.15-3.33-1.74-.65-.35-1.3-.72-1.95-1.08.19-1.12.63-2.16,1.1-3.19.32-.68.67-1.35,1.01-2.03Z"/>
    <path class="cls-5" d="m134.2,83.26c1.58,0,3.15.15,4.72.23,1.64.09,3.28.24,4.93.37.65.05,1.29.12,1.94.18-.52.16-1.04.11-1.57.01-.62-.11-1.25-.14-1.85.13-1.42.63-2.84,1.27-4.26,1.91-1.1.5-2.19,1.01-3.3,1.5-1.5.67-3.02,1.32-4.52,1.99-1.1.49-2.19,1.01-3.3,1.5-1.93.86-3.86,1.7-5.79,2.56-1.1.49-2.2,1-3.3,1.5-1.5.67-3.02,1.32-4.52,1.99-1.1.49-2.19,1.01-3.3,1.5-1.93.86-3.86,1.7-5.79,2.56-1.1.49-2.19,1.01-3.3,1.5-1.89.84-3.78,1.67-5.67,2.5-1.23.54-2.47,1.05-3.7,1.6-1.04.47-2.07.96-3.11,1.45,1.19.08,2.35.06,3.52.08.55.01,1.05-.13,1.54-.36,1.03-.48,2.07-.95,3.11-1.41,1.65-.74,3.31-1.47,4.96-2.21,1.29-.57,2.59-1.15,3.88-1.72,1.93-.85,3.86-1.7,5.79-2.56,1.42-.63,2.84-1.28,4.26-1.91,1.51-.67,3.02-1.32,4.52-1.99,1.42-.63,2.83-1.28,4.26-1.91,1.78-.79,3.57-1.55,5.36-2.34,1.46-.65,2.92-1.32,4.38-1.97,1.97-.88,3.95-1.74,5.92-2.62,1.49-.65,2.97-1.3,4.46-1.96.7-.31,1.39-.64,2.09-.96-.09-.16-.3-.12-.33-.29,1.9.08,3.79.34,5.66.55.03.23-.11.3-.2.4-6.87,7.24-13.73,14.49-20.71,21.62-.55.57-1.13,1.11-1.68,1.67-.28.29-.58.4-.99.4-8.05,0-16.1,0-24.15-.08-2.68-.03-5.35-.06-8.03-.11-3.93-.08-7.86-.18-11.79-.29-1.16-.03-2.32-.09-3.49-.13-.21,0-.42.02-.61-.09.45-.09.93.07,1.38-.13,1.29-.58,2.59-1.15,3.88-1.73,1.89-.85,3.77-1.7,5.65-2.54,2.69-1.2,5.4-2.37,8.09-3.57,2.5-1.11,5.01-2.22,7.51-3.33,2.52-1.12,5.05-2.24,7.57-3.37,2.5-1.11,5.01-2.22,7.51-3.34,2.52-1.12,5.05-2.24,7.57-3.37,2.08-.92,4.16-1.84,6.24-2.77.2-.09.43-.15.63-.46-.56,0-1.04,0-1.51,0-.2,0-.43.09-.55-.18Z"/>
    <path class="cls-2" d="m73.89,155.36c2.58.05,5.16.13,7.74.21,2.61.08,5.21.04,7.82.13,1.84.07,3.68.07,5.51.13.67.02,1.35.09,2.02.13,1.1.07,2.07.49,2.96,1.13,1.87,1.35,3.42,3.01,4.79,4.84.38.5.72,1.03,1.03,1.57.22.38.41.78.52,1.22.15.59.05.75-.53.88-.34.08-.69.1-1.04.1-2.65.04-5.3-.08-7.95-.23-1-.06-2-.08-3-.14-2.85-.18-5.71-.31-8.57-.48-2.25-.13-4.5-.28-6.75-.42-2.16-.14-4.31-.28-6.47-.41-3.02-.19-6.03-.37-9.05-.56-2.16-.14-4.32-.26-6.47-.42-2.78-.2-5.56-.43-8.34-.64-1.92-.15-3.85-.28-5.77-.47-2.4-.24-4.81-.46-7.21-.78-1.75-.23-3.51-.43-5.22-.86-1.2-.3-1.32-.6-.66-1.68.78-1.28,1.78-2.39,2.79-3.48.65-.7,1.33-1.36,2.06-1.98.54-.46,1.12-.71,1.84-.72,1.49-.02,2.97.08,4.45.25,1.85.22,3.69.42,5.54.62,1.94.22,3.88.44,5.82.65.65.07,1.3.12,1.94.18.02.18.04.37.06.55.07.71.1.74.84.84,2.84.38,5.69.6,8.54.83,2.53.2,5.06.36,7.59.52.84.05,1.67.06,2.51.06.48,0,.5-.03.56-.51.04-.35.06-.69.08-1.04Z"/>
    <path class="cls-5" d="m147.5,104.24c-.26-1.18-.4-2.38-.44-3.59-.01-.44.11-.81.4-1.15,3.09-3.63,6.25-7.2,9.78-10.42.38-.34.78-.66,1.16-1,1.38-1.24,3.01-1.88,4.84-2.11,3.01-.38,6.02-.46,9.05-.39.16,0,.32.05.48.08.07.22.13.44.22.66,2.95,7.74,5.48,15.61,7.42,23.66-1.26.18-2.52.38-3.79.55-2.69.36-5.38.72-8.07,1.07-2.35.31-4.7.6-7.04.89-2.07.26-4.14.52-6.22.78-.41.05-.83.09-1.25.13,0-.07,0-.14,0-.21.76-.2,1.52-.41,2.29-.6.92-.23,1.41-.83,1.62-1.72.36-1.47.37-2.94.12-4.42-.11-.64-.42-1.07-1.11-1.13-.11-.01-.22-.07-.34-.09-3.01-.6-6.04-1.01-9.12-1.01Z"/>
    <path class="cls-5" d="m73.44,107.71c-.91-.05-1.81-.07-2.72-.14-2.04-.16-4.08-.34-6.12-.52-.13-.01-.28.03-.39-.11-.03-.21.15-.32.26-.45,5.85-6.61,12.22-12.65,19.55-17.63,2.82-1.91,5.77-3.56,8.92-4.87.82-.34,1.67-.42,2.52-.5,1.85-.18,3.71-.33,5.57-.44,6.84-.4,13.68-.37,20.52-.27,3,.04,6,.18,9,.27.09,0,.18.03.28.04-.59.18-1.2.07-1.8.07-.55,0-1.05.08-1.54.35-.51.28-1.05.49-1.58.73-2.01.89-4.03,1.78-6.04,2.68-1.44.64-2.88,1.3-4.32,1.94-1.97.88-3.95,1.74-5.92,2.62-1.06.47-2.11.96-3.17,1.44-1.55.69-3.1,1.36-4.64,2.05-1.4.62-2.79,1.26-4.19,1.88-1.87.83-3.74,1.63-5.6,2.47-1.97.88-3.93,1.78-5.9,2.66-2.29,1.02-4.59,2.01-6.87,3.03-1.72.76-3.43,1.53-5.14,2.3-.25.11-.53.18-.69.45Z"/>
    <path class="cls-3" d="m146.23,167.13c-.24.78-.46,1.56-.71,2.33-.61,1.86-1.39,3.64-2.49,5.28-.63.93-1.34,1.78-2.22,2.48-1.05.83-2.21,1.3-3.57,1.39-4.34.29-8.69.33-13.03.23-.88-.02-1.76-.12-2.64-.23-.91-.11-1.68-.51-2.39-1.06-.11-.09-.22-.18-.32-.27-2.04-1.89-3.4-4.21-4.36-6.8,3.68,0,7.33-.44,10.98-.83.95-.1,1.9-.2,2.84-.3.45-.05.46-.06.33-.51-.46-1.59-.84-3.19-1.08-4.83-.44-2.98-.6-5.96-.41-8.97.18-2.91.61-5.78,1.44-8.58.66-2.22,1.53-4.34,2.86-6.26.8-1.16,1.73-2.19,2.96-2.91,1.88-1.1,3.76-1.08,5.61.05,1.41.86,2.42,2.09,3.28,3.47,1.5,2.4,2.39,5.03,3.01,7.77.5,2.18.77,4.39.89,6.63.22,3.95-.09,7.85-.99,11.71-.02.07,0,.14,0,.21Zm-2.91-10.45c.02-1.34-.18-3.54-.59-5.71-.37-1.95-.91-3.85-1.82-5.62-.46-.9-1.01-1.73-1.76-2.41-1.33-1.2-2.75-1.27-4.17-.18-.83.64-1.39,1.5-1.88,2.4-.8,1.48-1.32,3.08-1.68,4.72-.73,3.27-.97,6.57-.75,9.91.13,2.03.39,4.03.89,5.99.47,1.83,1.09,3.61,2.18,5.18.45.66.98,1.24,1.67,1.67,1.03.63,2.07.63,3.1,0,.58-.35,1.06-.84,1.46-1.38.79-1.06,1.34-2.23,1.78-3.46,1.16-3.31,1.56-6.74,1.57-11.1Z"/>
    <path class="cls-5" d="m175.71,85.8c1.21-.06,2.41.1,3.61.21,2.4.22,4.8.52,7.18.93,3.3.57,6.54,1.35,9.68,2.53.26.1.5.23.76.35.03.11.05.23.1.33,2.33,5.11,4.13,10.4,5.34,15.89-2.76.77-5.56,1.31-8.37,1.83-3.36.62-6.74,1.13-10.11,1.65-.21.03-.42.03-.63.04-1.95-8.1-4.5-16.02-7.55-23.77Z"/>
    <path class="cls-10" d="m104.45,137.1c-2.39.02-4.69-.1-6.95-.59-.82-.18-1.62-.43-2.35-.86-1.48-.87-1.87-2.24-1.08-3.76.46-.89,1.16-1.57,1.94-2.16,2.36-1.8,4.9-3.29,7.57-4.58,3.73-1.81,7.59-3.29,11.65-4.2,1.2-.27,2.42-.49,3.66-.47.94.01,1.85.17,2.71.58,2.14,1.03,2.43,3.17,1.52,4.74-1.27,2.2-2.6,4.36-4.23,6.31-.4.48-.84.93-1.27,1.39-1.58,1.71-3.53,2.67-5.82,3.03-2.47.39-4.94.61-7.35.58Zm.18-1.86c.84.09,1.7-.07,2.54-.17,1.82-.2,3.61-.55,5.36-1.1,1.29-.4,2.55-.93,3.58-1.82,2.02-1.73,3.36-3.94,4.41-6.35.07-.17.14-.34.14-.54,0-.64-.45-.93-1.03-.67-.27.12-.46.32-.63.54-.97,1.23-2.1,2.3-3.31,3.27-2.5,1.99-5.33,3.36-8.41,4.19-1.36.37-2.74.66-4.16.72-.34.01-.63.18-.89.37-.37.28-.37.68-.06,1.03.17.18.38.26.6.33.6.2,1.22.25,1.87.2Z"/>
    <path class="cls-14" d="m73.89,155.36c-.03.35-.04.7-.08,1.04-.06.48-.08.51-.56.51-.84,0-1.68,0-2.51-.06-2.53-.16-5.06-.32-7.59-.52-2.85-.22-5.7-.45-8.54-.83-.74-.1-.77-.13-.84-.84-.02-.18-.04-.37-.06-.55.05-.46,0-.93-.02-1.39-.1-2.67-.09-5.35.07-8.02,0-.12.02-.23.04-.35.03-.29.17-.47.5-.45.21.01.42-.01.63-.01,3.72-.02,7.44.18,11.15.41,1.65.1,3.29.21,4.94.32.6.04,1.2.1,1.8.17.7.09.71.12.78.81.18,1.92.25,3.85.27,5.78.02,1.32.03,2.65.04,3.97Z"/>
    <path class="cls-14" d="m73.44,107.71c.15-.26.44-.33.69-.45,1.71-.77,3.43-1.54,5.14-2.3,2.29-1.01,4.59-2.01,6.87-3.03,1.97-.88,3.93-1.78,5.9-2.66,1.86-.83,3.74-1.64,5.6-2.47,1.4-.62,2.79-1.25,4.19-1.88,1.55-.69,3.1-1.36,4.64-2.05,1.06-.47,2.11-.96,3.17-1.44,1.97-.88,3.95-1.74,5.92-2.62,1.44-.64,2.88-1.3,4.32-1.94,2.01-.9,4.03-1.79,6.04-2.68.53-.24,1.07-.45,1.58-.73.49-.27.99-.35,1.54-.35.6,0,1.2.11,1.8-.07.29-.04.57-.02.84.07.69.29,1.39.18,2.09.07.15-.03.29-.03.43.04.11.27.35.18.55.18.47.01.95,0,1.51,0-.2.32-.43.38-.63.46-2.08.93-4.16,1.85-6.24,2.77-2.52,1.12-5.05,2.24-7.57,3.37-2.5,1.11-5.01,2.22-7.51,3.34-2.52,1.12-5.05,2.24-7.57,3.37-2.5,1.11-5,2.23-7.51,3.33-2.7,1.19-5.4,2.37-8.09,3.57-1.89.84-3.77,1.7-5.65,2.54-1.29.58-2.59,1.15-3.88,1.73-.45.2-.92.04-1.38.13-1.81.02-3.61-.15-5.41-.23-.46-.02-.92-.07-1.38-.1Z"/>
    <path class="cls-3" d="m39.23,170.83c-.87-1.37-1.51-2.84-2.02-4.38-.05-.15-.07-.31-.11-.47,1.09.04,2.17.24,3.26.35,1.99.2,3.98.44,5.97.63,2.38.24,4.77.45,7.16.66,1.41.12,2.83.2,4.24.33,1,.09,2,.09,2.99.25-.72,1.81-1.66,3.48-2.98,4.93-.81.89-1.73,1.64-2.96,1.86-.59.11-1.2.15-1.8.18-2.6.14-5.2.19-7.81.05-1.94-.11-3.41-.93-4.57-2.44"/>
    <path class="cls-2" d="m85.6,133.29c-1.55,1.3-3.18,2.5-4.84,3.65-1.25.86-2.62,1.24-4.11,1.39-1.83.19-3.67.21-5.51.21-2.35-.01-4.7,0-7.04-.17-1.09-.08-2.18-.09-3.27-.16-3.02-.18-6.03-.42-9-1.01-.96-.19-1.9-.44-2.83-.75-.91-.31-1.68-.79-2.26-1.57-.54-.73-1.09-1.45-1.63-2.18-.08-.11-.17-.23-.17-.38.11.03.22.07.34.08,2.23.29,4.46.62,6.69.87,2.01.23,4.02.42,6.03.55,2.32.14,4.64.22,6.97.28,2.02.05,4.05-.02,6.07-.07,1.91-.05,3.81-.19,5.72-.2.07,0,.14,0,.21-.01,1.64-.13,3.29-.25,4.93-.39.86-.07,1.71-.18,2.56-.24.38-.02.78-.2,1.14.08Z"/>
    <path class="cls-7" d="m147.5,104.24c3.08,0,6.11.41,9.12,1.01.11.02.22.08.34.09.69.07,1,.49,1.11,1.13.25,1.48.25,2.95-.12,4.42-.22.88-.71,1.49-1.62,1.72-.76.19-1.52.4-2.29.6-.66.09-1.33.18-1.96.41h0c-.25.06-.52-.03-.76.1-.89.14-1.78.27-2.67.41-.43.07-.88.12-1.31.15-.72.04-1.42.21-2.14.19-.57-.01-1.14.15-1.73.13-.44-.02-.87-.02-1.31-.13-.53-.13-.64-.24-.53-.74.22-1.02.41-2.04.7-3.04.5-1.71,1.05-3.41,1.91-4.99.13-.24.29-.48.42-.72.2-.35.51-.49.89-.59.64-.17,1.29-.1,1.94-.14Z"/>
    <path class="cls-14" d="m146.22,84.11c.03.17.24.13.33.29-.7.32-1.39.65-2.09.96-1.48.66-2.97,1.31-4.46,1.96-1.97.87-3.95,1.74-5.92,2.62-1.46.65-2.92,1.32-4.38,1.97-1.78.79-3.57,1.55-5.36,2.34-1.42.63-2.84,1.28-4.26,1.91-1.51.67-3.02,1.32-4.52,1.99-1.42.63-2.84,1.28-4.26,1.91-1.93.86-3.86,1.7-5.79,2.56-1.29.57-2.59,1.15-3.88,1.72-1.65.73-3.31,1.47-4.96,2.21-1.04.46-2.08.93-3.11,1.41-.49.23-.99.37-1.54.36-1.16-.02-2.33,0-3.52-.08,1.04-.48,2.07-.98,3.11-1.45,1.23-.55,2.47-1.06,3.7-1.6,1.89-.83,3.78-1.66,5.67-2.5,1.1-.49,2.19-1.01,3.3-1.5,1.93-.86,3.86-1.7,5.79-2.56,1.1-.49,2.2-1,3.3-1.5,1.5-.67,3.02-1.32,4.52-1.99,1.1-.49,2.19-1.01,3.3-1.5,1.93-.86,3.86-1.7,5.79-2.56,1.1-.49,2.2-1,3.3-1.5,1.5-.67,3.02-1.32,4.52-1.99,1.1-.49,2.2-1,3.3-1.5,1.42-.64,2.83-1.28,4.26-1.91.6-.26,1.23-.24,1.85-.13.53.1,1.05.14,1.57-.01.15-.02.3-.03.43.06Z"/>
    <path class="cls-3" d="m175.71,85.8c3.04,7.76,5.6,15.67,7.55,23.77-.93.25-1.89.37-2.85.41-1.94-8.05-4.47-15.93-7.42-23.66-.08-.22-.15-.44-.22-.66.98.02,1.97-.05,2.94.13Z"/>
    <path class="cls-8" d="m85.6,133.29c-.36-.28-.76-.11-1.14-.08-.86.06-1.71.17-2.56.24-1.64.14-3.29.26-4.93.39-.07,0-.14.01-.21.01-1.91,0-3.81.15-5.72.2-2.02.05-4.05.12-6.07.07-2.32-.05-4.65-.13-6.97-.28-2.01-.12-4.03-.32-6.03-.55-2.24-.25-4.46-.58-6.69-.87-.11-.02-.23-.05-.34-.08-1.02-.08-2.01-.31-3.01-.47-.64-.11-1.27-.25-1.91-.38-.25-.05-.5-.1-.72-.25-.19-.13-.28-.31-.22-.54.06-.25.25-.32.47-.32.16,0,.33,0,.49.03,1.91.5,3.86.74,5.8,1.06,1.57.26,3.17.37,4.75.6,1.53.23,3.08.29,4.62.52.59.09,1.2.11,1.8.13,1.18.04,2.36.13,3.54.2,3.72.21,7.44.15,11.15.07,1.5-.03,3.02.04,4.51-.22.2-.04.42-.01.63-.01,1.23,0,2.45-.15,3.67-.26.71-.06,1.43-.08,2.15-.16,1.31-.15,2.62-.25,3.93-.39.97-.1,1.93-.24,2.9-.33.85-.08,1.7-.22,2.54-.35.16-.02.32-.07.48-.04.25.05.42.21.46.46.04.28-.11.41-.36.52-.42.18-.87.15-1.3.22-1.3.2-2.62.28-3.92.49-.6.1-1.27-.04-1.8.38Z"/>
    <path class="cls-5" d="m198.35,90.43c1.97.8,3.79,1.86,5.35,3.33.36.34.5.78.62,1.22.45,1.61.74,3.26.98,4.92.19,1.29.32,2.58.32,3.89,0,.76-.3,1.23-1,1.48-.37.13-.72.33-1.11.38-.16-.68-.32-1.36-.49-2.03-1.17-4.53-2.74-8.92-4.66-13.19Z"/>
    <path class="cls-8" d="m155.43,86.26c0,.27-.21.4-.37.57-.99.99-1.99,1.96-2.96,2.97-1.67,1.74-3.34,3.49-4.98,5.26-1.18,1.28-2.36,2.56-3.55,3.83-1.34,1.42-2.62,2.88-3.94,4.32-.55.6-1.12,1.17-1.66,1.79-.84.96-1.76,1.85-2.62,2.8-1.47,1.64-2.98,3.25-4.45,4.89-.52.58-1.12,1.11-1.57,1.77-.21.31-.63.36-.86.18-.22-.18-.21-.57.05-.87.8-.9,1.6-1.8,2.42-2.69,1.38-1.5,2.78-2.99,4.12-4.53.53-.61,1.11-1.19,1.65-1.79,1.42-1.57,2.89-3.08,4.32-4.64,1.2-1.32,2.43-2.62,3.65-3.93,1.37-1.48,2.77-2.94,4.14-4.43.99-1.08,2.06-2.08,3.04-3.17.55-.6,1.08-1.21,1.67-1.77.32-.3.66-.58,1-.87.2-.17.43-.17.66-.08.17.07.23.22.23.4Z"/>
    <path class="cls-8" d="m111.29,141.1c0-.48,0-.83,0-1.18,0-.24.04-.47.17-.67.13-.19.26-.4.56-.28.27.11.42.28.39.58-.03.28-.15.53-.14.82.05,1.34.17,2.68.36,4.01.12.8.21,1.6.33,2.4.2,1.3.39,2.61.61,3.91.3,1.76.61,3.51.92,5.26.25,1.43.52,2.87.77,4.3.21,1.21.42,2.41.62,3.62.09.55-.11.92-.45.96-.33.03-.6-.29-.64-.84-.12-1.53-.49-3.01-.73-4.52-.28-1.76-.64-3.5-.95-5.26-.33-1.87-.66-3.73-.96-5.61-.26-1.64-.53-3.29-.69-4.95-.09-.9-.28-1.79-.17-2.58Z"/>
    <path class="cls-3" d="m198.35,90.43c1.92,4.27,3.5,8.66,4.66,13.19.17.67.33,1.35.49,2.03-.35.22-.74.31-1.14.38-1.21-5.49-3.01-10.78-5.34-15.89-.05-.1-.06-.22-.1-.33.5.15.96.36,1.42.61Z"/>
    <path class="cls-7" d="m174.95,118.77c-.88,0-1.01-.1-1.27-.94-.08-.25-.08-.5-.07-.76,0-.53.15-.73.67-.79,1.15-.13,2.29-.35,3.46-.28.77.04,1.52-.2,2.29-.15.62.04.82.16,1.02.74.07.22.13.44.18.67.11.48,0,.71-.49.8-.91.17-1.82.31-2.74.44-.8.12-1.61.11-2.41.27-.2.04-.42,0-.63,0Z"/>
    <path class="cls-4" d="m152.07,113.61c.63-.23,1.3-.32,1.96-.41,0,.07,0,.14,0,.21-.65.15-1.3.21-1.96.2Z"/>
    <path class="cls-9" d="m151.33,113.71c.24-.13.51-.04.76-.11-.23.21-.51.06-.76.11Z"/>
    <path class="cls-9" d="m213.03,148.9c.03,3-.33,5.83-1.3,8.55-.34.97-.79,1.89-1.41,2.71-1.46,1.94-3.37,1.94-4.84,0-.88-1.17-1.41-2.51-1.8-3.9-.93-3.33-1.09-6.73-.78-10.16.19-2.12.61-4.18,1.43-6.15.33-.8.75-1.55,1.29-2.22.29-.36.63-.69,1.03-.93.86-.51,1.71-.51,2.56.04.48.31.86.71,1.19,1.16.97,1.34,1.5,2.88,1.9,4.46.54,2.15.76,4.34.74,6.44Z"/>
    <path class="cls-9" d="m143.31,156.68c-.01,4.37-.41,7.79-1.57,11.1-.43,1.23-.99,2.41-1.78,3.46-.41.55-.88,1.03-1.46,1.38-1.03.63-2.06.63-3.1,0-.69-.42-1.21-1.01-1.67-1.67-1.09-1.57-1.71-3.35-2.18-5.18-.5-1.97-.76-3.97-.89-5.99-.22-3.34.03-6.65.75-9.91.36-1.64.88-3.23,1.68-4.72.49-.9,1.04-1.76,1.88-2.4,1.42-1.09,2.84-1.03,4.17.18.75.68,1.3,1.52,1.76,2.41.91,1.78,1.45,3.67,1.82,5.62.41,2.18.61,4.37.59,5.71Z"/>
    <path class="cls-14" d="m104.62,135.25c-.65.04-1.27,0-1.87-.2-.22-.07-.43-.15-.6-.33-.32-.35-.31-.75.06-1.03.26-.2.55-.36.89-.37,1.42-.06,2.8-.35,4.16-.72,3.08-.83,5.91-2.2,8.41-4.19,1.22-.97,2.35-2.04,3.31-3.27.17-.22.37-.42.63-.54.58-.26,1.03.03,1.03.67,0,.19-.06.37-.14.54-1.05,2.41-2.39,4.63-4.41,6.35-1.03.88-2.29,1.41-3.58,1.82-1.75.55-3.55.9-5.36,1.1-.85.09-1.7.25-2.54.17Z"/>
  </g>
  <path class="cls-11" d="m274.26,164.43c-.64,0-1.27-.27-1.72-.79l-8.2-9.6c-.44-.52-.63-1.2-.5-1.87.12-.67.54-1.24,1.13-1.57,7.78-4.27,14.5-9.7,19.97-16.15,4.07-4.78,7.12-10.28,9.07-16.33,1.71-5.18,2.94-11.07,3.69-17.55h-29.87c-1.25,0-2.25-1.01-2.25-2.25v-11.06c0-1.25,1.01-2.25,2.25-2.25h30.73c.24-7.07.35-13.51.35-19.16,0-1.25,1.01-2.25,2.25-2.25h12.52c.6,0,1.18.24,1.6.67.42.43.66,1.01.65,1.61-.06,7.17-.22,13.59-.48,19.14h37.33c.6,0,1.18.24,1.6.67.42.43.66,1.01.65,1.61-.22,25.47-1.27,45.3-3.15,58.93-.91,6.78-2.78,11.39-5.73,14.09-3.09,2.8-8.02,4.15-15.06,4.15-4.73,0-9.81-.39-15.1-1.16-.97-.14-1.74-.9-1.9-1.87l-2-12.14c-.12-.72.12-1.46.64-1.97.43-.42,1-.65,1.58-.65.13,0,.27.01.4.04,6.06,1.09,11.06,1.64,14.87,1.64,3.07,0,3.74-.58,3.75-.58.1-.11.91-1.22,1.68-7.11,1.65-13.07,2.58-26.54,2.76-40.07h-23.19c-1.49,14.13-4.69,25.71-9.51,34.44-6.58,11.86-16.58,21.66-29.72,29.14-.35.2-.73.3-1.11.3Z"/>
  <path class="cls-11" d="m267.84,87.24h32.91c.29-7.98.43-15.12.43-21.42h12.52c-.07,8.2-.27,15.34-.59,21.42h39.7c-.22,25.5-1.26,45.04-3.13,58.64-.83,6.19-2.5,10.43-5.02,12.73-2.63,2.37-7.14,3.56-13.54,3.56-4.64,0-9.57-.38-14.78-1.13l-2-12.14c6.22,1.12,11.31,1.67,15.27,1.67,2.73,0,4.51-.41,5.34-1.24.93-.9,1.71-3.7,2.32-8.42,1.76-13.95,2.7-28.16,2.81-42.62h-27.51c-1.37,14.82-4.51,26.69-9.44,35.6-6.4,11.54-16.02,20.97-28.86,28.27l-8.2-9.6c8.06-4.42,14.92-9.98,20.61-16.67,4.28-5.03,7.44-10.74,9.49-17.1,1.98-6.01,3.33-12.84,4.05-20.5h-32.37v-11.06Z"/>
  <g>
    <path class="cls-11" d="m376.16,121.72c-.89,0-1.62-1.01-1.62-2.25v-12.14c0-1.25.73-2.25,1.62-2.25h68.25c.89,0,1.62,1.01,1.62,2.25v12.14c0,1.25-.73,2.25-1.62,2.25h-68.25Z"/>
    <path class="cls-11" d="m376.16,107.33h68.25v12.14h-68.25v-12.14Z"/>
  </g>
  <g>
    <path class="cls-11" d="m592.41,121.72c-.89,0-1.62-1.01-1.62-2.25v-12.14c0-1.25.73-2.25,1.62-2.25h68.25c.89,0,1.62,1.01,1.62,2.25v12.14c0,1.25-.73,2.25-1.62,2.25h-68.25Z"/>
    <path class="cls-11" d="m592.41,107.33h68.25v12.14h-68.25v-12.14Z"/>
  </g>
  <g>
    <path class="cls-11" d="m901.83,121.72c-.89,0-1.62-1.01-1.62-2.25v-12.14c0-1.25.73-2.25,1.62-2.25h68.25c.89,0,1.62,1.01,1.62,2.25v12.14c0,1.25-.73,2.25-1.62,2.25h-68.25Z"/>
    <path class="cls-11" d="m901.83,107.33h68.25v12.14h-68.25v-12.14Z"/>
  </g>
  <g>
    <path class="cls-11" d="m1109.14,121.72c-.89,0-1.62-1.01-1.62-2.25v-12.14c0-1.25.73-2.25,1.62-2.25h68.25c.89,0,1.62,1.01,1.62,2.25v12.14c0,1.25-.73,2.25-1.62,2.25h-68.25Z"/>
    <path class="cls-11" d="m1109.14,107.33h68.25v12.14h-68.25v-12.14Z"/>
  </g>
  <path class="cls-11" d="m511.28,166.75c-1.25,0-2.25-1.01-2.25-2.25v-62.7h-37.56c-1.25,0-2.25-1.01-2.25-2.25v-10.84c0-1.25,1.01-2.25,2.25-2.25h37.56v-20.4c0-1.25,1.01-2.25,2.25-2.25h12.14c1.25,0,2.25,1.01,2.25,2.25v20.4h23.64c-1.2-.95-2.25-2.08-3.14-3.36-1.91-2.75-2.89-5.81-2.89-9.11,0-2.57.66-5.07,1.95-7.44,1.28-2.36,3.03-4.3,5.2-5.76,2.66-1.73,5.59-2.6,8.76-2.6,2.82,0,5.52.78,8.03,2.33,2.48,1.49,4.45,3.56,5.82,6.15,1.25,2.33,1.88,4.81,1.88,7.37,0,4.1-1.47,7.75-4.38,10.87-1.29,1.38-2.71,2.47-4.26,3.28.04.17.06.34.06.53v10.84c0,1.25-1.01,2.25-2.25,2.25h-38.42v62.7c0,1.25-1.01,2.25-2.25,2.25h-12.14Zm47.8-97.43c-.87,0-1.69.26-2.51.78-1.48.93-2.14,2.15-2.14,3.98,0,1.27.4,2.28,1.27,3.2.94.99,2.03,1.45,3.43,1.45.77,0,1.48-.17,2.17-.52,1.7-.89,2.48-2.17,2.48-4.13,0-1.38-.45-2.46-1.42-3.4-.91-.94-1.94-1.36-3.28-1.36Zm-80.06,90.25c-.5,0-.98-.16-1.38-.47l-10.74-8.31c-.98-.76-1.16-2.17-.41-3.15,7.68-10.05,12.93-23.41,15.59-39.72.1-.63.47-1.19,1-1.53.37-.24.79-.36,1.22-.36.2,0,.39.03.59.08l11.81,3.18c1.12.3,1.83,1.41,1.64,2.56-3.35,19.68-9.24,35.42-17.5,46.8-.36.49-.9.82-1.5.91-.11.02-.21.02-.32.02Zm77.31-1.46c-.73,0-1.44-.35-1.88-1.01-8.18-12.29-15.03-27.76-20.36-45.99-.34-1.16.3-2.39,1.45-2.77l11.6-3.88c.23-.08.47-.12.72-.12.36,0,.72.09,1.04.26.54.28.95.78,1.12,1.37,4.3,14.75,10.74,28.7,19.14,41.47.33.5.45,1.11.32,1.7-.12.59-.47,1.1-.97,1.43l-10.95,7.17c-.38.25-.81.37-1.23.37Z"/>
  <path class="cls-11" d="m468.28,149.01c7.95-10.39,13.29-23.97,16.02-40.73l11.81,3.18c-3.31,19.42-9.01,34.71-17.1,45.85l-10.74-8.31Zm42.99-82.97h12.14v22.66h40.68v10.84h-40.68v64.95h-12.14v-64.95h-39.81v-10.84h39.81v-22.66Zm45.04,89.82c-8.09-12.16-14.78-27.28-20.07-45.37l11.6-3.88c4.39,15.03,10.86,29.06,19.42,42.08l-10.95,7.17Zm2.86-95.43c2.41,0,4.69.67,6.85,2,2.16,1.29,3.83,3.06,5.02,5.29,1.08,2.01,1.62,4.12,1.62,6.31,0,3.53-1.26,6.64-3.78,9.33-2.66,2.84-5.93,4.26-9.82,4.26-1.94,0-3.81-.41-5.61-1.24-2.23-1.04-4.05-2.57-5.45-4.59-1.65-2.37-2.48-4.98-2.48-7.82,0-2.19.56-4.32,1.67-6.37,1.11-2.05,2.61-3.7,4.48-4.96,2.27-1.47,4.76-2.21,7.5-2.21Zm-.11,6.64c-1.29,0-2.54.38-3.72,1.13-2.12,1.33-3.18,3.29-3.18,5.88,0,1.83.63,3.42,1.89,4.75,1.37,1.44,3.06,2.16,5.07,2.16,1.11,0,2.18-.25,3.18-.76,2.48-1.29,3.72-3.34,3.72-6.15,0-1.98-.7-3.65-2.1-5.02-1.29-1.33-2.91-2-4.86-2Z"/>
  <path class="cls-11" d="m694.12,166.53c-1.25,0-2.25-1.01-2.25-2.25v-98.13c0-1.25,1.01-2.25,2.25-2.25h12.57c1.25,0,2.25,1.01,2.25,2.25v29.3c20.78,6.47,38.3,13.17,52.09,19.92.54.27.96.74,1.15,1.32.19.58.14,1.2-.14,1.74l-6.04,11.65c-.4.77-1.19,1.22-2,1.22-.34,0-.69-.08-1.02-.24-12.62-6.41-27.42-12.6-44.04-18.42v51.64c0,1.25-1.01,2.25-2.25,2.25h-12.57Z"/>
  <path class="cls-11" d="m694.12,66.15h12.57v30.96c21.47,6.62,39.25,13.38,53.35,20.28l-6.04,11.65c-13.52-6.87-29.29-13.4-47.31-19.58v54.81h-12.57v-98.13Z"/>
  <path class="cls-11" d="m815.98,165.4c-.72,0-1.41-.34-1.84-.95l-7.71-10.9c-.41-.58-.52-1.33-.3-2.01.22-.68.76-1.21,1.43-1.44,14.47-4.79,25.74-11.28,33.51-19.28,7.16-7.3,12.57-16.72,16.08-28.01,2.78-8.88,4.91-20.44,6.33-34.35.06-.64.4-1.23.93-1.6.39-.28.85-.42,1.32-.42.17,0,.33.02.5.06l12.35,2.81c1.12.25,1.87,1.31,1.74,2.45-2.98,26.27-8.89,46.26-17.57,59.41-6.34,9.58-14.87,17.72-25.35,24.2-5.67,3.51-12.6,6.84-20.61,9.9-.26.1-.54.15-.8.15Zm-8.69-46.93c-.3,0-.6-.06-.89-.18-.59-.25-1.04-.74-1.25-1.35-4.23-12.43-10.03-25.88-17.24-40-.28-.54-.32-1.16-.13-1.73.19-.57.6-1.04,1.14-1.31l11.17-5.56c.32-.16.66-.24,1-.24.78,0,1.54.41,1.96,1.13,6.83,11.85,13.02,25.52,18.4,40.61.39,1.1-.12,2.31-1.17,2.8l-12.03,5.61c-.3.14-.63.21-.95.21Z"/>
  <path class="cls-11" d="m807.3,116.21c-4.28-12.59-10.07-26.02-17.37-40.3l11.17-5.56c6.8,11.8,12.87,25.21,18.23,40.24l-12.03,5.61Zm.97,36.04c14.89-4.93,26.36-11.54,34.42-19.85,7.44-7.59,12.98-17.23,16.62-28.92,2.84-9.06,4.98-20.66,6.42-34.8l12.35,2.81c-2.95,26.04-8.69,45.51-17.21,58.42-6.19,9.35-14.4,17.19-24.65,23.52-5.58,3.45-12.32,6.69-20.23,9.71l-7.71-10.9Z"/>
  <path class="cls-11" d="m1022.05,166.21c-.85,0-1.63-.48-2.02-1.25l-5.45-10.95c-.33-.66-.31-1.45.05-2.1.36-.65,1.02-1.08,1.75-1.15,15.55-1.5,27.55-5.08,35.68-10.62,9.77-6.61,15.69-16.52,17.64-29.49h-72.21c-1.25,0-2.25-1.01-2.25-2.25v-11.06c0-1.25,1.01-2.25,2.25-2.25h89.82c.64,0,1.25.27,1.67.74.43.47.64,1.1.57,1.74-1.61,15.92-5,28.59-10.1,37.67-3.89,6.92-8.83,12.52-14.69,16.65-9.74,6.94-24.01,11.75-42.42,14.31-.1.01-.21.02-.31.02Zm-16.83-82c-1.25,0-2.25-1.01-2.25-2.25v-11.06c0-1.25,1.01-2.25,2.25-2.25h71.15c1.25,0,2.25,1.01,2.25,2.25v11.06c0,1.25-1.01,2.25-2.25,2.25h-71.15Z"/>
  <path class="cls-11" d="m997.51,97.33h89.82c-1.58,15.68-4.86,27.94-9.82,36.79-3.74,6.65-8.42,11.96-14.03,15.91-9.49,6.76-23.3,11.4-41.43,13.92l-5.45-10.95c16-1.55,28.25-5.21,36.74-11,11-7.44,17.32-18.65,18.94-33.61h-74.77v-11.06Zm7.71-26.43h71.15v11.06h-71.15v-11.06Z"/>
  <path class="cls-11" d="m1213.37,163.35c-1,0-1.89-.66-2.17-1.63l-3.45-12.08c-.19-.65-.07-1.35.31-1.9.38-.56,1-.91,1.67-.97,14.42-1.2,25.85-3.4,33.95-6.54,11.8-4.51,21.19-12.67,27.94-24.28,4.57-7.85,8.24-17.96,10.91-30.05.16-.7.64-1.29,1.29-1.58.29-.13.6-.19.91-.19.39,0,.78.1,1.13.3l10.9,6.31c.85.49,1.29,1.48,1.07,2.45-3.54,15.71-8.57,28.44-14.95,37.83-7.56,11.09-18.24,19.39-31.74,24.68-9.4,3.62-22.04,6.19-37.57,7.64-.07,0-.14,0-.21,0Zm22.06-41.81c-.31,0-.62-.06-.91-.19-8.73-3.83-19.58-7.81-32.25-11.84-.61-.19-1.1-.63-1.37-1.21-.26-.58-.27-1.24-.02-1.83l4.64-10.79c.36-.84,1.19-1.36,2.07-1.36.19,0,.39.02.58.07,11.08,2.93,21.99,6.88,32.42,11.73,1.07.5,1.58,1.74,1.16,2.84l-4.21,11.11c-.22.58-.66,1.04-1.24,1.28-.28.12-.58.18-.87.18Zm11.06-27.62c-.31,0-.63-.07-.92-.2-10.46-4.68-21.29-8.65-32.18-11.81-.59-.17-1.08-.57-1.37-1.11-.29-.54-.34-1.17-.15-1.76l3.51-10.68c.31-.94,1.19-1.55,2.14-1.55.18,0,.36.02.54.07,12.53,3.12,23.69,6.98,33.17,11.48,1.03.49,1.53,1.67,1.17,2.75l-3.78,11.27c-.2.6-.65,1.09-1.23,1.35-.29.13-.6.19-.91.19Z"/>
  <path class="cls-11" d="m1235.43,119.29c-8.85-3.88-19.67-7.86-32.48-11.92l4.64-10.79c11,2.91,21.69,6.78,32.04,11.6l-4.21,11.11Zm-25.52,29.72c14.71-1.22,26.24-3.45,34.58-6.69,12.33-4.71,22.03-13.13,29.08-25.25,4.71-8.09,8.43-18.32,11.17-30.7l10.9,6.31c-3.49,15.5-8.36,27.85-14.62,37.06-7.34,10.75-17.57,18.7-30.7,23.84-9.24,3.56-21.56,6.06-36.95,7.5l-3.45-12.08Zm36.58-57.34c-10.61-4.75-21.44-8.72-32.48-11.92l3.51-10.68c12.44,3.09,23.36,6.87,32.75,11.33l-3.78,11.27Z"/>
  <path class="cls-11" d="m1327.09,164c-.78,0-1.54-.41-1.95-1.12l-6.47-11.17c-.33-.56-.39-1.24-.18-1.86.21-.62.68-1.11,1.28-1.36,13.1-5.34,24.15-12.08,32.83-20.02,8.15-7.45,15.73-16.78,22.53-27.74,2.89-4.68,5.28-9.13,7.14-13.28h-53.72c-1.25,0-2.25-1.01-2.25-2.25v-11.06c0-1.25,1.01-2.25,2.25-2.25h65.06c.55,0,1.08.2,1.49.56l7.17,6.31c.73.64.97,1.68.59,2.57-5.82,13.76-12.79,26.5-20.74,37.9,11.38,9.06,22.38,19.32,32.73,30.53.78.85.8,2.15.03,3.02l-8.96,10.14c-.43.48-1.04.76-1.69.76h0c-.65,0-1.26-.28-1.69-.76-9.95-11.3-20.19-21.71-30.47-30.97-11.73,13.3-26.54,24.01-44.06,31.86-.3.13-.61.2-.92.2Z"/>
  <path class="cls-11" d="m1328.55,74.14h65.06l7.17,6.31c-6.08,14.39-13.32,27.46-21.74,39.22,11.94,9.35,23.32,19.89,34.15,31.61l-8.96,10.14c-10.61-12.05-21.4-22.94-32.37-32.69-11.8,13.92-26.72,24.92-44.78,33.01l-6.47-11.17c13.41-5.47,24.58-12.28,33.5-20.45,8.34-7.62,15.99-17.03,22.93-28.21,3.7-6.01,6.58-11.58,8.63-16.72h-57.13v-11.06Z"/>
  <path class="cls-11" d="m1464.07,167.02c-.67,0-1.33-.3-1.76-.85l-7.71-9.66c-.44-.56-.6-1.29-.42-1.98.18-.69.68-1.25,1.34-1.52,11.23-4.52,18.79-10.36,22.48-17.35,2.5-4.66,4.01-11.68,4.5-20.92h-41.72c-1.25,0-2.25-1.01-2.25-2.25v-11.06c0-1.25,1.01-2.25,2.25-2.25h96.67c1.25,0,2.25,1.01,2.25,2.25v11.06c0,1.25-1.01,2.25-2.25,2.25h-37.83c-.51,8.63-1.63,15.73-3.33,21.14-2.86,9.03-7.76,16.34-14.56,21.75-4.11,3.21-9.75,6.31-16.78,9.22-.28.12-.57.17-.86.17Zm-11.49-83.02c-1.25,0-2.25-1.01-2.25-2.25v-11.06c0-1.25,1.01-2.25,2.25-2.25h71.8c1.25,0,2.25,1.01,2.25,2.25v11.06c0,1.25-1.01,2.25-2.25,2.25h-71.8Z"/>
  <path class="cls-11" d="m1440.77,101.43h96.67v11.06h-39.97c-.43,9.46-1.55,17.03-3.34,22.71-2.73,8.63-7.34,15.52-13.81,20.66-3.96,3.09-9.37,6.06-16.24,8.9l-7.71-9.66c11.8-4.75,19.67-10.88,23.63-18.4,2.88-5.36,4.5-13.43,4.86-24.22h-44.07v-11.06Zm11.81-30.75h71.8v11.06h-71.8v-11.06Z"/>
  <path class="cls-11" d="m1644.61,163.89c-.24,0-.48-.04-.72-.12-.58-.19-1.06-.62-1.32-1.17-1.75-3.69-3.68-7.56-5.73-11.53-20.64,3.41-45.46,6.48-73.8,9.14-.07,0-.14,0-.21,0-1.06,0-2-.75-2.21-1.81l-2.64-13.27c-.13-.66.04-1.34.46-1.86.42-.52,1.05-.83,1.72-.84,2.16-.03,5.1-.18,8.77-.44,9.96-22.51,19.27-47.58,27.68-74.53.3-.96,1.19-1.58,2.15-1.58.19,0,.38.02.57.07l12.35,3.24c.6.16,1.11.55,1.4,1.1.3.54.36,1.18.17,1.77-8.02,25.08-16.67,48.17-25.74,68.69,15.24-1.16,29.13-2.55,41.38-4.12-4.74-8.19-9.6-15.89-14.46-22.92-.35-.51-.48-1.13-.36-1.73.12-.6.48-1.13,1-1.46l10.63-6.74c.37-.24.79-.35,1.21-.35.7,0,1.39.32,1.83.93,11.35,15.64,21.46,32.45,30.03,49.96.54,1.1.1,2.43-.98,2.99l-12.14,6.31c-.32.17-.68.25-1.04.25Z"/>
  <path class="cls-11" d="m1560.18,144.7c2.48-.04,5.9-.22,10.25-.54,10.25-23.02,19.69-48.35,28.32-76.01l12.35,3.24c-8.49,26.54-17.55,50.51-27.19,71.91,18.27-1.33,34.47-2.95,48.61-4.86-5.32-9.39-10.74-18.05-16.24-26l10.63-6.74c11.33,15.61,21.27,32.15,29.83,49.63l-12.14,6.31c-1.98-4.17-4.15-8.52-6.53-13.05-21,3.53-46.09,6.65-75.25,9.39l-2.64-13.27Z"/>
</svg>